<svg xmlns="http://www.w3.org/2000/svg" xmlns:xlink="http://www.w3.org/1999/xlink" width="100%" height="100%" viewBox="0 0 124.119 137.911"><defs><path id="a" d="M6.527 6.906H117.59v124.098H6.528z"/></defs><clipPath id="b"><use xlink:href="#a" overflow="visible"/></clipPath><path clip-path="url(#b)" fill="#949DA8" d="M61.15 7.508l.515-.3c5.883 1.073 11.165 6.57 17.434 3.606 1.717-.042 3.09.044 4.422.73-.215.257-.3.687-.645.73-.13.43.344 1.202-.386 1.33-.13.043-.342-.084-.43.086v.216c-.986.558-2.146 1.374-3.09 2.062-2.063.257-4.338.944-6.57.128-4.724-1.674-8.76-3.78-12.582-7.343.13-.687-.73-1.33-.3-1.846.516.3.99.643 1.632.6M74.76 54.398h.302c-1.5 3.006-3.358 5.19-7.427 6.614-4.07 1.423-7.37-.478-9.362-3.178-.602-.043-.3-.988-.816-1.03-2.147-3.52-2.876-7.9-3.52-12.066-.774-3.564-.26-7.258-.087-10.82-.172-.474-.172-.99 0-1.547.56-2.833.43-5.967 1.33-8.672-.042-2.748.73-5.668 1.332-8.46.602 1.718.945 3.736.945 5.798l-.43.086.43.514c0 4.25.773 8.89.515 12.882l-.343.215.342.215c-.027.748-.11 1.32.08 1.878l-.21.57c.517 1.33.02 6.365 1.547 10.134l-.302.085c.953 1.345 2.238 8.278 5.237 10.39 5.555 1.076 13.27-16.313 13.74-19.364.127-.82.41-1.255 1.032-1.03.623.225.68 1.23.3 2.276l-.3 2.577-.345.086c.688 1.587-.814 2.704-.6 4.25l-.334.26.246.77-.943 1.76c.216.43.13.58-.03.715l-.484.617c.3 1.246-1.803 1.33-1.03 2.362l-.815 1.114"/><path clip-path="url(#b)" fill="#949DA8" d="M68.063 22.666c0 1.414-2.79 1.357-2.79 4.55-.517.56-.716.722-1.767.722-1.048 0-1.24-.935-1.928-.204-1.034.092-.514-1.16-.514-1.16 1.933-1.847 4.165-3.435 6.698-4.208l.3.3M75.473 26.708c.95 1.733-.028 3.64-1.23 4.584 0 0-1.5-5.062-3.518-6.65-.127-.43.89-.787 1.84-.562.816.214 3.767 2.026 2.908 2.628"/><g clip-path="url(#b)"><defs><path id="c" d="M6.527 6.906H117.59V130.97H6.527z"/></defs><clipPath id="d"><use xlink:href="#c" overflow="visible"/></clipPath><path clip-path="url(#d)" fill="#949DA8" d="M73 42.676c0 .86-.17 1.718-1.115 1.933-.388.3-.258.815-.43 1.158-2.19-1.502-.623-5.968-3.82-5.968-1.332 0-.087 1.632-.087 1.632-2.084 1.21-4.6 1.267-5.774.204l3.2-6.087c.9-.817 2.017-2.105 3.605-1.847 2.868-2.076 4.42 3.683 4.42 8.973"/><path clip-path="url(#d)" fill="#3C3D3F" d="M117.465 124.963c-.29 3.645-2.285 6.04-5.525 6.04-3.595 0-5.713-2.493-5.713-8.94 0-5.936 2.118-8.92 5.873-8.92 3.79 0 5.49 2.596 5.49 8.312v.7h-9.31v.81c0 4.93 1.74 6.447 3.643 6.447 2.032 0 3.288-1.45 3.61-4.45h1.932m-1.93-4.4c-.062-4.273-1.252-5.827-3.61-5.827-2.386 0-3.58 1.554-3.645 5.827h7.255m-17.548 10.065h1.928v-10.693c0-3.317 1.998-4.864 4.123-4.864.29 0 .61.034.934.1v-1.93c-.227-.064-.45-.098-.676-.098-1.997 0-3.575 1.158-4.316 3.058h-.064v-2.68h-1.928v17.107m-7.093-2.772c0 2.28.998 2.983 3.604 2.983.643 0 1.127-.065 1.353-.19v-1.597c-.42.13-.805.193-1.192.193-1.255 0-1.835-.452-1.835-1.81V115.11h3.028v-1.593h-3.028v-4.733h-1.93v4.733h-2.35v1.594h2.35v12.745m-14.893-9.26c0-3.505 1.672-5.453 5.28-5.453 3.54 0 4.825 1.817 4.825 4.52v10.16c0 .97.323 1.423 1 1.423h.547v1.404c-.354.124-.645.19-.902.19-1.512 0-2.477-.352-2.477-2.113v-.605h-.064c-.77 2.246-2.51 2.883-4.41 2.883-2.994 0-4.343-1.852-4.343-4.82 0-2.264 1.027-4.07 3.44-4.748l3.64-1.035c1.353-.386 1.643-.71 1.643-2.707 0-2.186-1.224-2.958-2.963-2.958-2.287 0-3.284 1.382-3.284 3.858h-1.93m8.177 2.356h-.065c-.192.58-1.288.937-2.06 1.132l-1.61.42c-1.934.516-2.932 1.518-2.932 3.55 0 2.003 1.03 3.36 2.704 3.36 2.354 0 3.963-1.776 3.963-4.828v-3.633m-10.994 4.013c-.29 3.645-2.283 6.04-5.524 6.04-3.594 0-5.712-2.493-5.712-8.94 0-5.936 2.12-8.92 5.874-8.92 3.787 0 5.488 2.596 5.488 8.312v.7h-9.31v.81c0 4.93 1.743 6.447 3.645 6.447 2.03 0 3.288-1.45 3.61-4.45h1.93m-1.93-4.4c-.065-4.273-1.25-5.827-3.61-5.827-2.387 0-3.58 1.554-3.645 5.827h7.255m-22.894 10.065h1.93V119.12c0-2.644 1.505-4.385 3.75-4.385 1.955 0 2.916 1.16 2.916 3.513v12.38h1.928V117.7c0-3.22-1.768-4.56-4.366-4.56-2.02 0-3.686 1.02-4.166 2.755h-.064v-8.247h-1.93v22.98m-10.062 0h2.055v-21.26h5.926v-1.72H32.376v1.72H38.3v21.26m42.492-39.054c3.77 0 5.893 2.98 5.893 8.916 0 5.97-2.12 8.947-5.893 8.947s-5.89-2.98-5.89-8.947c0-5.934 2.118-8.916 5.89-8.916m0 16.27c2.16 0 3.837-1.87 3.837-7.354 0-5.45-1.678-7.322-3.838-7.322s-3.836 1.87-3.836 7.322c0 5.485 1.675 7.354 3.836 7.354m-12.65 1.217h2.054V87.803h5.926v-1.72H62.216v1.72h5.926v21.26m14.27-34.28c1.705.68 2.317 1.646 2.317 3.16 0 1.904-1.32 3.064-3.38 3.064-2.19 0-3.287-1.29-3.287-3.807v-.45h-1.93v.548c0 3.87 1.736 5.302 5.248 5.302 3.607 0 5.278-2.142 5.278-5.077 0-1.87-.867-3.484-3.185-4.354l-2.806-1.064c-1.926-.744-2.312-1.678-2.312-2.87 0-1.71.867-2.904 3.117-2.904 1.768 0 2.795.936 2.795 3.162v.484h1.93v-.484c0-3.13-1.48-4.755-4.692-4.755-2.892 0-5.08 1.4-5.08 4.915 0 1.708.87 3.13 3.28 4.066l2.706 1.063m-12.527 0c1.707.678 2.32 1.645 2.32 3.16 0 1.903-1.32 3.063-3.384 3.063-2.19 0-3.285-1.29-3.285-3.807v-.45h-1.93v.548c0 3.87 1.736 5.302 5.248 5.302 3.605 0 5.28-2.142 5.28-5.077 0-1.87-.87-3.484-3.19-4.354l-2.803-1.064c-1.93-.744-2.313-1.678-2.313-2.87 0-1.71.867-2.904 3.117-2.904 1.768 0 2.797.936 2.797 3.162v.484h1.93v-.484c0-3.13-1.48-4.755-4.693-4.755-2.892 0-5.08 1.4-5.08 4.915 0 1.708.87 3.13 3.28 4.066l2.706 1.063m-8.59 1.776c-.29 3.642-2.284 6.04-5.524 6.04-3.597 0-5.716-2.495-5.716-8.94 0-5.936 2.12-8.922 5.875-8.922 3.787 0 5.488 2.598 5.488 8.314v.7h-9.31v.81c0 4.933 1.74 6.445 3.644 6.445 2.03 0 3.29-1.45 3.61-4.448h1.93m-1.928-4.402c-.064-4.273-1.252-5.827-3.61-5.827-2.386 0-3.58 1.555-3.644 5.828h7.254m-13.4 4.393c-.322 3.005-1.576 4.457-3.538 4.457-1.8 0-3.634-.87-3.634-7.33 0-6.06 1.737-7.346 3.827-7.346 2.057 0 3.118 1.19 3.343 3.857h1.928c-.19-3.503-2.056-5.45-5.27-5.45-3.763 0-5.882 2.977-5.882 8.907 0 6.46 2.12 8.956 5.72 8.956 3.15 0 5.146-2.4 5.434-6.05h-1.928m-13.108 0c-.32 3.005-1.576 4.457-3.538 4.457-1.8 0-3.633-.87-3.633-7.33 0-6.06 1.736-7.346 3.827-7.346 2.057 0 3.118 1.19 3.343 3.857h1.93c-.194-3.503-2.06-5.45-5.273-5.45-3.763 0-5.882 2.977-5.882 8.907 0 6.46 2.12 8.956 5.72 8.956 3.15 0 5.145-2.4 5.434-6.05h-1.928m-19.53-17.305h2.58l6.798 22.98h-2.192l-1.87-6.71h-8.055l-1.87 6.71h-2.19l6.8-22.98m4.865 14.55l-3.545-12.958h-.064L11.04 73.795h7.152m77.494-31.538s-3.16 3.125-4.223 5.026c-1.062 1.9-3.724-.775-3.724-2.235-1.202-.515-1.72-1.46-3.006-1.846-.3.515 1.245 7.213 2.707 9.662.515 1.63 2.233 1.545 3.478 1.545 1.496 0 2.92-1.418 2.404-1.934.258-1.417.3-3.135 1.115-4.466.172-.343.645-.56.516-1.03-.213-1.63 1.718-3.35.733-4.723m-12.154-8.03c-.086.86-.343 1.976.087 2.877.084.042 2.488 2.447 3.822 3.177.213-.17.298-1.073.9-.6-.172-.473.516-1.16.128-1.847-.772-2.274-3.22-2.618-4.938-3.606m12.367-2.19c-1.548.945-3.564 1.29-4.467 3.006-.13 1.03-1.073 2.405 0 3.306.773.644.73-.945 1.46-.43 1.073-1.933 3.95-3.135 3.52-5.754l-.514-.13m10.604 25.165c-.615.392-1.03 2.577-.95 3.278l-.282.67-.768.588.025.53s-1.247 1.008-1.247 1.633l-1.63 1.545-1.355.12.023.395-.814.3-.44-.303-1.62.056-.432.462s-3.93-.91-5.15-.3l-.3-.516s-3.91.017-3.91-1.03c3.735-1.203 8.16-1.804 10.392-5.584 3.178-6.742 2.147-15.372 2.062-22.973-.602-3.78-.86-8.502-1.762-12.152-.473-.042-1.116.473-1.545.73-5.237 2.49-12.452 2.835-17.733.086-1.202-.687-1.547-2.19-2.878-2.662 5.582.602 12.41 3.607 17.95-.344v-.3c.728.3 1.286-.603 1.76-1.03-.632-.63.63-1.638 1.654-1.642 2.104-.008 4.752.962 6.374 2.584-.385.945 3.093 10.394 3.093 17.09l-.3.302c.043.172.17.13.3.13.217 2.79.49 11.212 0 13.096h-.13l-.386 5.24"/></g></svg>
