<svg xmlns="http://www.w3.org/2000/svg" width="100%" height="100%" viewBox="0 0 221.658 129.234"><path fill="#8A547D" d="M18.837 45.18c4.01-.21 6.25.988 6.25 3.593 0 4.48-6.562 5.94-9.166 5.94-5.466 0-6.924-3.126-6.924-4.638 0-1.98 1.25-3.177 4.062-4.584l5.78-.31m-1.875-8.39c3.228 0 4.27-2.344 4.27-5.26 0-3.49-1.458-8.806-5.52-8.806-2.343 0-4.27 1.824-4.27 5.627 0 2.97 1.875 8.44 5.52 8.44zm-9.047-4.788v7.577c.348-.233.77-.484 1.288-.757l2.812-1.46c-2.024-.95-3.553-2.886-4.1-5.36zm8.838-10.528c1.823 0 4.166.73 5.52 2.085l5.624-.21c.156 0 .417.21.417.47v1.562c0 .208-.365.47-.73.47-.363 0-1.56-.21-3.904-.835l-.103.104c1.093 1.303 1.406 3.126 1.406 4.742 0 4.793-4.062 8.492-8.8 8.492-1.302 0-2.24-.053-3.02-.366l-1.98 1.25c-1.093.678-1.405 1.147-1.405 1.772 0 .573.937 1.354 3.02 1.354 2.604 0 6.77-.365 8.28-.365 2.863 0 4.465.772 5.368 1.78h2.62c-.007-.004-.015.004-.022 0l-.208-5.793h1.98c.52 4.064 3.02 5.793 5.518 5.793 2.55 0 4.477-1.938 4.477-4.02 0-1.512-1.144-2.71-2.862-3.598l-4.842-2.447c-2.968-1.51-4.27-3.334-4.27-5.99 0-3.545 2.916-6.254 7.81-6.254 2.188 0 4.165.365 5.936.94l.313 5.157h-1.718c-.783-3.23-2.812-4.532-5-4.532-2.447 0-4.218 1.302-4.218 3.074 0 1.405.26 2.187 2.864 3.593l5.363 2.762c2.134 1.147 3.75 2.866 3.75 6.095 0 2.086-.897 3.97-2.712 5.22h8.294c-4.172-2.223-5.012-6.878-5.012-9.283 0-6.93 5-12.4 12.498-12.4 1.354 0 4.322.26 6.04.94v-6.253c0-5.417-.104-7.24-.675-8.126-.313-.47-.885-.742-3.072-.742H7.916v20.017c.897-4.046 4.477-6.46 8.838-6.46zm46.29 20.58c-.64.66-1.44 1.25-2.383 1.728h2.823c-.113-.63-.26-1.272-.438-1.73zm3.75-20.268V40.23c0 1.926.314 2.187 2.136 2.447l.91.12V7.917h-2.85c-.195 4.677-.195 8.038-.195 13.87zm-10.1 21.047c-3.856 0-8.126-3.908-8.126-10.106 0-5.314 3.438-9.378 8.177-9.378 6.353 0 6.614 4.792 6.614 9.95 0 2.917-.21 4.584-.367 6.93-.833 1.093-2.967 2.603-6.3 2.603z"/><path fill="#636467" d="M9.605 123.756l1.01-4.74c-.28.063-.547.11-.8.136s-.52.04-.808.04l.123-.6c.193 0 .388-.02.585-.065.196-.044.385-.11.567-.202.182-.09.347-.204.497-.34.148-.134.27-.29.364-.465h.58l-1.327 6.236h-.792zm3.018-1.46l.14-.74 3.695-4.036h.633l-.86 4.116h.826l-.132.66h-.827l-.317 1.46h-.748l.316-1.46h-2.725zm2.858-.66l.59-2.823h-.018l-2.578 2.823h2.007zm2.97-3.162c.103-.208.24-.383.413-.523s.375-.246.607-.32c.232-.073.474-.11.726-.11.23 0 .448.036.66.106.21.07.397.172.56.304.16.132.29.293.386.483s.145.41.145.655c0 .352-.103.654-.308.906-.207.252-.476.416-.81.492v.018c.305.13.527.326.668.59.14.264.21.557.21.88 0 .287-.056.548-.17.782s-.27.436-.462.603-.415.294-.664.382c-.25.088-.512.132-.787.132-.27 0-.53-.035-.78-.105-.248-.07-.466-.18-.654-.322-.187-.144-.336-.325-.447-.545-.112-.22-.167-.482-.167-.787 0-.476.135-.862.405-1.16.27-.3.634-.49 1.092-.573v-.018c-.223-.1-.408-.255-.554-.466s-.22-.44-.22-.688c-.003-.27.05-.51.152-.718zm2.09 4.393c.25-.223.377-.536.377-.94 0-.335-.1-.605-.3-.814-.198-.208-.483-.312-.852-.312-.41 0-.747.11-1.007.326s-.39.536-.39.96c0 .374.112.654.337.84s.515.276.867.276c.392 0 .715-.11.967-.335zm-1.15-2.942c.204.145.454.216.753.216.3 0 .542-.093.73-.28.188-.188.28-.432.28-.73 0-.316-.085-.554-.258-.712-.173-.158-.418-.238-.734-.238s-.574.095-.773.282-.3.44-.3.756c0 .328.1.563.304.707zm7.696-2.45l.836 5.4h.018l3.104-5.4h1.16l-1.328 6.28h-.8l1.284-5.496h-.018l-3.2 5.496h-.8l-.82-5.497h-.017l-1.1 5.496h-.8l1.32-6.28h1.16zm5.65 2.45c.12-.185.27-.338.445-.462.177-.123.376-.214.6-.272.222-.058.453-.087.694-.087.223 0 .434.018.633.053s.375.097.528.185c.152.09.274.208.365.357.09.15.137.34.137.567 0 .13-.017.27-.048.418-.034.15-.064.286-.094.41l-.29 1.24c-.018.093-.042.198-.075.315s-.047.23-.047.334.02.18.062.222.094.062.158.062c.035 0 .075-.008.12-.022l.118-.04-.114.555c-.06.023-.133.045-.224.066-.09.02-.168.03-.233.03-.207 0-.362-.056-.467-.167s-.146-.267-.123-.466l-.018-.018c-.16.21-.355.372-.59.483-.234.11-.544.167-.932.167-.193 0-.374-.02-.54-.065-.168-.045-.313-.118-.436-.22-.124-.104-.222-.235-.295-.397s-.11-.36-.11-.594c0-.334.07-.595.214-.783.144-.188.327-.33.55-.426.223-.098.47-.163.74-.198.27-.036.53-.065.782-.09.2-.017.37-.036.514-.057.144-.02.263-.054.356-.1s.163-.115.207-.203c.044-.09.066-.21.066-.36 0-.124-.03-.224-.09-.3s-.13-.137-.22-.18-.185-.075-.294-.093c-.108-.018-.212-.026-.312-.026-.14 0-.28.016-.418.045s-.262.077-.374.145c-.112.067-.206.153-.282.256s-.126.227-.15.373h-.747c.037-.252.114-.47.234-.655zm.212 3.118c.167.106.356.16.567.16.592 0 1.018-.2 1.275-.6.124-.17.207-.354.25-.554s.093-.406.146-.617h-.018c-.105.076-.24.13-.4.163-.16.032-.333.057-.514.074-.182.018-.365.04-.55.066-.185.026-.35.07-.497.127-.146.06-.267.143-.36.25s-.145.26-.15.454c0 .212.084.37.25.476zm5.15-3.835l-.95 4.548h-.738l.94-4.548h.75zm-.58-.817l.193-.914h.757l-.193.915h-.756zm2.366.818l-.14.687h.017c.19-.264.426-.462.714-.594.287-.13.59-.197.906-.197.428 0 .746.094.955.28.208.19.312.485.312.89 0 .1-.012.23-.035.387-.023.16-.056.326-.097.502l-.554 2.595h-.747l.58-2.656.027-.162.035-.193.03-.193s.014-.113.014-.154c0-.217-.077-.377-.23-.48-.153-.102-.34-.152-.563-.152-.206 0-.41.05-.61.15-.204.1-.375.225-.516.377-.134.117-.24.26-.316.427s-.138.342-.185.523l-.53 2.516h-.738l.95-4.55h.722zm9.996-.497c-.067-.166-.164-.3-.29-.403-.126-.103-.28-.175-.462-.216s-.38-.06-.598-.06c-.152 0-.314.02-.484.057s-.327.098-.47.18c-.144.083-.263.19-.356.317s-.14.287-.14.475c0 .15.025.282.078.39s.125.203.215.282.2.146.326.198c.125.053.258.1.4.14l.844.23c.193.053.38.12.563.198.182.08.343.182.483.308.14.126.254.286.34.48s.126.43.126.712c0 .328-.075.61-.224.85s-.342.433-.576.588c-.235.155-.497.27-.787.348-.292.076-.577.114-.86.114-.374 0-.72-.043-1.037-.127-.317-.084-.585-.215-.805-.39-.22-.177-.387-.404-.5-.683-.115-.278-.158-.61-.128-1h.836c-.012.283.02.52.097.714s.19.35.338.467c.15.117.33.2.542.25.21.05.443.076.695.076.194 0 .386-.023.576-.07.19-.048.36-.12.506-.216s.264-.222.355-.374c.09-.152.136-.334.136-.545 0-.16-.028-.295-.087-.41s-.14-.21-.242-.29c-.102-.08-.22-.145-.355-.197-.135-.052-.28-.1-.43-.14l-.854-.23c-.187-.053-.366-.12-.536-.206-.17-.085-.32-.19-.45-.316s-.23-.276-.307-.45c-.077-.172-.115-.376-.115-.61 0-.305.067-.57.203-.796.135-.226.31-.415.523-.567.214-.152.457-.267.73-.343.272-.076.55-.114.83-.114.312 0 .606.04.885.118.278.08.523.2.734.36.21.162.376.37.497.62.12.253.174.555.163.906h-.836c.008-.247-.023-.453-.09-.62zm3.92.498l-.142.66h-.906l-.563 2.674-.02.15s-.008.096-.008.148c0 .117.045.198.136.242s.195.066.312.066c.076 0 .15-.008.22-.022s.14-.033.21-.058l-.13.687c-.09.012-.177.022-.265.03s-.176.014-.264.014c-.14 0-.27-.012-.395-.03-.124-.022-.23-.06-.32-.116-.092-.056-.165-.13-.22-.224s-.084-.214-.084-.36c0-.065.005-.127.014-.186l.03-.193.6-2.822h-.767l.14-.66h.766l.28-1.346h.75l-.283 1.346h.91zm1.38 0l-.22.977h.018c.176-.31.4-.568.673-.774.274-.204.6-.307.982-.307.047 0 .09-.003.132-.01s.085-.002.132.01l-.176.8c-.023-.005-.062-.008-.114-.008H56.5c-.093 0-.17 0-.228.004s-.132.016-.22.04c-.205.052-.39.143-.55.27s-.3.285-.418.467c-.1.147-.18.318-.237.515-.06.197-.105.38-.14.55l-.432 2.015h-.74l.942-4.548h.703zm1.996 2.895c0 .176.032.333.097.47.064.14.152.253.264.344s.237.16.378.21c.14.05.287.076.44.076.333 0 .61-.075.826-.225.218-.15.38-.365.484-.646h.748c-.06.252-.153.474-.282.664s-.284.35-.466.475c-.182.127-.384.223-.607.287-.223.064-.457.097-.704.097-.375 0-.688-.057-.937-.172-.25-.114-.447-.26-.594-.44-.147-.178-.25-.374-.308-.588-.06-.215-.088-.42-.088-.62 0-.435.063-.832.19-1.192.125-.36.295-.67.51-.928.213-.258.462-.458.747-.6.284-.14.582-.21.893-.21.668 0 1.157.176 1.464.528.308.352.462.847.462 1.486 0 .117-.01.23-.026.334s-.032.19-.044.255H57.2c-.015.128-.024.26-.024.396zm2.74-1.527c-.032-.155-.09-.293-.176-.413-.085-.12-.198-.218-.34-.29s-.313-.11-.518-.11c-.217 0-.412.033-.585.1s-.324.16-.453.278-.237.255-.325.41-.16.32-.212.497h2.64c.01-.158 0-.316-.032-.47zm1.834 1.527c0 .176.032.333.097.47.064.14.152.253.264.344s.238.16.38.21c.14.05.286.076.438.076.334 0 .61-.075.827-.225.217-.15.378-.365.483-.646h.748c-.06.252-.153.474-.282.664s-.284.35-.466.475c-.182.127-.384.223-.607.287-.222.064-.456.097-.703.097-.375 0-.688-.057-.937-.172-.25-.114-.447-.26-.594-.44-.147-.178-.25-.374-.308-.588-.06-.215-.088-.42-.088-.62 0-.435.063-.832.19-1.192.125-.36.295-.67.51-.928.213-.258.462-.458.747-.6.284-.14.582-.21.893-.21.668 0 1.157.176 1.464.528.308.352.462.847.462 1.486 0 .117-.01.23-.026.334s-.032.19-.044.255h-3.422c-.015.128-.024.26-.024.396zm2.74-1.527c-.032-.155-.09-.293-.176-.413-.085-.12-.198-.218-.34-.29s-.313-.11-.518-.11c-.217 0-.412.033-.585.1s-.323.16-.452.278-.237.255-.325.41-.158.32-.21.497h2.638c.013-.158.002-.316-.03-.47zm3.848-1.368l-.14.66h-.907l-.562 2.674-.018.15s-.01.096-.01.148c0 .117.046.198.137.242s.195.066.312.066c.075 0 .148-.008.22-.022s.14-.033.21-.058l-.132.687c-.088.012-.176.022-.264.03s-.176.014-.264.014c-.14 0-.272-.012-.396-.03-.124-.022-.23-.06-.32-.116-.092-.056-.165-.13-.22-.224s-.084-.214-.084-.36c0-.065.004-.127.013-.186l.03-.193.6-2.822h-.767l.14-.66h.766l.28-1.346h.75l-.283 1.346h.908zm1.09 3.57c-.058.24-.11.49-.153.75s-.11.493-.202.707c-.09.214-.22.396-.387.545s-.403.236-.708.26l.088-.422c.117-.018.212-.055.286-.11s.133-.123.18-.202c.048-.08.086-.166.115-.26s.06-.19.088-.29h-.493l.21-.977h.977zm7.328-5.302c.616 0 1.062.132 1.337.396.275.264.413.634.413 1.108 0 .176-.028.348-.083.515s-.135.32-.237.457c-.103.14-.228.256-.374.353s-.314.16-.5.188v.018c.287.084.515.237.685.463.17.226.255.506.255.84 0 .3-.057.57-.17.81-.116.24-.274.444-.476.61-.203.168-.438.297-.708.388-.27.093-.56.138-.87.138H72.92l1.31-6.28h2.524zm-.862 5.576c.105 0 .243-.01.414-.03.17-.02.337-.073.5-.158.166-.085.308-.21.428-.374s.18-.39.18-.678c0-.2-.035-.36-.105-.483s-.165-.218-.285-.282-.258-.108-.414-.132-.317-.035-.487-.035H74.33l-.458 2.173h2.022zm.44-2.876c.89 0 1.337-.398 1.337-1.196 0-.188-.04-.334-.118-.44s-.18-.184-.304-.236-.256-.087-.4-.102c-.144-.015-.28-.022-.41-.022h-1.547l-.42 1.997h1.864zm5.287 3.58l.142-.687h-.018c-.188.264-.425.46-.712.59-.288.128-.59.192-.906.192-.428 0-.746-.092-.954-.277-.208-.185-.312-.48-.312-.884 0-.1.012-.228.035-.386s.056-.325.097-.502l.554-2.595h.748l-.58 2.656c-.013.042-.025.095-.036.16l-.036.196s-.02.13-.026.192-.01.113-.01.154c0 .217.077.377.23.48.152.102.34.153.563.153.21 0 .405-.042.584-.125.18-.082.338-.19.48-.33.14-.137.26-.295.355-.475.096-.18.165-.36.206-.55l.528-2.516h.746l-.958 4.548h-.72zm3.492-4.548l-.95 4.548h-.74l.942-4.548h.748zm-.58-.817l.193-.914h.756l-.192.915h-.756zm2.753-.914l-1.32 6.28h-.738l1.31-6.28h.748zm3.078 6.28l.16-.65h-.02c-.222.293-.452.49-.69.593-.237.102-.51.153-.813.153-.287 0-.542-.046-.765-.137-.223-.09-.41-.217-.563-.378s-.267-.356-.343-.585-.115-.48-.115-.756c0-.347.057-.69.172-1.034.114-.343.278-.652.492-.928.213-.275.477-.5.79-.673.314-.173.67-.26 1.07-.26.14 0 .284.014.43.04s.286.07.418.132.248.144.347.246.173.23.22.383h.018l.484-2.428h.74l-1.33 6.28h-.704zm-2.124-.88c.184.218.48.326.892.326.282 0 .534-.073.757-.22.222-.147.408-.332.558-.555.15-.223.264-.468.343-.734s.12-.518.12-.752c0-.34-.098-.62-.294-.844-.197-.223-.48-.334-.85-.334-.298 0-.56.068-.782.206-.223.14-.41.315-.563.532-.15.218-.266.458-.342.722-.077.264-.115.52-.115.774 0 .37.092.663.276.88zm5.545-3.668l-.95 4.548h-.74l.942-4.548h.748zm-.58-.817l.193-.914h.756l-.193.915h-.755zm2.365.818l-.14.687h.017c.188-.264.425-.462.713-.594.287-.13.59-.197.906-.197.428 0 .746.094.955.28.21.19.313.485.313.89 0 .1-.012.23-.035.387-.023.16-.056.326-.097.502l-.553 2.595H96.9l.58-2.656c.006-.046.015-.1.026-.162l.035-.193.032-.193s.013-.113.013-.154c0-.217-.076-.377-.23-.48-.152-.102-.34-.152-.562-.152-.206 0-.41.05-.61.15-.204.1-.375.225-.516.377-.135.117-.24.26-.317.427s-.138.342-.185.523l-.528 2.516h-.74l.95-4.55h.723zm6.967 4.562c-.06.214-.12.4-.185.558-.193.458-.463.783-.81.977-.345.193-.765.29-1.257.29-.235 0-.46-.026-.673-.08-.214-.052-.403-.134-.567-.245-.165-.11-.298-.257-.4-.436s-.157-.395-.163-.646h.74c.01.152.05.277.118.374s.152.173.255.23c.102.055.22.093.356.113s.274.03.415.03c.287 0 .523-.052.708-.157s.335-.243.453-.414c.117-.17.21-.364.277-.584.067-.22.13-.44.19-.665l-.02-.018c-.163.247-.368.423-.615.528-.246.105-.513.158-.8.158-.28 0-.53-.045-.743-.137-.214-.09-.392-.22-.532-.387s-.248-.366-.32-.595c-.074-.23-.11-.48-.11-.757 0-.334.053-.668.162-1.002.108-.335.264-.635.466-.902.204-.267.45-.483.745-.65.293-.167.625-.25.994-.25.17 0 .332.02.487.065s.3.104.43.184c.133.08.244.176.335.29s.154.242.19.383v.018h.017l.14-.836h.704l-.818 3.887c-.055.234-.11.458-.17.673zm-2.868-1.395c.046.146.115.275.206.387s.207.2.348.27c.14.066.305.1.492.1.282 0 .526-.07.735-.21.21-.142.38-.32.515-.537.135-.217.236-.453.304-.708s.1-.497.1-.726c0-.356-.095-.645-.286-.86-.19-.218-.482-.326-.875-.326-.265 0-.497.073-.696.22s-.367.327-.5.54-.238.446-.31.695c-.07.25-.104.478-.104.69 0 .163.022.32.07.465zm10.52-4.9l1.134 6.28h-.862l-.29-1.89h-2.647l-1.1 1.89h-.924l3.774-6.28h.915zm-.124 3.686l-.466-2.946h-.018l-1.68 2.947h2.164zm2.947 1.62c-.06.24-.11.49-.154.747s-.112.494-.203.708c-.09.214-.22.396-.387.545s-.403.236-.708.26l.088-.422c.117-.018.212-.055.286-.11s.133-.123.18-.202c.048-.08.086-.166.115-.26s.06-.19.09-.29h-.494l.21-.977h.977zm5.672-5.304l2.243 5.198h.018l1.047-5.198h.81l-1.33 6.28h-.896l-2.226-5.163h-.017l-1.064 5.163h-.81l1.328-6.28h.897zm4.235 3.413c.114-.348.28-.652.5-.916.22-.264.488-.475.802-.634.313-.158.67-.237 1.068-.237.616 0 1.085.16 1.408.48.322.318.483.786.483 1.402 0 .37-.055.727-.166 1.073-.11.346-.275.652-.493.92-.216.266-.48.478-.79.637s-.667.237-1.065.237c-.3 0-.567-.047-.805-.14s-.438-.226-.603-.393-.29-.367-.378-.6c-.09-.23-.133-.484-.133-.76.002-.368.06-.726.173-1.07zm.893 1.968c.21.23.522.344.933.344.275 0 .517-.07.726-.212.208-.14.384-.317.528-.532.144-.214.252-.446.325-.7.073-.25.11-.488.11-.71 0-.177-.023-.344-.07-.503-.047-.158-.12-.294-.22-.408-.1-.115-.225-.206-.374-.273s-.326-.1-.53-.1c-.288 0-.54.07-.757.21s-.4.318-.545.532-.256.45-.33.708c-.074.258-.11.504-.11.74-.002.374.104.676.315.904zm5.295-3.65l-.22.977h.018c.176-.31.4-.568.673-.774.272-.204.6-.307.98-.307.047 0 .09-.003.132-.01s.085-.002.132.01l-.176.8c-.023-.005-.062-.008-.114-.008h-.105c-.095 0-.17 0-.23.004s-.132.016-.22.04c-.205.052-.39.143-.55.27s-.3.285-.418.467c-.1.147-.18.318-.237.515-.06.197-.105.38-.14.55l-.432 2.015h-.74l.942-4.548h.703zm4.01 0l-.14.66h-.906l-.563 2.674-.02.15s-.008.096-.008.148c0 .117.045.198.136.242s.195.066.312.066c.076 0 .15-.008.22-.022s.14-.033.21-.058l-.13.687c-.09.012-.177.022-.265.03s-.176.014-.264.014c-.14 0-.27-.012-.395-.03-.124-.022-.23-.06-.32-.116-.092-.056-.165-.13-.22-.224s-.084-.214-.084-.36c0-.065.005-.127.014-.186l.03-.193.6-2.822h-.767l.14-.66h.766l.28-1.346h.75l-.283 1.346h.91zm1.804-1.732l-.537 2.4.018.02c.188-.265.425-.463.713-.595.287-.13.59-.197.906-.197.428 0 .746.094.955.28.208.19.312.485.312.89 0 .1-.013.23-.036.387-.023.16-.056.326-.097.502l-.554 2.595h-.748l.58-2.656.027-.162.035-.193.03-.193s.014-.113.014-.154c0-.217-.075-.377-.228-.48-.153-.102-.34-.152-.563-.152-.207 0-.41.05-.612.15-.203.1-.374.225-.515.377-.135.117-.24.26-.317.427s-.138.342-.185.523l-.527 2.516h-.74l1.32-6.28h.75zm9.328 0l1.135 6.28h-.862l-.29-1.892h-2.647l-1.1 1.892h-.924l3.773-6.28h.915zm-.124 3.685l-.466-2.946h-.018l-1.68 2.947h2.164zm3.264-1.952l-.14.687h.017c.188-.264.425-.462.713-.594.287-.13.59-.197.906-.197.428 0 .746.094.955.28.21.19.313.485.313.89 0 .1-.012.23-.035.387-.023.16-.056.326-.097.502l-.553 2.595h-.748l.58-2.656c.006-.046.015-.1.026-.162l.035-.193.032-.193s.013-.113.013-.154c0-.217-.076-.377-.23-.48-.152-.102-.34-.152-.562-.152-.206 0-.41.05-.61.15-.204.1-.375.225-.516.377-.135.117-.24.26-.317.427s-.138.342-.185.523l-.528 2.516h-.74l.95-4.55h.723zm6.394 4.548l.16-.65h-.02c-.222.293-.452.49-.69.593-.237.102-.51.153-.813.153-.286 0-.54-.046-.764-.137-.223-.09-.41-.217-.563-.378s-.267-.356-.343-.585-.114-.48-.114-.756c0-.347.057-.69.172-1.034.114-.343.278-.652.492-.928.214-.275.478-.5.792-.673.313-.173.67-.26 1.068-.26.14 0 .285.014.43.04s.287.07.42.132.247.144.346.246.173.23.22.383h.018l.484-2.428h.74l-1.33 6.28h-.704zm-2.124-.88c.185.218.482.326.893.326.282 0 .534-.073.757-.22.223-.147.41-.332.56-.555.148-.223.263-.468.342-.734s.12-.518.12-.752c0-.34-.1-.62-.295-.844-.197-.223-.48-.334-.85-.334-.298 0-.56.068-.782.206-.223.14-.41.315-.563.532-.152.218-.267.458-.343.722-.078.264-.116.52-.116.774 0 .37.092.663.276.88zm4.214-1.987c.114-.348.28-.652.5-.916.22-.264.487-.475.8-.634.314-.158.67-.237 1.07-.237.615 0 1.084.16 1.407.48.323.318.484.786.484 1.402 0 .37-.056.727-.167 1.073-.11.346-.275.652-.493.92-.217.266-.48.478-.792.637s-.666.237-1.064.237c-.3 0-.567-.047-.805-.14s-.438-.226-.603-.393-.29-.367-.378-.6c-.088-.23-.132-.484-.132-.76.002-.368.06-.726.174-1.07zm.892 1.968c.21.23.522.344.933.344.274 0 .516-.07.725-.212.208-.14.384-.317.528-.532.144-.214.252-.446.325-.7.073-.25.11-.488.11-.71 0-.177-.023-.344-.07-.503-.047-.158-.12-.294-.22-.408-.1-.115-.225-.206-.374-.273s-.327-.1-.532-.1c-.287 0-.54.07-.756.21s-.4.318-.545.532-.255.45-.33.708c-.073.258-.11.504-.11.74 0 .374.105.676.316.904zm4.706.898l-.65-4.548h.79l.388 3.782h.018l1.97-3.782h.81l-2.525 4.548h-.8zm3.896-1.653c0 .176.032.333.097.47.064.14.152.253.264.344s.236.16.377.21c.14.05.287.076.44.076.333 0 .61-.075.826-.225.217-.15.378-.365.483-.646h.748c-.06.252-.153.474-.282.664s-.284.35-.466.475c-.182.127-.384.223-.607.287-.224.064-.458.097-.705.097-.375 0-.688-.057-.937-.172-.25-.114-.447-.26-.594-.44-.147-.178-.25-.374-.308-.588-.06-.215-.088-.42-.088-.62 0-.435.063-.832.19-1.192.125-.36.295-.67.51-.928.213-.258.462-.458.747-.6.284-.14.582-.21.893-.21.668 0 1.157.176 1.464.528.308.352.462.847.462 1.486 0 .117-.01.23-.026.334s-.032.19-.044.255h-3.422c-.016.128-.024.26-.024.396zm2.74-1.527c-.032-.155-.09-.293-.176-.413-.085-.12-.198-.218-.34-.29s-.313-.11-.518-.11c-.217 0-.412.033-.585.1s-.325.16-.454.278-.237.255-.325.41-.157.32-.21.497h2.64c.01-.158 0-.316-.032-.47zm2.608-1.368l-.22.977h.018c.176-.31.4-.568.673-.774.273-.204.6-.307.98-.307.048 0 .092-.003.133-.01s.085-.002.132.01l-.176.8c-.023-.005-.062-.008-.114-.008h-.105c-.094 0-.17 0-.23.004s-.13.016-.22.04c-.204.052-.388.143-.55.27s-.3.285-.417.467c-.1.147-.18.318-.237.515-.06.197-.105.38-.14.55l-.432 2.015h-.738l.94-4.548h.704zm6.105-1.732l.837 5.4h.018l3.105-5.4h1.16l-1.328 6.28h-.8l1.284-5.497h-.018l-3.202 5.496h-.8l-.818-5.497h-.018l-1.1 5.496h-.8l1.32-6.28h1.16zm9.166 0l1.135 6.28h-.86l-.29-1.892h-2.648l-1.1 1.892h-.924l3.773-6.28h.916zm-.123 3.685l-.466-2.946h-.018l-1.68 2.947h2.163zm4.335-.496c.044-.284.113-.57.207-.862.094-.29.214-.573.36-.85s.32-.518.52-.73c.198-.21.43-.38.694-.51.263-.128.556-.192.88-.192.544 0 .96.185 1.248.554.287.37.43.97.43 1.804 0 .193-.02.425-.057.694-.037.27-.097.553-.18.85-.08.296-.19.59-.33.88-.137.29-.306.55-.505.777-.2.228-.43.414-.695.558-.264.144-.57.216-.915.216-.33 0-.603-.062-.822-.185-.22-.124-.397-.294-.532-.51-.134-.22-.23-.474-.285-.767s-.083-.61-.083-.95c0-.235.022-.495.066-.78zm.954 2.094c.152.296.414.444.783.444.23 0 .434-.064.616-.194.183-.13.34-.293.476-.492s.248-.42.34-.664c.09-.243.163-.48.22-.713.055-.232.096-.443.122-.634s.04-.33.04-.418c0-.117 0-.245.004-.383s0-.277-.01-.418-.028-.278-.06-.413-.084-.254-.155-.356-.164-.185-.282-.246c-.117-.062-.267-.093-.448-.093-.223 0-.425.062-.607.188s-.342.29-.48.493c-.137.203-.256.43-.355.683-.1.252-.182.504-.246.756s-.112.49-.142.712c-.03.223-.044.407-.044.554 0 .498.076.896.228 1.192zm5.18.998l1.012-4.74c-.28.063-.548.11-.8.136s-.522.04-.81.04l.124-.6c.193 0 .388-.02.585-.065.196-.044.385-.11.567-.202.182-.09.347-.204.497-.34.15-.134.27-.29.365-.465h.58l-1.328 6.236h-.79zm4.113-5.282c.103-.208.24-.383.413-.523s.375-.246.607-.32c.232-.073.474-.11.726-.11.23 0 .45.036.66.106.212.07.398.172.56.304.16.132.29.293.387.483s.145.41.145.655c0 .352-.103.654-.308.906-.206.252-.475.416-.81.492v.018c.306.13.528.326.67.59.14.264.21.557.21.88 0 .287-.057.548-.17.782s-.27.436-.463.603-.414.294-.663.382c-.25.088-.512.132-.787.132-.27 0-.53-.035-.78-.105-.248-.07-.466-.18-.654-.322-.188-.144-.337-.325-.448-.545-.112-.22-.167-.482-.167-.787 0-.476.136-.862.406-1.16.27-.3.633-.49 1.09-.573v-.018c-.222-.1-.407-.255-.553-.466s-.22-.44-.22-.688c-.002-.27.05-.51.152-.718zm2.09 4.393c.25-.223.377-.536.377-.94 0-.335-.1-.605-.3-.814-.198-.208-.483-.312-.852-.312-.41 0-.747.11-1.007.326s-.39.536-.39.96c0 .374.112.654.337.84s.515.276.867.276c.392 0 .715-.11.967-.335zm-1.15-2.942c.204.145.454.216.753.216.3 0 .542-.093.73-.28.188-.188.28-.432.28-.73 0-.316-.085-.554-.258-.712-.173-.158-.418-.238-.734-.238-.317 0-.575.095-.774.282s-.3.44-.3.756c0 .328.102.563.304.707zm2.697 2.37l.14-.738 3.695-4.037h.633l-.862 4.116h.827l-.132.66h-.827l-.317 1.46h-.75l.317-1.46h-2.725zm2.86-.66l.588-2.822h-.018l-2.578 2.823h2.007zm3.808-3.35l-.493 1.688.018.018c.152-.116.326-.203.52-.26.193-.055.386-.082.58-.082.282 0 .53.048.748.145.217.097.4.23.55.396.15.166.263.365.34.597s.113.48.113.743c0 .334-.056.652-.167.954-.113.303-.292.564-.538.788-.247.21-.5.36-.765.448-.264.088-.557.132-.88.132-.57 0-1.023-.152-1.363-.457-.34-.305-.51-.742-.51-1.31h.792c0 .743.375 1.116 1.126 1.116.247 0 .463-.042.65-.127.19-.085.346-.202.472-.352s.223-.323.29-.522c.068-.2.102-.41.102-.634 0-.404-.105-.715-.317-.933-.212-.216-.52-.324-.924-.324-.223 0-.437.055-.642.163-.206.107-.36.256-.466.443h-.668l.967-3.29h3.158l-.132.66h-2.563zM95.885 66.795c.217.166.475.248.774.248.457 0 .8-.198 1.028-.594.23-.397.355-1.003.378-1.818l-.018-.018c-.14.264-.34.474-.598.63-.258.154-.54.23-.844.23-.317 0-.598-.05-.845-.153-.245-.1-.452-.243-.62-.425-.166-.182-.292-.402-.377-.66-.085-.258-.128-.54-.128-.845 0-.3.05-.573.15-.822.1-.25.24-.463.422-.642.182-.18.4-.318.65-.418.253-.1.53-.15.828-.15.293 0 .57.046.827.137.258.09.484.248.677.47.193.224.347.527.46.91.115.385.172.874.172 1.466 0 1.08-.17 1.908-.515 2.486-.343.577-.893.866-1.65.866-.52 0-.955-.132-1.3-.396-.347-.264-.543-.666-.59-1.205h.748c.03.307.153.542.37.706zM97.85 62.9c-.055-.17-.137-.322-.246-.454-.108-.132-.242-.236-.4-.312-.16-.076-.343-.114-.554-.114-.223 0-.412.04-.567.123s-.282.192-.378.33-.167.294-.21.47c-.045.176-.067.36-.067.554 0 .17.03.334.092.493s.146.3.255.422.238.22.387.294c.15.074.315.11.497.11.192 0 .368-.036.527-.11.158-.073.293-.173.404-.3s.198-.272.256-.44.088-.34.088-.522c0-.193-.027-.374-.083-.545zm4.966.316c-.276.428-.52.885-.734 1.372-.214.487-.39.988-.523 1.504-.136.516-.218 1.018-.248 1.504h-.835c.035-.527.122-1.042.26-1.544.137-.5.314-.982.53-1.442.218-.46.47-.896.753-1.306.284-.41.59-.79.92-1.135h-3.273v-.705h4.037v.642c-.316.312-.612.68-.888 1.11zm2.023-.945c.1-.195.233-.36.404-.496.17-.135.365-.237.585-.308.22-.07.45-.105.69-.105.34 0 .63.046.87.137.24.09.436.21.585.36.15.15.26.32.33.51.07.192.105.387.105.586 0 .282-.078.538-.233.77-.156.23-.365.406-.63.523.376.117.655.31.836.576.182.267.272.594.272.98 0 .306-.054.575-.163.81s-.255.433-.44.594c-.185.16-.403.283-.655.365-.252.083-.522.124-.81.124-.298 0-.577-.038-.834-.114-.258-.076-.482-.193-.673-.352-.19-.158-.34-.356-.45-.594-.108-.237-.162-.515-.162-.83 0-.37.094-.692.28-.965.19-.273.46-.47.81-.594-.264-.106-.475-.277-.633-.515-.158-.237-.237-.496-.237-.778.002-.258.052-.485.15-.68zm.795 4.452c.25.214.567.32.955.32.188 0 .36-.03.515-.092s.29-.146.405-.255c.114-.108.202-.236.264-.383s.092-.308.092-.483c0-.172-.034-.328-.1-.473-.068-.143-.16-.268-.278-.373-.118-.105-.254-.19-.41-.25-.155-.063-.32-.093-.496-.093-.182 0-.354.03-.515.084-.16.056-.302.137-.422.242-.12.105-.214.23-.28.378-.068.147-.102.312-.102.493 0 .376.123.67.372.885zm-.066-3.3c.058.127.137.23.237.313.1.082.217.144.352.185s.278.062.43.062c.3 0 .545-.088.74-.264.193-.176.29-.422.29-.74 0-.315-.1-.554-.295-.716-.196-.16-.447-.242-.752-.242-.146 0-.288.02-.422.062s-.25.103-.346.185c-.097.083-.175.182-.233.3s-.087.254-.087.412c-.002.17.028.317.086.443zm9.2-1.147c-.182-.17-.422-.255-.72-.255-.317 0-.572.078-.766.233-.193.156-.345.352-.453.59-.107.237-.182.493-.223.77-.04.275-.064.533-.07.773l.018.018c.176-.287.394-.496.655-.625.26-.13.562-.195.9-.195.3 0 .568.052.806.154.237.102.437.244.598.425.16.182.286.396.374.642.088.247.132.513.132.8 0 .23-.035.467-.105.713s-.186.47-.347.673c-.162.202-.375.37-.642.5-.267.134-.597.2-.99.2-.462 0-.834-.095-1.116-.282-.28-.187-.5-.427-.65-.72-.153-.294-.254-.616-.304-.97-.05-.35-.075-.69-.075-1.02 0-.427.037-.842.11-1.244.074-.4.2-.758.375-1.07.176-.31.41-.56.704-.747.292-.19.662-.282 1.107-.282.516 0 .927.136 1.23.41.306.272.482.666.53 1.182h-.75c-.037-.28-.145-.505-.327-.675zm-1.354 2.08c-.158.073-.293.173-.404.3-.112.125-.195.275-.25.448-.057.172-.084.356-.084.55 0 .193.03.375.088.545s.142.316.25.44c.11.122.244.22.405.294s.346.11.55.11c.205 0 .386-.037.54-.11s.287-.175.393-.304c.105-.13.186-.277.242-.444s.083-.34.083-.523c0-.19-.025-.375-.075-.548-.05-.173-.127-.322-.233-.45-.106-.125-.238-.226-.396-.302s-.343-.114-.554-.114c-.21 0-.396.036-.554.11zm3.65-2.084c.1-.195.233-.36.404-.496.17-.135.365-.237.585-.308.22-.07.45-.105.69-.105.34 0 .63.046.87.137.242.09.437.21.586.36.15.15.26.32.33.51.07.192.106.387.106.586 0 .282-.078.538-.233.77-.156.23-.365.406-.63.523.376.117.655.31.836.576.18.267.27.594.27.98 0 .306-.053.575-.162.81s-.255.433-.44.594c-.185.16-.403.283-.655.365-.252.083-.522.124-.81.124-.298 0-.577-.038-.834-.114-.26-.076-.483-.193-.674-.352-.19-.158-.34-.356-.45-.594-.108-.237-.162-.515-.162-.83 0-.37.094-.692.28-.965.19-.273.46-.47.81-.594-.264-.106-.475-.277-.633-.515-.157-.237-.236-.496-.236-.778.002-.258.052-.485.15-.68zm.795 4.452c.25.214.568.32.956.32.188 0 .36-.03.515-.092s.29-.146.406-.255c.114-.108.202-.236.264-.383s.092-.308.092-.483c0-.172-.034-.328-.1-.473-.068-.143-.16-.268-.278-.373-.118-.105-.254-.19-.41-.25-.155-.063-.32-.093-.496-.093-.182 0-.354.03-.515.084-.16.056-.302.137-.422.242-.12.105-.213.23-.28.378-.067.147-.1.312-.1.493-.002.376.122.67.37.885zm-.065-3.3c.06.127.138.23.238.313.1.082.217.144.352.185s.28.062.43.062c.3 0 .546-.088.74-.264.194-.176.29-.422.29-.74 0-.315-.098-.554-.294-.716-.195-.16-.446-.242-.75-.242-.147 0-.29.02-.423.062s-.25.103-.347.185c-.097.083-.175.182-.233.3s-.088.254-.088.412c-.002.17.027.317.085.443zm4.16-1.15c.1-.197.235-.363.406-.498.17-.135.366-.237.586-.308.22-.07.45-.105.69-.105.34 0 .63.046.87.137.242.09.437.21.586.36.15.15.26.32.33.51.07.192.105.387.105.586 0 .282-.078.538-.233.77-.156.23-.365.406-.63.523.376.117.655.31.836.576.182.267.272.594.272.98 0 .306-.054.575-.163.81s-.256.433-.44.594c-.186.16-.404.283-.656.365-.252.083-.522.124-.81.124-.298 0-.577-.038-.834-.114-.258-.076-.482-.193-.673-.352-.19-.158-.34-.356-.45-.594-.108-.237-.162-.515-.162-.83 0-.37.094-.692.28-.965.19-.273.46-.47.81-.594-.264-.106-.475-.277-.633-.515-.158-.237-.237-.496-.237-.778.002-.258.05-.485.15-.68zm.797 4.45c.25.214.567.32.955.32.188 0 .36-.03.515-.092s.29-.146.405-.255c.114-.108.202-.236.264-.383s.093-.308.093-.483c0-.172-.034-.328-.1-.473-.068-.143-.16-.268-.278-.373-.118-.105-.254-.19-.41-.25-.155-.063-.32-.093-.496-.093-.183 0-.355.03-.516.084-.16.056-.302.137-.422.242-.12.105-.214.23-.28.378-.068.147-.102.312-.102.493-.002.376.123.67.372.885zm-.066-3.3c.06.127.138.23.238.313.1.082.217.144.352.185s.28.062.43.062c.3 0 .546-.088.74-.264.194-.176.29-.422.29-.74 0-.315-.098-.554-.294-.716-.196-.16-.447-.242-.752-.242-.146 0-.288.02-.422.062s-.25.103-.347.185c-.096.083-.174.182-.232.3s-.088.254-.088.412c-.002.17.027.317.086.443zm7.503-1.297l-.335 1.794.018.017c.135-.152.31-.265.523-.34.214-.072.427-.11.638-.11.275 0 .537.045.783.133.247.088.46.22.642.4.18.18.325.402.43.668.105.267.158.58.158.937 0 .265-.045.52-.136.77-.09.25-.227.47-.41.665-.18.193-.408.347-.68.46-.273.116-.592.173-.955.173-.27 0-.523-.04-.76-.12-.24-.078-.448-.192-.63-.342-.182-.148-.325-.334-.43-.558-.106-.223-.163-.475-.168-.756h.747c.012.158.05.306.12.443.066.138.157.258.27.36.116.103.25.182.406.237s.327.084.515.084c.176 0 .344-.03.506-.092.16-.062.302-.154.422-.277s.216-.275.286-.46c.07-.186.105-.4.105-.647 0-.205-.034-.395-.1-.567-.068-.173-.164-.323-.287-.45-.123-.125-.27-.223-.444-.293-.173-.07-.365-.106-.576-.106-.247 0-.465.055-.655.163-.19.108-.36.25-.506.426l-.643-.035.58-3.236h3.08v.66h-2.518zm7.8 3.352v.66h-.843v1.46h-.704v-1.46h-2.736v-.722l2.84-4.055h.6v4.116h.844zm-1.547-3.052h-.018l-2.076 3.052h2.093v-3.052zm2.393.263c.082-.27.21-.503.382-.7.173-.195.39-.35.646-.46.258-.112.55-.168.88-.168.27 0 .523.04.76.12.24.078.445.192.62.342.177.15.316.335.42.558.102.223.153.48.153.774 0 .275-.042.52-.127.73s-.198.4-.34.567c-.14.168-.3.32-.482.454-.182.135-.37.264-.563.387-.194.12-.387.234-.58.35-.195.113-.372.235-.533.364-.162.13-.3.268-.414.418-.114.15-.19.32-.224.514h3.202v.66h-4.073c.03-.37.095-.685.198-.945.104-.26.234-.487.392-.68.16-.194.337-.365.537-.512s.407-.284.624-.413c.264-.164.496-.315.695-.453s.364-.277.496-.418c.132-.14.23-.293.3-.457.066-.164.1-.355.1-.572 0-.17-.032-.324-.097-.462-.066-.138-.152-.256-.26-.356-.11-.1-.237-.176-.383-.23-.147-.052-.302-.078-.466-.078-.216 0-.402.044-.558.135s-.283.21-.383.356-.172.313-.216.498c-.044.185-.063.37-.057.558h-.748c-.018-.315.013-.608.096-.878zm4.89 0c.083-.27.21-.503.383-.7.172-.195.388-.35.645-.46.258-.112.55-.168.88-.168.27 0 .523.04.76.12.24.078.445.192.62.342.177.15.316.335.42.558.102.223.153.48.153.774 0 .275-.042.52-.127.73s-.197.4-.338.567c-.14.168-.302.32-.483.454-.183.135-.37.264-.564.387-.194.12-.387.234-.58.35-.195.113-.372.235-.533.364-.162.13-.3.268-.414.418-.115.15-.19.32-.225.514h3.202v.66h-4.073c.03-.37.095-.685.198-.945.103-.26.233-.487.39-.68.16-.194.338-.365.538-.512s.408-.284.625-.413c.264-.164.496-.315.695-.453s.365-.277.497-.418c.132-.14.23-.293.3-.457.066-.164.1-.355.1-.572 0-.17-.032-.324-.097-.462s-.15-.256-.26-.356c-.108-.1-.236-.176-.382-.23-.147-.052-.302-.078-.466-.078-.217 0-.403.044-.56.135s-.282.21-.382.356-.17.313-.215.498c-.044.185-.063.37-.057.558h-.748c-.018-.315.014-.608.097-.878zm7.055.36h.96l1.09 1.593 1.136-1.59h.897l-1.566 2.092 1.76 2.454h-.96l-1.266-1.883-1.266 1.883h-.906l1.707-2.393-1.584-2.154zm7.283-.36c.082-.27.21-.503.382-.7.173-.195.39-.35.646-.46.26-.112.552-.168.88-.168.27 0 .524.04.762.12.238.078.444.192.62.342.176.15.315.335.418.558.103.223.154.48.154.774 0 .275-.042.52-.127.73s-.198.4-.34.567c-.14.168-.3.32-.482.454-.182.135-.37.264-.563.387-.194.12-.387.234-.58.35-.195.113-.372.235-.533.364-.163.13-.3.268-.415.418-.114.15-.19.32-.224.514h3.203v.66h-4.073c.03-.37.095-.685.198-.945.103-.26.233-.487.39-.68.16-.194.338-.365.538-.512s.408-.284.625-.413c.265-.164.497-.315.696-.453s.365-.277.497-.418c.132-.14.23-.293.3-.457.066-.164.1-.355.1-.572 0-.17-.032-.324-.097-.462s-.15-.256-.26-.356c-.108-.1-.236-.176-.382-.23-.147-.052-.302-.078-.466-.078-.217 0-.403.044-.56.135s-.282.21-.382.356-.17.313-.215.498c-.043.185-.062.37-.056.558h-.748c-.017-.315.015-.608.097-.878zm4.794 1.135c.012-.247.04-.487.088-.72.047-.236.114-.46.202-.67.088-.21.208-.395.36-.553.153-.16.345-.285.577-.378.23-.094.508-.14.83-.14.323 0 .6.046.832.14.232.094.424.22.576.378.152.158.273.343.36.554.09.21.156.434.203.668.047.234.076.475.088.72.012.247.018.485.018.713s-.005.466-.017.712-.04.487-.088.722-.114.455-.202.663-.208.392-.36.55-.344.282-.573.373c-.23.09-.507.137-.835.137-.323 0-.6-.046-.83-.137-.233-.09-.425-.215-.577-.373-.153-.158-.273-.342-.36-.55s-.156-.43-.203-.664-.076-.477-.088-.723c-.012-.246-.018-.484-.018-.712s.005-.466.017-.712zm.796 1.49c.015.29.062.563.14.818.08.257.208.472.384.647s.422.265.74.265.562-.09.738-.265.304-.39.383-.646c.08-.254.126-.526.14-.816.016-.29.023-.553.023-.788 0-.152 0-.32-.003-.506s-.018-.37-.044-.554c-.026-.185-.064-.365-.114-.54-.05-.177-.124-.33-.22-.462-.098-.132-.22-.24-.366-.32s-.326-.124-.537-.124-.39.04-.537.123-.268.19-.365.32c-.097.133-.17.287-.22.462-.05.176-.088.356-.114.54-.025.186-.04.37-.043.555s-.004.354-.004.506c-.002.235.006.498.02.788zm5.704-1.27h.248c.157 0 .308-.022.452-.066.144-.044.27-.108.378-.193s.195-.192.26-.32c.063-.13.096-.276.096-.44 0-.334-.105-.585-.316-.752-.21-.167-.475-.25-.792-.25-.2 0-.374.037-.523.11s-.274.17-.37.295c-.098.123-.17.267-.216.43-.047.166-.07.338-.07.52h-.748c.012-.3.06-.572.145-.818.086-.248.208-.46.366-.634.16-.176.356-.314.594-.414.238-.1.512-.15.823-.15.27 0 .52.035.752.102.23.067.433.168.603.303.17.135.304.308.4.52.097.21.145.46.145.747 0 .28-.082.53-.247.748-.164.217-.37.38-.616.493v.018c.38.082.665.26.85.536.184.275.276.6.276.976 0 .31-.057.585-.17.822s-.27.436-.463.594c-.193.158-.42.276-.682.355-.26.08-.537.12-.83.12-.317 0-.604-.045-.862-.133-.258-.088-.478-.22-.66-.392s-.32-.386-.417-.638c-.096-.252-.142-.54-.136-.862h.748c.012.405.13.735.352.99s.548.383.977.383c.183 0 .355-.028.52-.084.164-.055.308-.134.43-.236.125-.103.223-.23.296-.38.073-.148.11-.316.11-.504 0-.194-.035-.365-.105-.516-.07-.148-.163-.275-.28-.377-.118-.103-.257-.18-.418-.23-.162-.05-.336-.074-.523-.074-.16 0-.31.01-.45.026v-.634c.028.004.054.007.077.007zm-73.472 13.31c.217.164.475.246.774.246.457 0 .8-.2 1.028-.595.23-.396.355-1.002.378-1.816l-.018-.02c-.14.265-.34.475-.598.63-.258.155-.54.232-.844.232-.317 0-.598-.05-.845-.153-.245-.104-.452-.246-.62-.428-.166-.182-.292-.4-.377-.66-.085-.258-.128-.54-.128-.844 0-.3.05-.573.15-.823.1-.25.24-.463.422-.642.182-.18.4-.318.65-.418.253-.1.53-.15.828-.15.293 0 .57.046.827.138.258.09.484.247.677.47.193.224.347.526.46.91.115.385.172.873.172 1.465 0 1.08-.17 1.907-.515 2.485-.343.577-.893.866-1.65.866-.52 0-.955-.133-1.3-.397-.347-.264-.543-.666-.59-1.205h.748c.03.305.153.54.37.704zm1.966-3.898c-.055-.17-.137-.32-.246-.453s-.242-.235-.4-.312c-.16-.076-.343-.115-.554-.115-.223 0-.412.042-.567.124s-.282.19-.378.328-.167.295-.21.47-.067.36-.067.556c0 .17.03.334.092.492s.146.3.255.422.238.222.387.295.315.11.497.11c.192 0 .368-.037.527-.11.158-.073.293-.173.404-.3s.198-.27.256-.438c.06-.168.088-.342.088-.523 0-.195-.027-.377-.083-.547zm4.966.316c-.276.43-.52.887-.734 1.374-.214.486-.39.987-.523 1.504-.136.516-.218 1.018-.248 1.504h-.835c.035-.527.122-1.042.26-1.544.137-.5.314-.98.53-1.442.218-.46.47-.896.753-1.307.284-.41.59-.79.92-1.135h-3.273v-.704h4.037v.644c-.316.31-.612.68-.888 1.107zm2.023-.944c.1-.196.233-.362.404-.497.17-.136.365-.238.585-.31.22-.07.45-.104.69-.104.34 0 .63.045.87.137.24.09.436.21.585.36.15.15.26.32.33.51s.105.386.105.585c0 .28-.078.538-.233.77-.156.232-.365.406-.63.523.376.118.655.31.836.577.182.268.272.594.272.98 0 .306-.054.575-.163.81s-.255.433-.44.594c-.185.162-.403.284-.655.366-.252.082-.522.123-.81.123-.298 0-.577-.04-.834-.115-.258-.076-.482-.193-.673-.352-.19-.158-.34-.356-.45-.594-.108-.238-.162-.516-.162-.832 0-.37.094-.69.28-.964s.46-.47.81-.594c-.264-.105-.475-.276-.633-.515-.158-.237-.237-.497-.237-.778.002-.257.052-.485.15-.68zm.795 4.45c.25.215.567.322.955.322.188 0 .36-.03.515-.093s.29-.146.405-.255c.114-.108.202-.236.264-.383s.092-.308.092-.483c0-.17-.034-.327-.1-.47s-.16-.27-.278-.375c-.118-.106-.254-.19-.41-.252-.155-.062-.32-.092-.496-.092-.182 0-.354.027-.515.083s-.302.136-.422.24c-.12.106-.214.232-.28.38s-.102.31-.102.492c0 .377.123.67.372.885zm-.066-3.297c.058.125.137.23.237.31.1.083.217.145.352.186s.278.062.43.062c.3 0 .545-.088.74-.264.193-.176.29-.423.29-.74s-.1-.555-.295-.716-.447-.242-.752-.242c-.146 0-.288.02-.422.062-.134.042-.25.104-.346.186s-.175.182-.233.3-.087.254-.087.412c-.002.168.028.317.086.443zm9.2-1.15c-.182-.17-.422-.255-.72-.255-.317 0-.572.078-.766.233s-.345.352-.453.59c-.107.237-.182.494-.223.77s-.064.533-.07.773l.018.02c.176-.288.394-.496.655-.625.26-.13.562-.193.9-.193.3 0 .568.05.806.153.237.103.437.245.598.427.16.182.286.396.374.643s.132.513.132.8c0 .23-.035.467-.105.713s-.186.47-.347.673c-.162.203-.375.37-.642.502-.267.133-.597.198-.99.198-.462 0-.834-.094-1.116-.28-.28-.19-.5-.43-.65-.723-.153-.293-.254-.615-.304-.968-.05-.353-.075-.692-.075-1.02 0-.43.037-.845.11-1.246.074-.4.2-.758.375-1.068.176-.31.41-.56.704-.748.292-.188.662-.28 1.107-.28.516 0 .927.136 1.23.408.306.272.482.667.53 1.183h-.75c-.037-.283-.145-.51-.327-.68zm-1.354 2.08c-.158.074-.293.174-.404.3-.112.126-.195.275-.25.448-.057.174-.084.356-.084.55 0 .194.03.376.088.546s.142.316.25.44c.11.122.244.22.405.294s.346.11.55.11c.205 0 .386-.037.54-.11s.287-.175.393-.304c.105-.13.186-.277.242-.444s.083-.34.083-.523c0-.193-.025-.376-.075-.55-.05-.173-.127-.322-.233-.448-.106-.127-.238-.23-.396-.305s-.343-.114-.554-.114c-.21 0-.396.038-.554.11zm3.65-2.084c.1-.196.233-.362.404-.497.17-.136.365-.238.585-.31.22-.07.45-.104.69-.104.34 0 .63.045.87.137.242.09.437.21.586.36.15.15.26.32.33.51s.106.386.106.585c0 .28-.078.538-.233.77-.156.232-.365.406-.63.523.376.118.655.31.836.577.18.268.27.594.27.98 0 .306-.053.575-.162.81s-.255.433-.44.594c-.185.162-.403.284-.655.366-.252.082-.522.123-.81.123-.298 0-.577-.04-.834-.115-.26-.076-.483-.193-.674-.352-.19-.158-.34-.356-.45-.594-.108-.238-.162-.516-.162-.832 0-.37.094-.69.28-.964s.46-.47.81-.594c-.264-.105-.475-.276-.633-.515-.157-.237-.236-.497-.236-.778.002-.257.052-.485.15-.68zm.795 4.45c.25.215.568.322.956.322.188 0 .36-.03.515-.093s.29-.146.406-.255c.114-.108.202-.236.264-.383s.092-.308.092-.483c0-.17-.034-.327-.1-.47s-.16-.27-.278-.375c-.118-.106-.254-.19-.41-.252-.155-.062-.32-.092-.496-.092-.182 0-.354.027-.515.083s-.302.136-.422.24c-.12.106-.213.232-.28.38s-.1.31-.1.492c-.002.377.122.67.37.885zm-.065-3.297c.06.125.138.23.238.31.1.083.217.145.352.186s.28.062.43.062c.3 0 .546-.088.74-.264.194-.176.29-.423.29-.74s-.098-.555-.294-.716-.446-.242-.75-.242c-.147 0-.29.02-.423.062-.135.042-.25.104-.347.186s-.175.182-.233.3-.088.254-.088.412c-.002.168.027.317.085.443zm4.16-1.154c.1-.196.235-.362.406-.497.17-.136.366-.238.586-.31.22-.07.45-.104.69-.104.34 0 .63.045.87.137.242.09.437.21.586.36.15.15.26.32.33.51s.105.386.105.585c0 .28-.078.538-.233.77-.156.232-.365.406-.63.523.376.118.655.31.836.577.182.268.272.594.272.98 0 .306-.054.575-.163.81s-.256.433-.44.594c-.186.162-.404.284-.656.366-.252.082-.522.123-.81.123-.298 0-.577-.04-.834-.115-.258-.076-.482-.193-.673-.352-.19-.158-.34-.356-.45-.594-.108-.238-.162-.516-.162-.832 0-.37.094-.69.28-.964s.46-.47.81-.594c-.264-.105-.475-.276-.633-.515-.158-.237-.237-.497-.237-.778.002-.257.05-.485.15-.68zm.797 4.45c.25.215.567.322.955.322.188 0 .36-.03.515-.093s.29-.146.405-.255c.114-.108.202-.236.264-.383s.093-.308.093-.483c0-.17-.034-.327-.1-.47s-.16-.27-.278-.375c-.118-.106-.254-.19-.41-.252-.155-.062-.32-.092-.496-.092-.183 0-.355.027-.516.083s-.302.136-.422.24c-.12.106-.214.232-.28.38s-.102.31-.102.492c-.002.377.123.67.372.885zm-.066-3.297c.06.125.138.23.238.31.1.083.217.145.352.186s.28.062.43.062c.3 0 .546-.088.74-.264.194-.176.29-.423.29-.74s-.098-.555-.294-.716-.447-.242-.752-.242c-.146 0-.288.02-.422.062-.135.042-.25.104-.347.186s-.174.182-.232.3-.088.254-.088.412c-.002.168.027.317.086.443zm7.503-1.298l-.335 1.794.018.018c.135-.152.31-.266.523-.34.214-.072.427-.108.638-.108.275 0 .537.044.783.132.247.088.46.22.642.4.18.18.325.4.43.668s.158.58.158.937c0 .265-.045.52-.136.77-.09.25-.227.47-.41.665-.18.193-.408.347-.68.46-.273.116-.592.173-.955.173-.27 0-.523-.038-.76-.118-.24-.08-.448-.193-.63-.343-.182-.15-.325-.336-.43-.56-.106-.223-.163-.475-.168-.756h.747c.012.158.05.306.12.443.066.14.157.26.27.36.116.104.25.183.406.238s.327.084.515.084c.176 0 .344-.032.506-.094.16-.062.302-.154.422-.277s.216-.277.286-.463c.07-.185.105-.4.105-.646 0-.204-.034-.393-.1-.566-.068-.173-.164-.322-.287-.448-.123-.126-.27-.225-.444-.295-.173-.07-.365-.104-.576-.104-.247 0-.465.055-.655.163-.19.107-.36.25-.506.426l-.643-.035.58-3.236h3.08v.66h-2.518zm6.86 1.09c-.276.428-.52.885-.734 1.372-.214.486-.39.987-.523 1.504-.135.516-.217 1.018-.247 1.504h-.835c.036-.527.123-1.042.26-1.544.138-.5.315-.98.532-1.442.217-.46.468-.896.752-1.307.284-.41.59-.79.92-1.135H133.9v-.704h4.038v.644c-.316.31-.612.68-.888 1.107zm3.686 4.38v-4.47h-1.62v-.597c.212 0 .418-.017.617-.05s.38-.09.54-.18.3-.207.41-.36c.11-.152.188-.346.23-.58h.57v6.236h-.747zm4.125-5.47l-.333 1.794.018.018c.135-.152.31-.266.523-.34.214-.072.427-.108.638-.108.275 0 .537.044.783.132.246.088.46.22.64.4.183.18.327.4.432.668s.158.58.158.937c0 .265-.045.52-.136.77-.09.25-.227.47-.41.665-.18.193-.408.347-.68.46-.273.116-.592.173-.955.173-.27 0-.524-.038-.762-.118-.238-.08-.447-.193-.63-.343-.18-.15-.324-.336-.43-.56-.105-.223-.162-.475-.167-.756h.75c.01.158.05.306.118.443.067.14.158.26.272.36.115.104.25.183.405.238s.327.084.515.084c.176 0 .344-.032.506-.094.16-.062.302-.154.422-.277s.216-.277.286-.463c.07-.185.105-.4.105-.646 0-.204-.035-.393-.102-.566-.067-.173-.163-.322-.286-.448-.123-.126-.27-.225-.444-.295-.173-.07-.365-.104-.576-.104-.247 0-.465.055-.655.163-.19.107-.36.25-.506.426l-.64-.035.58-3.236h3.08v.66h-2.52zm5.824 1.583v-.66h.765v-.677c0-.37.106-.65.32-.84.214-.19.526-.286.937-.286.07 0 .15.006.242.018s.17.03.24.053v.65c-.063-.023-.134-.04-.21-.048s-.146-.014-.21-.014c-.183 0-.324.036-.423.106s-.15.206-.15.405v.634h.88v.66h-.88v3.888h-.747v-3.888h-.766zm6.553 3.984c-.194 0-.348-.056-.462-.164s-.17-.285-.17-.53c-.207.245-.445.422-.718.53s-.567.163-.884.163c-.206 0-.4-.022-.58-.066-.183-.045-.343-.118-.48-.22s-.246-.235-.325-.397-.12-.356-.12-.585c0-.258.045-.47.133-.633.09-.166.205-.3.348-.4s.308-.182.493-.234.375-.097.568-.132c.205-.04.4-.072.585-.093s.348-.05.488-.087c.142-.038.253-.094.335-.167s.124-.18.124-.32c0-.165-.032-.297-.094-.397s-.14-.177-.237-.23-.207-.088-.326-.105c-.12-.018-.24-.026-.356-.026-.317 0-.58.06-.792.18-.21.12-.326.347-.343.68h-.748c.012-.28.07-.518.176-.71s.247-.352.423-.472.378-.207.607-.26c.23-.053.47-.08.72-.08.206 0 .41.016.612.045s.385.09.55.18c.164.092.296.22.396.384.1.164.15.378.15.642v2.34c0 .175.01.304.03.386.022.083.09.124.208.124.064 0 .14-.015.23-.044v.58c-.132.075-.31.113-.54.113zm-1.047-2.292c-.153.032-.312.06-.48.08s-.335.043-.505.07-.322.067-.457.126c-.135.06-.245.143-.33.25s-.127.258-.127.445c0 .122.026.227.076.31s.114.154.193.207.172.092.28.115c.11.023.22.035.33.035.248 0 .46-.034.634-.102s.32-.152.43-.255.194-.214.247-.335c.054-.12.08-.232.08-.338V75.8c-.095.074-.218.126-.37.158zm1.917-2.354h.96l1.09 1.593 1.135-1.593h.897l-1.567 2.094 1.76 2.454h-.96l-1.266-1.883-1.267 1.882h-.906l1.707-2.393-1.583-2.156zM98.312 89.99c-.34.37-.874.556-1.6.556-.212 0-.428-.024-.647-.07-.22-.048-.42-.124-.598-.23-.18-.105-.327-.243-.444-.413s-.182-.378-.193-.625h.748c.006.135.048.25.127.344s.176.17.29.23.24.1.375.126c.135.027.264.04.387.04.246 0 .455-.043.625-.128s.31-.202.422-.352c.11-.15.192-.33.242-.54s.075-.443.075-.695v-.3h-.017c-.13.282-.324.488-.585.62s-.538.198-.83.198c-.34 0-.637-.06-.89-.184-.252-.123-.463-.29-.633-.497-.17-.21-.297-.452-.382-.73-.085-.28-.127-.573-.127-.885 0-.27.035-.547.105-.83s.19-.543.353-.775c.164-.23.38-.422.65-.57.27-.15.602-.226.995-.226.287 0 .55.063.792.19.24.125.428.314.563.566h.01v-.65h.703v4.16c-.003.744-.173 1.302-.514 1.67zm-.954-2.044c.173-.103.312-.237.418-.404.105-.168.183-.356.233-.567.05-.212.074-.423.074-.634 0-.198-.023-.395-.07-.588-.047-.194-.122-.368-.224-.523-.103-.156-.236-.28-.4-.375s-.364-.14-.598-.14c-.24 0-.446.044-.616.135-.17.092-.31.213-.418.365s-.188.33-.237.528-.074.407-.074.624c0 .205.02.41.062.616.04.205.11.39.21.56.1.166.233.3.397.403s.37.154.616.154.456-.05.628-.154zm3.163-.255c.07.115.164.206.278.273s.244.116.387.146.292.043.444.043c.116 0 .24-.01.368-.026s.248-.05.356-.098c.108-.048.198-.116.268-.207s.105-.207.105-.348c0-.193-.073-.34-.22-.44s-.33-.18-.55-.24c-.22-.063-.46-.118-.717-.168-.258-.05-.497-.12-.717-.21s-.403-.22-.55-.384-.22-.393-.22-.687c0-.23.05-.425.154-.59s.234-.297.396-.4c.16-.102.343-.178.545-.228.203-.05.403-.075.603-.075.26 0 .497.022.714.066.217.043.41.12.576.228.167.108.3.255.4.44s.158.414.176.69h-.748c-.012-.147-.05-.27-.114-.365-.064-.098-.146-.175-.246-.233-.1-.06-.21-.102-.33-.128s-.242-.04-.365-.04c-.11 0-.224.01-.338.027s-.22.047-.312.09-.17.104-.23.177c-.058.074-.087.17-.087.286 0 .13.045.236.136.32s.207.156.348.212c.14.056.3.103.475.14l.528.12c.188.04.37.09.55.15s.337.136.475.232.25.218.334.364c.084.148.127.33.127.547 0 .275-.058.504-.173.686-.114.183-.264.33-.448.44-.186.11-.394.188-.626.233-.232.044-.462.065-.69.065-.252 0-.493-.025-.722-.078-.23-.053-.43-.14-.607-.26-.176-.12-.316-.278-.422-.475s-.165-.436-.176-.717h.748c.007.168.045.307.116.42zm4.53-3.53v.668h.018c.34-.516.83-.774 1.47-.774.28 0 .536.06.765.176.23.118.39.317.484.6.152-.247.353-.438.603-.573.25-.135.523-.202.822-.202.23 0 .436.025.62.075s.343.127.475.232c.132.106.234.242.308.41s.11.367.11.602v3.334h-.748v-2.98c0-.143-.012-.274-.035-.397s-.067-.228-.132-.32c-.064-.09-.154-.162-.27-.215-.113-.053-.26-.08-.443-.08-.37 0-.66.106-.87.317-.212.21-.317.492-.317.845v2.832h-.748v-2.982c0-.146-.014-.282-.04-.405s-.072-.23-.136-.32c-.064-.092-.15-.162-.26-.212-.108-.05-.247-.073-.417-.073-.218 0-.404.044-.56.132s-.28.192-.378.315c-.097.123-.167.25-.21.383s-.067.242-.067.33v2.832h-.748v-4.548h.703zm6.844-.818v-.915h.748v.915h-.748zm.747.817v4.547h-.747V84.16h.748zm3.106 0v.66h-.906v2.822c0 .088.007.158.022.21.014.054.042.095.083.124.04.03.098.05.17.058s.17.013.287.013h.343v.66h-.572c-.193 0-.36-.014-.497-.04s-.25-.074-.334-.145-.148-.17-.19-.3-.06-.3-.06-.51v-2.894h-.774v-.66h.773v-1.363h.75v1.363h.906zm1.574-1.733v2.4h.018c.06-.14.14-.26.247-.355.105-.097.224-.176.356-.237s.27-.107.415-.137c.144-.03.283-.044.418-.044.3 0 .548.04.748.123.2.082.36.197.485.344.123.147.21.32.26.524.05.202.074.426.074.673v2.99h-.75v-3.08c0-.28-.08-.503-.246-.667-.164-.164-.39-.246-.677-.246-.23 0-.426.035-.594.105-.167.07-.306.17-.417.298-.112.13-.195.28-.25.453s-.084.363-.084.568v2.568h-.748v-6.28h.746zm8.212 4.138c-.02.08-.03.15-.03.215 0 .183.07.273.21.273.135 0 .274-.062.418-.186.144-.123.274-.28.39-.475s.215-.41.292-.65c.076-.24.114-.48.114-.713 0-.347-.066-.66-.198-.942-.132-.28-.31-.52-.532-.717-.223-.195-.477-.347-.76-.452-.285-.105-.583-.158-.894-.158-.375 0-.726.075-1.05.225-.326.15-.61.354-.85.61-.24.26-.43.558-.567.898-.138.34-.207.703-.207 1.09 0 .394.072.76.215 1.1.144.34.34.635.59.885.248.25.537.445.865.59.33.143.677.215 1.047.215.422 0 .828-.097 1.218-.29.39-.194.71-.452.963-.774h.554c-.14.245-.31.464-.51.654s-.418.352-.655.483c-.238.132-.49.232-.76.3-.27.066-.546.1-.828.1-.463 0-.896-.084-1.297-.254-.402-.17-.75-.403-1.047-.7s-.53-.645-.7-1.046-.254-.837-.254-1.307c0-.45.085-.875.258-1.27s.408-.743.704-1.04.642-.528 1.038-.698.816-.255 1.262-.255c.405 0 .79.067 1.152.202.363.134.682.32.954.558.273.237.488.52.646.854.16.33.238.696.238 1.095 0 .38-.07.73-.207 1.042-.138.313-.31.58-.514.804-.205.224-.427.396-.667.52-.24.123-.463.185-.67.185-.15 0-.28-.048-.386-.142s-.165-.237-.176-.43h-.026c-.135.15-.296.287-.483.407s-.39.18-.606.18c-.188 0-.36-.035-.515-.11-.156-.072-.29-.17-.397-.293s-.193-.27-.255-.44c-.062-.17-.092-.352-.092-.545 0-.305.05-.607.15-.906s.238-.564.417-.8c.18-.234.396-.425.65-.57.256-.147.54-.22.85-.22.205 0 .396.053.572.162.176.108.313.294.414.558l.2-.554h.555l-.74 2.498c-.02.074-.043.152-.063.23zm-1.505-2.12c-.173.12-.32.27-.444.453-.123.182-.22.38-.29.594s-.105.418-.105.61c0 .247.07.45.21.612s.323.242.546.242c.193 0 .372-.063.537-.19.165-.125.31-.283.432-.474.123-.19.22-.395.29-.61.07-.22.105-.418.105-.6 0-.105-.02-.208-.057-.308s-.09-.187-.158-.26-.144-.133-.23-.18c-.084-.048-.173-.07-.267-.07-.205 0-.395.06-.568.18zm7.886 5.546c-.34.37-.874.556-1.6.556-.212 0-.428-.024-.647-.07-.22-.048-.42-.124-.598-.23-.18-.105-.327-.243-.444-.413s-.182-.378-.193-.625h.75c.005.135.047.25.126.344s.176.17.29.23.24.1.375.126c.136.027.265.04.388.04.246 0 .455-.043.625-.128s.31-.202.422-.352c.11-.15.192-.33.242-.54s.075-.443.075-.695v-.3h-.018c-.13.282-.324.488-.585.62s-.54.198-.832.198c-.34 0-.636-.06-.89-.184-.25-.123-.462-.29-.632-.497-.17-.21-.297-.452-.382-.73-.085-.28-.127-.573-.127-.885 0-.27.035-.547.105-.83s.188-.543.352-.775c.164-.23.38-.422.65-.57.27-.15.602-.226.995-.226.286 0 .55.063.79.19.242.125.43.314.564.566h.01v-.65h.703v4.16c-.004.744-.174 1.302-.514 1.67zm-.955-2.044c.173-.103.312-.237.418-.404.105-.168.183-.356.233-.567.05-.212.074-.423.074-.634 0-.198-.023-.395-.07-.588-.047-.194-.122-.368-.224-.523-.103-.156-.236-.28-.4-.375s-.364-.14-.598-.14c-.24 0-.446.044-.616.135-.17.092-.31.213-.418.365s-.188.33-.237.528-.074.407-.074.624c0 .205.02.41.062.616.04.205.11.39.21.56.1.166.233.3.397.403s.37.154.616.154.456-.05.628-.154zm3.163-.255c.07.115.164.206.278.273s.244.116.387.146.292.043.444.043c.116 0 .24-.01.368-.026s.248-.05.356-.098c.108-.048.198-.116.268-.207s.105-.207.105-.348c0-.193-.073-.34-.22-.44s-.33-.18-.55-.24c-.22-.063-.46-.118-.717-.168-.258-.05-.497-.12-.717-.21s-.403-.22-.55-.384-.22-.393-.22-.687c0-.23.05-.425.154-.59s.234-.297.396-.4c.16-.102.343-.178.545-.228.203-.05.403-.075.603-.075.26 0 .497.022.714.066.217.043.41.12.576.228.167.108.3.255.4.44s.158.414.176.69h-.748c-.012-.147-.05-.27-.114-.365-.064-.098-.146-.175-.246-.233-.1-.06-.21-.102-.33-.128s-.242-.04-.365-.04c-.11 0-.224.01-.338.027s-.22.047-.312.09-.17.104-.23.177c-.058.074-.087.17-.087.286 0 .13.045.236.136.32s.207.156.348.212c.14.056.3.103.475.14l.528.12c.188.04.37.09.55.15s.337.136.475.232.25.218.334.364c.084.148.127.33.127.547 0 .275-.058.504-.173.686-.114.183-.264.33-.448.44-.186.11-.394.188-.626.233-.232.044-.462.065-.69.065-.252 0-.493-.025-.722-.078-.23-.053-.43-.14-.607-.26-.176-.12-.316-.278-.422-.475s-.165-.436-.176-.717h.748c.007.168.045.307.116.42zm7.143 1.017v-.616h-.018c-.123.254-.316.436-.58.547-.265.11-.555.167-.872.167-.352 0-.658-.064-.92-.193-.26-.128-.477-.3-.65-.52-.173-.216-.303-.468-.39-.755s-.133-.593-.133-.915.042-.627.127-.915c.085-.287.214-.537.387-.752.173-.214.39-.384.65-.51.262-.126.565-.19.912-.19.117 0 .243.013.378.036.135.022.27.062.404.118s.263.13.383.22.222.204.304.34h.018v-2.34h.748v6.28h-.747zm-2.687-1.614c.056.202.14.383.255.54.116.16.262.285.44.38.18.094.39.14.63.14.252 0 .466-.05.642-.15.176-.1.32-.228.43-.39s.193-.345.243-.55.075-.414.075-.625c0-.223-.026-.438-.08-.646s-.135-.392-.25-.55-.262-.286-.443-.383-.402-.146-.66-.146c-.252 0-.466.05-.642.15s-.317.23-.422.395-.182.35-.23.562c-.046.21-.07.428-.07.65 0 .212.027.42.083.62zm7.006-1.183v.703h-2.542v-.703h2.542zm4.495 2.894c-.194 0-.348-.055-.462-.163s-.17-.284-.17-.53c-.207.246-.445.423-.718.53-.272.11-.567.164-.884.164-.206 0-.4-.02-.58-.065-.183-.046-.343-.12-.48-.222s-.246-.234-.325-.396-.12-.356-.12-.585c0-.258.045-.47.133-.633.09-.165.205-.298.348-.4s.308-.18.493-.233.375-.096.568-.13c.205-.042.4-.073.585-.094s.348-.05.488-.088.253-.094.335-.167.124-.18.124-.32c0-.164-.032-.296-.094-.396s-.14-.176-.237-.23-.207-.087-.327-.104-.24-.026-.356-.026c-.317 0-.58.06-.792.18-.21.12-.326.348-.343.682h-.748c.012-.28.07-.52.176-.712s.246-.35.422-.47.378-.208.607-.26c.228-.054.468-.08.72-.08.205 0 .41.015.61.044s.386.09.55.18c.165.092.297.22.397.384.1.164.15.378.15.642v2.34c0 .176.01.305.03.387.022.084.09.125.208.125.064 0 .14-.015.23-.044v.58c-.13.076-.31.114-.538.114zm-1.047-2.29c-.153.03-.312.058-.48.078s-.335.044-.505.07-.322.068-.457.127c-.135.06-.245.142-.33.25s-.127.257-.127.444c0 .123.026.228.076.312s.114.153.193.206.172.092.28.115c.11.023.22.035.33.035.248 0 .46-.034.634-.102.176-.067.32-.152.43-.255s.194-.214.247-.335c.054-.12.08-.232.08-.338v-.766c-.095.073-.218.124-.37.157zm2.85 1.177c.07.115.162.206.276.273s.244.116.387.146.292.043.444.043c.117 0 .24-.01.37-.026s.247-.05.355-.098c.108-.048.198-.116.268-.207s.105-.207.105-.348c0-.193-.073-.34-.22-.44s-.33-.18-.55-.24c-.22-.063-.46-.118-.717-.168-.258-.05-.497-.12-.717-.21s-.402-.22-.55-.384-.22-.393-.22-.687c0-.23.052-.425.155-.59s.234-.297.396-.4c.162-.102.344-.178.546-.228.203-.05.403-.075.603-.075.257 0 .495.022.712.066.217.043.41.12.576.228.167.108.3.255.4.44s.158.414.176.69h-.748c-.012-.147-.05-.27-.114-.365-.064-.098-.146-.175-.246-.233-.1-.06-.21-.102-.33-.128s-.242-.04-.365-.04c-.11 0-.223.01-.337.027s-.22.047-.312.09-.17.104-.228.177c-.06.074-.088.17-.088.286 0 .13.045.236.136.32s.207.156.348.212c.14.056.3.103.475.14l.528.12c.19.04.372.09.55.15s.338.136.476.232.25.218.334.364c.084.148.127.33.127.547 0 .275-.057.504-.172.686-.114.183-.264.33-.448.44-.185.11-.393.188-.625.233-.232.044-.462.065-.69.065-.252 0-.493-.025-.722-.078-.23-.053-.43-.14-.607-.26-.176-.12-.316-.278-.422-.475s-.164-.436-.175-.717h.748c.008.168.046.307.116.42zm4.397 0c.07.115.163.206.277.273s.244.116.387.146.293.043.445.043c.117 0 .24-.01.37-.026s.247-.05.355-.098c.108-.048.198-.116.268-.207s.105-.207.105-.348c0-.193-.073-.34-.22-.44s-.33-.18-.55-.24c-.22-.063-.46-.118-.717-.168-.258-.05-.497-.12-.717-.21s-.404-.22-.55-.384-.22-.393-.22-.687c0-.23.05-.425.154-.59s.234-.297.396-.4.343-.178.545-.228c.203-.05.403-.075.603-.075.258 0 .496.022.713.066.218.043.41.12.577.228.167.108.3.255.4.44s.158.414.176.69h-.748c-.012-.147-.05-.27-.114-.365-.063-.098-.145-.175-.245-.233-.1-.06-.21-.102-.33-.128s-.242-.04-.365-.04c-.11 0-.224.01-.338.027s-.22.047-.312.09-.17.104-.23.177c-.058.074-.087.17-.087.286 0 .13.045.236.136.32s.206.156.347.212c.14.056.3.103.475.14l.528.12c.188.04.37.09.55.15s.337.136.475.232.25.218.334.364c.083.148.126.33.126.547 0 .275-.057.504-.172.686-.114.183-.264.33-.448.44-.185.11-.393.188-.625.233-.23.044-.46.065-.69.065-.25 0-.492-.025-.72-.078-.23-.053-.432-.14-.608-.26-.175-.12-.316-.278-.42-.475s-.166-.436-.177-.717h.748c.005.168.044.307.114.42zm3.72-2.19c.095-.29.235-.54.423-.756.188-.214.42-.383.695-.506.275-.123.592-.185.95-.185.364 0 .682.062.955.185.272.123.502.292.69.506.188.215.328.467.422.757.093.29.14.604.14.938s-.046.646-.14.933c-.094.288-.235.54-.422.753-.188.214-.418.38-.69.5-.273.12-.59.182-.955.182-.358 0-.674-.06-.95-.18-.276-.12-.507-.288-.695-.502-.188-.214-.328-.465-.422-.752s-.14-.598-.14-.932.046-.647.14-.937zm.762 1.672c.072.215.173.394.302.537.13.143.28.252.453.328.173.077.356.115.55.115s.377-.038.55-.115c.173-.076.324-.186.453-.33.13-.143.23-.32.303-.536.074-.214.11-.46.11-.734s-.036-.52-.11-.734-.173-.395-.302-.54c-.13-.147-.28-.26-.453-.335s-.356-.115-.55-.115-.377.038-.55.114-.324.187-.453.333c-.13.146-.23.327-.303.54s-.11.46-.11.735.036.52.11.734zm7.11-2.22c-.188-.16-.44-.238-.756-.238-.27 0-.496.05-.677.15s-.327.23-.436.395-.185.353-.232.566-.07.436-.07.664c0 .21.025.417.075.616s.127.377.233.532.244.28.414.373c.17.096.373.143.607.143.37 0 .658-.098.866-.29.208-.194.336-.467.383-.818h.765c-.08.562-.29.997-.628 1.302-.337.305-.796.457-1.376.457-.346 0-.652-.056-.92-.167-.266-.11-.488-.27-.667-.475-.18-.206-.314-.45-.405-.735-.09-.284-.136-.596-.136-.937 0-.34.043-.658.13-.954s.222-.555.4-.774c.18-.22.404-.393.674-.52.27-.125.583-.188.94-.188.26 0 .5.03.727.093s.426.156.6.286c.172.13.314.29.426.487.11.197.182.43.21.7h-.773c-.062-.288-.185-.51-.373-.67zm3.15 2.778v.977h-.978v-.977h.977zm4.02-2.78c-.19-.157-.44-.236-.757-.236-.27 0-.496.05-.677.15s-.327.23-.436.395-.186.353-.233.566-.07.436-.07.664c0 .21.025.417.075.616s.127.377.233.532.244.28.414.373c.17.096.372.143.606.143.37 0 .658-.098.866-.29.208-.194.336-.467.383-.818h.765c-.082.562-.292.997-.63 1.302-.336.305-.795.457-1.375.457-.346 0-.652-.056-.92-.167-.266-.11-.488-.27-.667-.475-.18-.206-.313-.45-.404-.735-.09-.284-.136-.596-.136-.937 0-.34.044-.658.132-.954s.22-.555.4-.774c.18-.22.403-.393.673-.52.27-.125.583-.188.94-.188.26 0 .5.03.727.093s.425.156.598.286c.173.13.315.29.427.487.11.197.182.43.21.7h-.773c-.062-.288-.185-.51-.373-.67zm1.9.55c.093-.29.233-.54.42-.756.19-.214.42-.383.696-.506.275-.123.592-.185.95-.185.364 0 .682.062.955.185.273.123.503.292.69.506.19.215.33.467.423.757.093.29.14.604.14.938s-.046.646-.14.933c-.094.288-.235.54-.422.753-.187.214-.417.38-.69.5-.272.12-.59.182-.954.182-.358 0-.674-.06-.95-.18-.276-.12-.507-.288-.695-.502-.187-.214-.327-.465-.42-.752s-.142-.598-.142-.932.047-.647.14-.937zm.76 1.672c.073.215.174.394.303.537.13.143.28.252.453.328.173.077.356.115.55.115s.377-.038.55-.115c.173-.076.324-.186.453-.33.128-.143.23-.32.302-.536.073-.214.11-.46.11-.734s-.037-.52-.11-.734-.174-.395-.303-.54c-.13-.147-.28-.26-.454-.335s-.356-.115-.55-.115-.377.038-.55.114-.324.187-.453.333c-.13.146-.23.327-.303.54s-.11.46-.11.735.036.52.11.734zm5.097-3.013v.668h.018c.34-.516.83-.774 1.47-.774.28 0 .536.06.765.176.23.118.39.317.484.6.152-.247.353-.438.603-.573.25-.135.523-.202.822-.202.228 0 .435.025.62.075s.342.127.474.232c.132.106.234.242.308.41s.11.367.11.602v3.334h-.748v-2.98c0-.143-.012-.274-.035-.397s-.068-.228-.133-.32c-.064-.09-.154-.162-.27-.215-.113-.053-.26-.08-.443-.08-.37 0-.66.106-.87.317-.212.21-.317.492-.317.845v2.832h-.748v-2.982c0-.146-.015-.282-.04-.405s-.073-.23-.137-.32c-.064-.092-.15-.162-.26-.212-.108-.05-.247-.073-.417-.073-.217 0-.403.044-.56.132s-.28.192-.377.315c-.098.123-.168.25-.212.383s-.066.242-.066.33v2.832h-.748v-4.548h.703zm-83.7-52.13c-.33.138-.66.207-.997.207-.53 0-1.004-.092-1.427-.276-.423-.183-.78-.436-1.07-.758-.29-.323-.512-.702-.666-1.137-.155-.435-.232-.904-.232-1.408 0-.516.078-.995.232-1.437s.377-.828.667-1.156c.29-.33.646-.587 1.07-.774.42-.187.897-.28 1.426-.28.355 0 .698.053 1.03.16.333.106.633.263.9.47.27.206.49.46.664.763s.28.652.32 1.045H99.56c-.09-.387-.265-.677-.523-.87-.26-.195-.572-.292-.94-.292-.34 0-.63.066-.87.2-.24.13-.432.31-.58.53-.15.224-.257.477-.325.76s-.102.578-.102.88c0 .292.034.574.102.848.068.274.176.52.324.74s.34.395.58.527.53.2.87.2c.504 0 .893-.128 1.167-.383.274-.254.434-.624.48-1.107h-1.53v-1.132h2.903v3.735h-.968l-.155-.784c-.27.347-.57.59-.9.73zm4.412-4.95v.93h.02c.063-.156.15-.3.26-.432.11-.132.235-.245.377-.34.142-.092.293-.165.455-.217.16-.05.33-.076.503-.076.09 0 .19.016.3.048v1.277c-.064-.014-.142-.025-.232-.035s-.177-.015-.26-.015c-.252 0-.465.042-.64.126-.174.084-.314.198-.42.344-.107.145-.183.314-.228.508-.045.193-.068.403-.068.63v2.253h-1.374v-5h1.306zm3.756 3.803c.207.2.503.3.89.3.277 0 .516-.07.716-.208.2-.14.323-.285.368-.44h1.21c-.194.6-.49 1.03-.89 1.287s-.885.387-1.452.387c-.394 0-.75-.064-1.064-.19-.316-.125-.583-.305-.803-.537-.22-.232-.388-.51-.507-.832-.12-.32-.18-.676-.18-1.063 0-.374.062-.723.185-1.045.123-.322.297-.6.522-.837.226-.235.495-.42.808-.556.312-.136.66-.204 1.04-.204.426 0 .796.082 1.113.247.317.165.577.386.78.663.203.278.35.594.44.948.09.355.122.726.097 1.113h-3.61c.02.443.132.766.34.966zm1.552-2.632c-.164-.18-.414-.27-.75-.27-.22 0-.402.037-.547.11s-.26.167-.347.277c-.087.11-.148.226-.184.348-.036.123-.057.232-.063.33h2.235c-.064-.35-.18-.613-.344-.794zm7.257 4.2c-.055.258-.173.5-.353.72-.18.224-.442.412-.784.567-.342.155-.8.232-1.374.232-.245 0-.495-.032-.75-.093-.255-.062-.487-.157-.697-.286-.21-.128-.384-.294-.522-.497s-.217-.447-.237-.73h1.364c.064.258.19.437.377.537.186.1.402.15.647.15.387 0 .67-.116.846-.35.177-.23.263-.525.256-.88v-.657h-.02c-.148.265-.36.46-.634.585-.274.126-.562.19-.866.19-.374 0-.696-.067-.967-.2-.27-.13-.494-.312-.668-.54-.174-.23-.3-.498-.382-.804-.08-.306-.12-.63-.12-.972 0-.323.046-.634.14-.934.093-.3.23-.564.41-.793.18-.23.405-.412.673-.547.268-.135.576-.203.924-.203.33 0 .618.062.866.184s.456.328.624.62h.02v-.67h1.306v4.683c0 .2-.027.43-.08.687zm-1.882-1.664c.148-.078.27-.18.368-.31.098-.13.17-.276.22-.44s.07-.337.07-.518c0-.207-.018-.402-.057-.585-.04-.184-.103-.347-.193-.49-.09-.14-.21-.253-.358-.337s-.335-.126-.56-.126c-.195 0-.36.04-.5.116-.14.077-.255.182-.348.314-.094.132-.162.284-.203.455-.04.17-.062.35-.062.537 0 .18.018.36.053.537.036.176.098.336.185.478.087.142.202.258.344.348.14.09.318.135.53.135.194.002.364-.037.513-.114zm9.017-5.612c.432 0 .8.062 1.103.188s.55.292.74.498c.19.207.33.442.416.707s.13.54.13.822c0 .276-.044.55-.13.817s-.227.505-.417.71c-.19.208-.437.374-.74.5-.303.125-.67.188-1.103.188h-1.597v2.477h-1.52v-6.908h3.117zm-.416 3.25c.174 0 .342-.012.503-.038.16-.025.303-.076.426-.15s.22-.18.295-.314c.074-.135.11-.312.11-.532 0-.22-.036-.396-.11-.532-.074-.135-.173-.24-.295-.314-.123-.074-.265-.124-.426-.15-.16-.025-.33-.04-.503-.04h-1.18v2.072h1.18zm3.948 2.168v1.49h-1.52v-1.49h1.52zm5.1-.213c.084.16.195.29.334.39s.3.175.49.224c.186.048.38.072.58.072.135 0 .28-.01.435-.034s.3-.066.437-.13c.135-.065.248-.154.338-.267s.136-.257.136-.43c0-.188-.06-.34-.178-.456-.12-.117-.275-.214-.47-.29-.192-.08-.412-.146-.657-.204s-.494-.123-.745-.194c-.258-.064-.51-.143-.755-.237-.245-.093-.464-.214-.658-.363s-.35-.334-.47-.557c-.12-.222-.178-.492-.178-.808 0-.355.075-.663.227-.924.15-.26.35-.48.595-.653.245-.174.522-.303.832-.387.31-.083.62-.125.93-.125.36 0 .707.04 1.04.12.33.082.626.212.884.393.258.182.463.412.615.693.15.28.227.62.227 1.02h-1.47c-.014-.205-.057-.376-.13-.512s-.174-.24-.296-.318c-.123-.077-.263-.132-.42-.165-.16-.032-.332-.048-.52-.048-.122 0-.244.012-.367.038s-.234.07-.333.136c-.1.064-.183.145-.247.242s-.097.22-.097.368c0 .136.026.245.078.33.05.083.153.16.305.23.15.072.36.143.63.214.267.07.617.16 1.05.27.128.027.307.074.536.142.228.067.455.176.68.324.227.148.422.347.586.595.164.248.247.565.247.952 0 .316-.062.61-.184.88s-.306.505-.547.702c-.242.197-.542.35-.9.46-.358.11-.772.164-1.243.164-.38 0-.75-.047-1.108-.14-.358-.094-.674-.24-.948-.44-.274-.2-.492-.455-.653-.764s-.238-.677-.23-1.103h1.47c-.003.23.038.428.122.59zm6.31-3.3v.677h.018c.18-.258.398-.458.653-.6.255-.142.546-.213.875-.213.316 0 .605.062.866.184.26.123.46.34.595.648.147-.22.35-.413.604-.58.255-.168.556-.252.905-.252.263 0 .508.032.734.097.226.065.42.17.58.31.162.143.288.33.378.557.09.23.136.505.136.828v3.348h-1.374v-2.835c0-.167-.006-.326-.02-.474-.013-.148-.048-.277-.106-.387-.058-.11-.144-.196-.256-.26-.113-.065-.266-.098-.46-.098s-.35.036-.468.11c-.12.074-.213.17-.28.29-.068.12-.114.256-.136.407-.023.15-.034.305-.034.46v2.786h-1.374v-2.806c0-.148-.003-.295-.01-.44s-.034-.28-.083-.402c-.048-.122-.13-.22-.242-.295s-.28-.11-.5-.11c-.063 0-.15.014-.255.042-.106.03-.21.084-.31.165-.1.08-.186.197-.256.35-.07.15-.106.35-.106.594v2.904h-1.374V27.08h1.297zm7.468-.774v-1.132h1.374v1.132h-1.374zm1.374.774v5.002h-1.374V27.08h1.374zm3.832 0V28h-1.006v2.477c0 .232.04.387.116.464.077.078.232.117.464.117.077 0 .15-.003.223-.01.07-.006.14-.016.203-.03v1.065c-.116.02-.245.032-.387.04s-.282.01-.417.01c-.213 0-.415-.016-.604-.044-.19-.03-.36-.085-.504-.17-.145-.082-.26-.202-.343-.357-.084-.154-.126-.357-.126-.608V28h-.832v-.92h.832v-1.5h1.374v1.5h1.006zm2.03-1.906v2.603h.03c.174-.29.397-.5.668-.634.27-.132.535-.198.793-.198.368 0 .67.05.904.15s.422.24.558.416c.135.18.23.395.285.65s.083.536.083.846v3.077h-1.374v-2.825c0-.413-.064-.72-.193-.924-.13-.203-.36-.305-.688-.305-.375 0-.646.11-.813.333-.17.223-.252.588-.252 1.098v2.623h-1.374v-6.908h1.373zm5.952 5.418v1.49c0 .22-.04.42-.12.604-.082.184-.19.344-.325.48-.135.135-.295.246-.48.333-.183.086-.378.145-.584.178v-.697c.096-.02.187-.057.274-.115.087-.058.163-.127.228-.208s.113-.17.145-.27.045-.203.04-.306h-.698v-1.49h1.518zm7.382-5.418l2.583 6.908h-1.577l-.522-1.54h-2.583l-.54 1.54h-1.53l2.612-6.908h1.558zm.087 4.238l-.87-2.535h-.02l-.9 2.535h1.79zm4.615-4.238v6.908h-1.52v-6.908h1.52zm4.78 0l2.583 6.908h-1.577l-.522-1.54h-2.583l-.542 1.54h-1.528l2.612-6.908h1.558zm.087 4.238l-.872-2.535h-.02l-.9 2.535h1.79zM98.45 36.61l2.582 6.907h-1.577l-.522-1.54H96.35l-.542 1.54h-1.53l2.613-6.908h1.56zm.086 4.237l-.87-2.535h-.02l-.9 2.535h1.79zm4.257-2.332v.93h.02c.064-.156.15-.3.26-.432.11-.132.236-.245.378-.34.143-.092.294-.165.456-.217.16-.05.33-.077.503-.077.09 0 .19.015.3.047v1.277c-.065-.013-.143-.024-.233-.034s-.177-.015-.26-.015c-.252 0-.465.042-.64.126-.174.085-.314.2-.42.345-.107.145-.183.314-.228.508-.046.193-.07.403-.07.63v2.253h-1.373v-5.002h1.306zm4.676.9c-.22 0-.404.05-.553.15-.148.1-.27.23-.363.387-.094.158-.16.332-.198.522-.04.19-.058.38-.058.566 0 .18.02.365.058.552.04.187.102.356.188.508.087.152.205.276.353.373s.33.145.542.145c.328 0 .58-.092.76-.276.176-.184.288-.43.332-.74h1.326c-.09.665-.348 1.17-.774 1.52-.426.348-.97.522-1.635.522-.375 0-.72-.063-1.03-.19-.314-.124-.58-.3-.8-.526-.22-.226-.39-.495-.512-.808-.123-.313-.184-.656-.184-1.03 0-.388.056-.748.17-1.08.112-.332.278-.62.497-.86.22-.243.488-.432.804-.567s.677-.203 1.083-.203c.297 0 .582.04.856.116.274.077.52.195.735.353s.392.354.527.59.213.513.232.836h-1.345c-.088-.574-.426-.86-1.013-.86zm4.536-2.806v2.602h.03c.173-.29.396-.5.667-.634.27-.132.535-.198.793-.198.368 0 .668.05.904.15s.42.24.557.416c.135.178.23.394.285.648s.083.537.083.847v3.078h-1.374v-2.825c0-.413-.063-.72-.192-.924-.13-.204-.358-.306-.687-.306-.374 0-.645.11-.812.334-.168.223-.25.588-.25 1.098v2.622h-1.375V36.61h1.373zm4.402 1.13v-1.13h1.374v1.13h-1.374zm1.374.775v5.002h-1.374v-5.002h1.374zm3.832 0v.92h-1.006v2.476c0 .233.04.388.116.465.077.077.232.116.464.116.077 0 .15-.002.223-.01.072-.005.14-.015.204-.028v1.064c-.116.02-.245.032-.387.04s-.28.01-.416.01c-.212 0-.414-.016-.603-.044-.19-.03-.358-.085-.503-.17-.145-.082-.26-.202-.343-.357-.083-.155-.125-.358-.125-.61v-2.95h-.832v-.92h.832v-1.5h1.374v1.5h1.004zm2.128 3.803c.207.2.503.3.89.3.277 0 .516-.07.716-.208.2-.14.323-.285.368-.44h1.21c-.194.6-.49 1.03-.89 1.287s-.885.387-1.452.387c-.394 0-.75-.063-1.064-.19-.316-.124-.583-.304-.803-.536-.22-.232-.39-.51-.508-.832-.12-.322-.18-.677-.18-1.064 0-.374.06-.723.184-1.045.123-.322.297-.6.522-.837.226-.235.495-.42.808-.556.312-.135.66-.203 1.04-.203.426 0 .796.083 1.113.248.316.165.576.386.78.663.202.28.35.595.44.95.09.354.12.725.096 1.112h-3.61c.02.443.133.766.34.966zm1.553-2.632c-.164-.18-.414-.27-.75-.27-.22 0-.402.036-.547.11s-.26.166-.348.276c-.087.11-.148.226-.184.348-.035.123-.056.232-.062.33h2.235c-.066-.35-.18-.613-.345-.794zm4.92-.27c-.22 0-.403.05-.552.15-.148.1-.27.228-.363.386-.094.158-.16.332-.198.522-.04.19-.058.38-.058.566 0 .18.02.365.058.552.04.187.102.356.188.508.087.152.205.276.353.373s.33.145.542.145c.33 0 .582-.092.76-.276.177-.184.29-.43.333-.74h1.326c-.09.665-.348 1.17-.774 1.52-.426.348-.97.522-1.635.522-.374 0-.718-.063-1.03-.19-.313-.124-.58-.3-.798-.526-.22-.226-.39-.495-.513-.808-.123-.313-.184-.656-.184-1.03 0-.388.056-.748.17-1.08.112-.332.278-.62.497-.86.22-.243.487-.432.803-.567s.677-.203 1.083-.203c.297 0 .582.04.856.116.273.077.518.195.734.353s.392.354.527.59.214.513.233.836h-1.345c-.087-.574-.426-.86-1.013-.86zm5.912-.9v.918h-1.006v2.477c0 .233.04.388.117.465.077.077.232.116.464.116.078 0 .152-.002.224-.01.07-.005.14-.015.203-.028v1.064c-.116.02-.245.032-.387.04s-.28.01-.416.01c-.213 0-.415-.016-.604-.044-.19-.03-.358-.085-.503-.17-.145-.082-.26-.202-.343-.357-.084-.155-.126-.358-.126-.61v-2.95h-.832v-.92h.832v-1.5h1.374v1.5h1.005z"/></svg>
