<svg xmlns="http://www.w3.org/2000/svg" width="180%" height="100%" viewBox="0 0 180.591 103.195"><path d="M160.065 92.804h-.73v-4.367h-1.582v-.584c.834 0 1.59-.225 1.754-1.144h.56v6.094zm-4.78 0h-.73v-4.367h-1.582v-.584c.833 0 1.59-.225 1.753-1.144h.56v6.094zm-5.426-3.533c.574 0 1.004-.36 1.004-.98 0-.608-.43-.936-1.02-.936-.585 0-1.067.327-1.067.937 0 .67.48.98 1.082.98zm0 2.99c.73 0 1.245-.506 1.245-1.185 0-.662-.567-1.16-1.255-1.16-.722 0-1.29.464-1.29 1.168 0 .732.542 1.178 1.3 1.178zm-.07-5.55c1.332 0 1.848.78 1.848 1.555 0 .54-.343 1.04-.842 1.264.73.23 1.083.764 1.083 1.52 0 1.178-.895 1.856-2.02 1.856-1.17 0-2.072-.61-2.072-1.856 0-.723.387-1.28 1.065-1.52-.507-.207-.85-.714-.85-1.265 0-1.006.85-1.556 1.787-1.556zm-3.087.747h-2.458l-.326 1.754.015.02c.268-.302.723-.44 1.136-.44 1.084 0 1.97.697 1.97 2.09 0 1.03-.714 2.028-2.132 2.028-1.058 0-1.918-.646-1.943-1.745h.73c.043.627.55 1.1 1.28 1.1.698 0 1.29-.473 1.29-1.443 0-.81-.56-1.384-1.375-1.384-.464 0-.852.232-1.135.575l-.627-.032.567-3.163h3.008v.642zm-6.954 2.613h2.482v.688h-2.483v-.688zm-2.796-.8c.576 0 1.006-.36 1.006-.98 0-.608-.43-.936-1.023-.936-.584 0-1.065.327-1.065.937 0 .67.48.98 1.082.98zm0 2.99c.73 0 1.246-.506 1.246-1.185 0-.662-.566-1.16-1.255-1.16-.722 0-1.29.464-1.29 1.168 0 .732.543 1.178 1.3 1.178zm-.07-5.55c1.332 0 1.848.78 1.848 1.555 0 .54-.343 1.04-.842 1.264.73.23 1.083.764 1.083 1.52 0 1.178-.895 1.856-2.02 1.856-1.17 0-2.07-.61-2.07-1.856 0-.723.385-1.28 1.064-1.52-.507-.207-.852-.714-.852-1.265 0-1.006.853-1.556 1.79-1.556zm-4.214 4.022V87.75h-.017l-2.028 2.982h2.045zm.69 0h.824v.645h-.825v1.428h-.69v-1.428H130v-.705l2.774-3.962h.585v4.022zm-7.19.172c0 .756.466 1.357 1.264 1.357.79 0 1.23-.626 1.23-1.348 0-.757-.396-1.384-1.23-1.384-.815 0-1.263.61-1.263 1.376zm2.366-2.64c-.07-.55-.447-.91-1.023-.91-1.246 0-1.443 1.375-1.48 2.312l.02.017c.343-.56.858-.8 1.52-.8 1.168 0 1.865.852 1.865 1.978 0 .886-.5 2.047-2.037 2.047-1.804 0-2.097-1.65-2.097-2.93 0-1.678.508-3.268 2.244-3.268 1.005 0 1.633.566 1.72 1.555h-.73zm-8.856 1.06c.112.008.216.008.318.008.62 0 1.16-.336 1.16-.998 0-.635-.465-.98-1.083-.98-.8 0-1.143.61-1.15 1.325h-.73c.042-1.162.66-1.97 1.88-1.97 1.06 0 1.857.507 1.857 1.634 0 .532-.377.996-.842 1.21v.02c.738.162 1.1.747 1.1 1.478 0 1.22-.953 1.856-2.097 1.856-1.237 0-2.054-.73-2.028-1.985h.73c.025.79.464 1.34 1.298 1.34.714 0 1.323-.438 1.323-1.178 0-.764-.576-1.168-1.298-1.168-.146 0-.3.008-.438.025v-.62zm-3.594 3.48h-.73v-4.367h-1.582v-.584c.834 0 1.59-.225 1.754-1.144h.56v6.094zm-5.425-3.533c.577 0 1.007-.36 1.007-.98 0-.608-.43-.936-1.023-.936-.584 0-1.065.327-1.065.937-.002.67.48.98 1.08.98zm0 2.99c.73 0 1.247-.506 1.247-1.185 0-.662-.566-1.16-1.254-1.16-.723 0-1.29.464-1.29 1.168 0 .732.542 1.178 1.298 1.178zm-.068-5.55c1.332 0 1.848.78 1.848 1.555 0 .54-.344 1.04-.843 1.264.73.23 1.083.764 1.083 1.52 0 1.178-.893 1.856-2.02 1.856-1.168 0-2.07-.61-2.07-1.856 0-.723.387-1.28 1.064-1.52-.507-.207-.85-.714-.85-1.265 0-1.006.85-1.556 1.788-1.556zm-5.458 2.604h-.954v-.954h.954v.954zm-.954 2.535h.954v.954h-.954v-.955zm-3.42-1.385l-1.55-2.105h.94l1.065 1.556 1.107-1.556h.877l-1.53 2.046 1.72 2.398h-.938l-1.237-1.84-1.238 1.84h-.886l1.67-2.34zm-3.062.043c-.283.206-.834.215-1.324.3-.48.087-.893.258-.893.8 0 .48.413.653.86.653.963 0 1.357-.6 1.357-1.005v-.747zm1.186 2.28c-.13.076-.292.12-.524.12-.38 0-.62-.207-.62-.69-.403.474-.944.69-1.563.69-.807 0-1.47-.362-1.47-1.248 0-1.006.747-1.22 1.505-1.366.808-.155 1.496-.103 1.496-.653 0-.635-.525-.737-.99-.737-.618 0-1.073.188-1.107.842h-.73c.044-1.1.895-1.486 1.884-1.486.798 0 1.666.18 1.666 1.218v2.287c0 .344 0 .498.232.498.06 0 .13-.008.224-.043v.567zm-6.18-3.784h-.748v-.644h.748v-.66c0-.724.43-1.103 1.23-1.103.137 0 .334.026.472.068v.637c-.128-.043-.284-.06-.413-.06-.352 0-.56.11-.56.497v.62h.86v.644h-.86v3.8h-.73v-3.8zm-7.35 3.8h-.73v-4.367h-1.582v-.584c.834 0 1.59-.225 1.753-1.144h.56v6.094zm-6.646-1.9c0 .756.464 1.357 1.264 1.357.79 0 1.23-.626 1.23-1.348 0-.757-.397-1.384-1.23-1.384-.817 0-1.264.61-1.264 1.376zm2.363-2.64c-.067-.55-.445-.91-1.02-.91-1.248 0-1.445 1.375-1.48 2.312l.017.017c.344-.56.86-.8 1.52-.8 1.17 0 1.866.852 1.866 1.978 0 .886-.5 2.047-2.037 2.047-1.805 0-2.097-1.65-2.097-2.93 0-1.678.506-3.268 2.242-3.268 1.006 0 1.633.566 1.72 1.555h-.73zm-5.948 3.997c1.246 0 1.255-1.546 1.255-2.456 0-.902-.01-2.45-1.255-2.45s-1.255 1.548-1.255 2.45c0 .91.01 2.457 1.255 2.457zm0-5.55c1.908 0 2.028 1.752 2.028 3.102 0 1.342-.12 3.095-2.028 3.095s-2.028-1.753-2.028-3.095c0-1.35.12-3.103 2.028-3.103zm-6.79 2.157c-.062-1.238.67-2.157 1.958-2.157 1.066 0 1.908.618 1.908 1.753 0 1.075-.722 1.616-1.48 2.09-.764.463-1.563.85-1.71 1.605h3.13v.646h-3.98c.12-1.445.85-1.96 1.71-2.493 1.032-.635 1.556-1.014 1.556-1.855 0-.662-.533-1.1-1.177-1.1-.85 0-1.212.78-1.186 1.512h-.73zm-3.294 1.203h2.484v.688h-2.484v-.688zm-4.016.834c0 .756.464 1.357 1.263 1.357.79 0 1.23-.626 1.23-1.348 0-.757-.396-1.384-1.23-1.384-.816 0-1.263.61-1.263 1.376zm2.363-2.64c-.07-.55-.447-.91-1.022-.91-1.247 0-1.444 1.375-1.48 2.312l.018.017c.345-.56.86-.8 1.522-.8 1.168 0 1.865.852 1.865 1.978 0 .886-.5 2.047-2.037 2.047-1.805 0-2.097-1.65-2.097-2.93 0-1.678.507-3.268 2.243-3.268 1.006 0 1.633.566 1.72 1.555h-.73zm-5.425 2.468V87.75h-.017l-2.03 2.982h2.047zm.688 0h.825v.645h-.825v1.428h-.688v-1.428h-2.673v-.705l2.776-3.962h.585v4.022zm-7.188.172c0 .756.464 1.357 1.264 1.357.79 0 1.23-.626 1.23-1.348 0-.757-.396-1.384-1.23-1.384-.817 0-1.264.61-1.264 1.376zm2.364-2.64c-.07-.55-.447-.91-1.023-.91-1.245 0-1.442 1.375-1.477 2.312l.017.017c.344-.56.86-.8 1.52-.8 1.17 0 1.866.852 1.866 1.978 0 .886-.5 2.047-2.037 2.047-1.806 0-2.1-1.65-2.1-2.93 0-1.678.51-3.268 2.245-3.268 1.005 0 1.633.566 1.72 1.555h-.73zm-8.854 1.06c.11.008.215.008.317.008.62 0 1.16-.336 1.16-.998 0-.635-.463-.98-1.082-.98-.8 0-1.143.61-1.152 1.325h-.73c.043-1.162.662-1.97 1.882-1.97 1.057 0 1.856.507 1.856 1.634 0 .532-.377.996-.84 1.21v.02c.738.162 1.1.747 1.1 1.478 0 1.22-.955 1.856-2.098 1.856-1.237 0-2.054-.73-2.028-1.985h.73c.026.79.464 1.34 1.298 1.34.713 0 1.324-.438 1.324-1.178 0-.764-.576-1.168-1.298-1.168-.146 0-.3.008-.438.025v-.62zm-3.595 3.48h-.73v-4.367h-1.582v-.584c.834 0 1.59-.225 1.753-1.144h.56v6.094zM35.95 89.27c.576 0 1.006-.36 1.006-.98 0-.608-.43-.936-1.023-.936-.584 0-1.066.327-1.066.937 0 .67.482.98 1.083.98zm0 2.99c.73 0 1.247-.506 1.247-1.185 0-.662-.568-1.16-1.255-1.16-.722 0-1.29.464-1.29 1.168 0 .732.542 1.178 1.298 1.178zm-.07-5.55c1.334 0 1.85.78 1.85 1.555 0 .54-.344 1.04-.843 1.264.73.23 1.083.764 1.083 1.52 0 1.178-.894 1.856-2.02 1.856-1.17 0-2.07-.61-2.07-1.856 0-.723.386-1.28 1.064-1.52-.507-.207-.85-.714-.85-1.265 0-1.006.85-1.556 1.787-1.556zm-5.456 2.604h-.954v-.954h.954v.954zm-.954 2.535h.954v.954h-.954v-.955zm-2.03-5.184h.73v6.14h-.73v-6.14zm-1.573 3.49c-.034-.695-.56-1.254-1.28-1.254-.765 0-1.22.574-1.272 1.254h2.552zm.705 1.238c-.198.98-.902 1.513-1.9 1.513-1.417 0-2.088-.98-2.13-2.34 0-1.33.876-2.31 2.088-2.31 1.573 0 2.054 1.47 2.01 2.543h-3.325c-.026.773.413 1.46 1.383 1.46.602 0 1.023-.29 1.152-.866h.722zm-5.485-3.034h.885v.645h-.885v2.76c0 .334.095.394.55.394h.335v.645h-.558c-.757 0-1.058-.155-1.058-.973v-2.827H19.6v-.645h.756v-1.333h.73v1.333zm140.46-20.782h.92l-.137.645.017.017c.353-.49.92-.782 1.53-.782.894 0 1.298.465 1.298 1.178 0 .164-.01.396-.044.55l-.592 2.837h-.98l.568-2.742c.034-.145.07-.29.07-.41 0-.147.033-.638-.68-.638-.388 0-.69.19-.93.43-.224.232-.403.594-.48.954l-.5 2.407h-.978l.92-4.445zm-3.912 3.79c.954 0 1.272-.687 1.4-1.53l-.017-.016c-.138.137-.396.18-.61.205-.55.043-1.556.035-1.556.773 0 .43.423.568.783.568zm2.166-.636c-.033.162-.085.317-.085.438 0 .12.052.197.207.197.11 0 .23-.044.343-.052l-.154.705c-.248.06-.506.12-.764.12-.336 0-.576-.224-.594-.567-.387.387-.954.568-1.495.568-.73 0-1.384-.403-1.384-1.186 0-1.092.886-1.47 1.865-1.53.326-.018.662-.05.98-.077.353-.026.517-.25.517-.585 0-.42-.345-.533-.748-.533-.533 0-.972.145-1.11.696h-.927c.215-1.1 1.04-1.47 2.097-1.47 1.616 0 1.667.713 1.667 1.03 0 .19-.025.397-.086.67l-.327 1.576zm-4.753-4.848h.97l-.187.928h-.972l.19-.928zm-.35 1.694h.978l-.92 4.443h-.98l.92-4.442zm-2.178 1.468c.016-.55-.345-.816-.878-.816-.98 0-1.462 1.127-1.462 1.978 0 .662.26 1.16.99 1.16.575 0 .953-.345 1.116-.877h.98c-.318 1.135-1.1 1.652-2.26 1.652s-1.806-.774-1.806-1.9c0-1.496.945-2.785 2.526-2.785.988 0 1.805.55 1.77 1.59h-.977zm-4.325-3.162h.972l-.19.928h-.97l.188-.928zm-.353 1.694h.98l-.92 4.443h-.98l.92-4.442zm-4.935 0h.92l-.138.645.016.017c.354-.49.92-.782 1.53-.782.894 0 1.298.465 1.298 1.178 0 .164-.01.396-.043.55l-.592 2.837h-.98l.567-2.742c.034-.145.068-.29.068-.41 0-.147.035-.638-.68-.638-.385 0-.686.19-.927.43-.224.232-.403.594-.48.954l-.5 2.407h-.98l.92-4.445zm-4.584-1.694h.98l-.48 2.32h.016c.335-.447.9-.748 1.46-.748.895 0 1.3.465 1.3 1.178 0 .164-.01.396-.044.55l-.594 2.837h-.98l.568-2.74c.033-.147.068-.293.068-.413 0-.146.035-.637-.68-.637-.387 0-.688.19-.928.43-.224.232-.403.594-.48.954l-.5 2.407h-.978l1.27-6.136zm-2.53 3.162c.018-.55-.343-.816-.876-.816-.98 0-1.46 1.127-1.46 1.978 0 .662.257 1.16.987 1.16.576 0 .954-.345 1.117-.877h.98c-.317 1.135-1.1 1.652-2.26 1.652s-1.805-.774-1.805-1.9c0-1.496.945-2.785 2.526-2.785.99 0 1.806.55 1.772 1.59h-.978zm-4.746.362c.01-.104.01-.19.01-.274 0-.524-.354-.903-.938-.903-.73 0-1.152.49-1.35 1.18h2.277zm.714 1.238c-.308 1.03-1.082 1.496-2.14 1.496-1.125 0-1.942-.74-1.942-1.943 0-1.368.877-2.743 2.467-2.743 1.582 0 1.892 1.178 1.892 2.046 0 .215-.026.403-.052.55h-3.31c-.017.104-.017.2-.017.283 0 .61.318 1.032 1.057 1.032.525 0 .93-.257 1.066-.722h.98zm-8.586-4.762h5.054l-.198.928h-1.95l-1.083 5.21h-1.074l1.082-5.21h-2.02l.19-.928zm-3.937 6.283l2.468-6.43h.937l-2.467 6.43h-.938zm-.67-6.283h.98l-1.273 6.137h-.98l1.273-6.136zm-4.266 5.484c.956 0 1.273-.687 1.402-1.53l-.017-.016c-.14.137-.396.18-.61.205-.55.043-1.557.035-1.557.773 0 .43.422.568.783.568zm2.167-.636c-.034.162-.086.317-.086.438 0 .12.053.197.208.197.11 0 .23-.044.344-.052l-.155.705c-.25.06-.507.12-.765.12-.336 0-.576-.224-.594-.567-.387.387-.953.568-1.494.568-.73 0-1.385-.403-1.385-1.186 0-1.092.885-1.47 1.864-1.53.326-.018.662-.05.98-.077.352-.026.515-.25.515-.585 0-.42-.345-.533-.748-.533-.533 0-.972.145-1.11.696h-.927c.215-1.1 1.04-1.47 2.098-1.47 1.615 0 1.666.713 1.666 1.03 0 .19-.026.397-.086.67l-.327 1.576zm-6.825.636c1.057 0 1.52-1.048 1.52-1.976 0-.646-.3-1.162-.98-1.162-1.056 0-1.52 1.066-1.52 1.995 0 .636.284 1.143.98 1.143zm-1.444-3.79h.97l-.128.566.018.018c.31-.447.852-.705 1.4-.705 1.11 0 1.686.782 1.686 1.84 0 1.358-.74 2.846-2.277 2.846-.645 0-1.178-.182-1.453-.81h-.018l-.48 2.33h-.98l1.262-6.085zm-1.738-1.694h.972l-.19.928h-.97l.188-.928zm-.352 1.694h.98l-.92 4.443h-.98l.92-4.442zm-2.176 1.468c.017-.55-.344-.816-.877-.816-.98 0-1.46 1.127-1.46 1.978 0 .662.257 1.16.987 1.16.576 0 .954-.345 1.118-.877h.98c-.32 1.135-1.102 1.652-2.26 1.652-1.163 0-1.808-.774-1.808-1.9 0-1.496.947-2.785 2.527-2.785.988 0 1.804.55 1.77 1.59h-.978zm-7.54-1.468h.92l-.138.645.018.017c.352-.49.92-.782 1.53-.782.893 0 1.298.465 1.298 1.178 0 .164-.01.396-.044.55l-.593 2.837h-.98l.567-2.742c.034-.145.07-.29.07-.41 0-.147.032-.638-.68-.638-.388 0-.69.19-.93.43-.222.232-.403.594-.48.954l-.5 2.407h-.98l.922-4.445zm-1.72-1.694h.97l-.188.928h-.97l.188-.928zm-.352 1.694h.98l-.92 4.443h-.98l.92-4.442zm-3.18 0h.927l-.18.867.017.018c.267-.49.816-1.006 1.418-1.006.155 0 .317 0 .473.026l-.206.937c-.112-.018-.232-.034-.345-.034-1.015 0-1.444.772-1.633 1.667L91.2 72.02h-.98l.92-4.442zm-4.774 1.21h1.625c.963 0 1.212-.644 1.212-1.185 0-.344-.146-.842-1.022-.842h-1.393l-.42 2.03zm-.473-2.904h2.466c1.916 0 1.916 1.298 1.916 1.873 0 .035-.025 1.91-2.25 1.91h-1.84l-.49 2.353h-1.074l1.27-6.136zm-5.827 4.977h1.204c-.267.997-.232 2.347-1.59 2.417l.095-.5c.43-.06.61-.36.688-.756h-.654l.256-1.16zm-4.378-3.282h.92l-.137.645.018.017c.352-.49.92-.782 1.53-.782.894 0 1.298.465 1.298 1.178 0 .164-.01.396-.043.55l-.593 2.837h-.98l.567-2.742c.034-.145.07-.29.07-.41 0-.147.033-.638-.68-.638-.387 0-.688.19-.928.43-.225.232-.405.594-.482.954l-.5 2.407h-.978l.918-4.445zm-4.936 0h.92l-.137.645.017.017c.352-.49.92-.782 1.53-.782.894 0 1.298.465 1.298 1.178 0 .164-.01.396-.043.55l-.593 2.837h-.98l.568-2.742c.034-.145.07-.29.07-.41 0-.147.034-.638-.68-.638-.387 0-.688.19-.928.43-.223.232-.404.594-.48.954l-.5 2.407h-.98l.918-4.445zm-3.912 3.79c.954 0 1.272-.687 1.4-1.53l-.016-.016c-.138.137-.396.18-.61.205-.55.043-1.556.035-1.556.773 0 .43.42.568.782.568zm2.166-.636c-.035.162-.086.317-.086.438 0 .12.052.197.207.197.112 0 .232-.044.344-.052l-.154.705c-.25.06-.507.12-.765.12-.334 0-.575-.224-.592-.567-.387.387-.954.568-1.496.568-.73 0-1.384-.403-1.384-1.186 0-1.092.885-1.47 1.865-1.53.327-.018.662-.05.98-.077.352-.026.516-.25.516-.585 0-.42-.345-.533-.75-.533-.532 0-.97.145-1.107.696h-.928c.215-1.1 1.04-1.47 2.097-1.47 1.616 0 1.667.713 1.667 1.03 0 .19-.027.397-.087.67l-.327 1.576zM58.38 67.578h.927l-.13.627.018.018c.36-.465.91-.766 1.52-.766.543 0 1.024.207 1.126.79.397-.454.904-.79 1.505-.79.85 0 1.264.465 1.264 1.178 0 .164-.036.396-.07.55l-.567 2.837h-.98l.55-2.63c.018-.103.08-.31.087-.524.008-.318-.104-.637-.61-.637-.757 0-1.17.698-1.273 1.196l-.542 2.596h-.98l.508-2.44c.043-.224.13-.534.13-.8 0-.3-.13-.55-.543-.55-.378 0-.636.163-.833.353-.198.188-.438.516-.516.867l-.532 2.57h-.98l.92-4.444zm-1.772-1.694h.98l-1.273 6.137h-.98l1.273-6.136zm-4.936 0h.98l-.482 2.32h.017c.335-.447.903-.748 1.46-.748.895 0 1.3.465 1.3 1.178 0 .164-.01.396-.044.55l-.593 2.837h-.98l.568-2.74c.035-.147.07-.293.07-.413 0-.146.033-.637-.68-.637-.387 0-.688.19-.93.43-.222.232-.403.594-.48.954l-.5 2.407H50.4l1.272-6.136zM49.34 72.02h-.92l.14-.644-.018-.018c-.353.49-.92.783-1.53.783-.894 0-1.298-.464-1.298-1.177 0-.164.01-.396.043-.55l.593-2.837h.98l-.568 2.742c-.035.145-.07.29-.07.412 0 .146-.042.636.68.636.757 0 1.272-.722 1.41-1.384l.5-2.406h.98l-.922 4.445zm-8.38-6.136h1.073l-.576 2.785.018.016 3.128-2.802h1.435L43.09 68.42l1.925 3.6h-1.22l-1.54-2.93-1.082.93-.413 2h-1.074l1.273-6.136zm-5.166.362h.954l-.275 1.332h.885l-.155.73h-.885l-.456 2.174c-.043.19-.086.38-.086.482 0 .188.06.326.352.326.146 0 .335 0 .524-.043l-.163.72c-.25.063-.56.097-.81.097-.704 0-.884-.412-.884-.825 0-.173.043-.422.06-.5l.507-2.432h-.773l.155-.73h.773l.276-1.332zm-2.624 2.63c-.008-.447-.37-.646-.894-.646-.378 0-.756.13-.756.56 0 .403.688.472 1.307.704.533.197 1.03.49 1.03 1.188 0 1.03-.996 1.46-1.967 1.46-1.022 0-1.84-.335-1.856-1.547h.928c-.018.56.413.773.98.773.403 0 .936-.13.936-.636 0-.465-.73-.56-1.358-.782-.524-.188-.98-.48-.98-1.134 0-.973.92-1.36 1.83-1.36.964 0 1.755.31 1.73 1.42h-.93zm-5.407-1.298h.928l-.18.867.017.018c.267-.49.817-1.006 1.418-1.006.155 0 .318 0 .473.026l-.206.937c-.112-.018-.232-.034-.344-.034-1.014 0-1.444.772-1.633 1.667l-.413 1.97h-.98l.92-4.445zm-4.83 2.647c0 .653.31 1.143 1.022 1.143 1.005 0 1.496-1.092 1.496-1.993 0-.654-.31-1.145-1.022-1.145-1.006 0-1.496 1.11-1.496 1.995zm-.98-.026c0-1.462 1.005-2.743 2.535-2.743 1.22 0 1.942.67 1.942 1.908 0 1.556-.954 2.777-2.535 2.777-1.22 0-1.942-.705-1.942-1.943zm-5.092-4.316h1.075l-.507 2.44h2.87l.508-2.44h1.074l-1.272 6.137h-1.074l.576-2.767h-2.87l-.576 2.768H15.59l1.27-6.136zM71.757 21.054v10.124c0 1.023-.402 3.875 1.315 3.875 1.39 0 1.28-1.828 1.28-2.74l.036-11.258h5.117v11.77c0 4.275-2.01 7.053-6.58 7.053-5.847 0-6.322-4.386-6.322-7.75V21.055h5.154zm10.3-10.625V39.51h5.154V28c0-.915.22-2.12 1.39-2.12 1.646 0 1.28 2.557 1.28 3.507v10.125h5.153V27.597c0-2.668.328-6.908-3.473-6.908-2.01 0-3.582 1.46-4.276 3.215h-.074V10.43h-5.152zm15.49 0V39.51h5.154V10.43H97.55zm12.828 10.624h-5.154v18.458h5.155V28.035c0-.95.183-2.12 1.462-2.12 1.462 0 1.206 2.34 1.206 3.253V39.51h5.153V27.926c0-.84.184-2.083 1.39-2.083 1.535 0 1.28 2.705 1.28 3.655v10.015h5.15V26.756c0-2.376 0-6.067-3.325-6.067-1.972 0-3.58 1.498-4.42 3.142h-.074c-.255-1.68-1.28-3.143-3.18-3.143-2.192 0-3.655 1.534-4.532 3.325h-.073l-.035-2.96zm26.715 9.137c0-1.022-.11-4.933-1.865-4.933-1.718 0-1.828 3.875-1.828 4.934 0 1.17.074 4.972 1.9 4.972 1.646 0 1.793-3.984 1.793-4.97zm-.367 7.24h-.072c-.694 1.388-1.753 2.448-3.4 2.448-4.165 0-5.006-6.652-5.006-9.613 0-3.18.622-9.576 4.935-9.576 1.718 0 2.887 1.132 3.472 2.63h.072v-2.265h5.154v18.458h-5.154V37.43zm12.824-16.376h-5.153v18.458h5.153V28c0-.915.22-2.12 1.39-2.12 1.644 0 1.278 2.557 1.278 3.507v10.125h5.152V27.597c0-2.668.33-6.908-3.472-6.908-2.01 0-3.58 1.46-4.276 3.215h-.073v-2.85zm15.49 0h-5.153v18.458h5.153V28c0-.915.22-2.12 1.39-2.12 1.645 0 1.28 2.557 1.28 3.507v10.125h5.152V27.597c0-2.668.328-6.908-3.474-6.908-2.01 0-3.58 1.46-4.276 3.215h-.073v-2.85zM66.945 49.93h1.576v-3.09h2.9v3.09h1.575v-7.163H71.42v2.75h-2.9v-2.75h-1.575v7.163zm7.658 0h5.438v-1.325h-3.86V46.85h3.47v-1.224h-3.47V44.09h3.78v-1.323h-5.356v7.163zm8.53-2.77h1.855l-.903-2.627h-.02l-.933 2.628zm.15-4.393h1.615l2.68 7.163h-1.636l-.542-1.596h-2.68l-.56 1.596h-1.597l2.72-7.163zm6.722 7.163h1.576v-5.84h2.147v-1.323h-5.87v1.324h2.147v5.84zm4.765 0h1.576v-7.163H94.77v7.163zm3.183 0h1.476v-4.796h.02l2.978 4.796h1.575v-7.163h-1.475v4.805h-.02l-2.99-4.805h-1.565v7.163zm12.995 0h1.002v-3.873h-3.01v1.173h1.586c-.09.994-.682 1.545-1.706 1.545-1.415 0-1.946-1.204-1.946-2.398 0-1.254.53-2.458 1.946-2.458.743 0 1.335.41 1.516 1.203h1.504c-.17-1.625-1.554-2.528-3.02-2.528-2.216 0-3.52 1.655-3.52 3.782 0 2.067 1.304 3.722 3.52 3.722.692 0 1.415-.272 1.968-.984l.16.814zm7.27-3.16c-.5.22-1.003.602-1.003 1.184 0 .522.482.943 1.024.943.51 0 .87-.26 1.203-.632l-1.224-1.495zm.503-3.13c-.34 0-.642.26-.642.632 0 .452.29.743.562 1.074.4-.26.73-.502.73-1.023.003-.372-.298-.683-.65-.683zm1.476 5.578c-.572.562-1.204.853-2.018.853-1.293 0-2.316-.792-2.316-2.146 0-1.003.763-1.686 1.605-2.077-.382-.472-.683-.903-.683-1.525 0-.993.913-1.635 1.866-1.635 1.084 0 1.966.582 1.966 1.715 0 .833-.552 1.405-1.273 1.786l.923 1.134c.14-.26.22-.562.262-.853h1.232c-.07.64-.29 1.263-.69 1.765l1.454 1.695h-1.746l-.582-.712zm12.22-4.043c-.192-1.656-1.517-2.58-3.09-2.58-2.22 0-3.522 1.656-3.522 3.783 0 2.067 1.304 3.722 3.52 3.722 1.757 0 2.99-1.144 3.15-2.93h-1.524c-.12.943-.662 1.605-1.625 1.605-1.416 0-1.947-1.204-1.947-2.398 0-1.254.53-2.458 1.947-2.458.78 0 1.465.54 1.564 1.253h1.525zm4.565 3.6c1.415 0 1.947-1.203 1.947-2.397 0-1.254-.532-2.458-1.946-2.458s-1.945 1.204-1.945 2.458c0 1.194.532 2.398 1.946 2.398zm0-6.18c2.218 0 3.522 1.656 3.522 3.783 0 2.067-1.305 3.722-3.52 3.722s-3.522-1.655-3.522-3.722c0-2.127 1.304-3.782 3.52-3.782zm8.027 6.18c1.415 0 1.947-1.203 1.947-2.397 0-1.254-.532-2.458-1.947-2.458-1.414 0-1.945 1.204-1.945 2.458 0 1.194.53 2.398 1.945 2.398zm0-6.18c2.218 0 3.522 1.656 3.522 3.783 0 2.067-1.306 3.722-3.523 3.722s-3.52-1.655-3.52-3.722c0-2.127 1.304-3.782 3.52-3.782zm4.817 7.335h5.067v-1.325h-3.49v-5.838h-1.576v7.163zm6.17 0h1.575v-7.163h-1.575v7.163zm3.182 0h1.475v-4.796h.02l2.98 4.796h1.575v-7.163h-1.475v4.805h-.02l-2.99-4.805h-1.564v7.163zm12.994 0h1.004v-3.873h-3.01v1.173h1.584c-.09.994-.682 1.545-1.705 1.545-1.415 0-1.946-1.204-1.946-2.398 0-1.254.53-2.458 1.946-2.458.742 0 1.334.41 1.516 1.203h1.503c-.17-1.625-1.555-2.528-3.02-2.528-2.217 0-3.52 1.655-3.52 3.782 0 2.067 1.304 3.722 3.52 3.722.69 0 1.415-.272 1.967-.984l.16.814zm-81.874 1.667"/><path fill="#F40011" d="M20.345 39.54c1.304 1.303 2.08 3.103 2.08 5.093 0 3.98-3.224 7.204-7.203 7.204-3.98 0-7.204-3.226-7.204-7.204 0-1.99.807-3.79 2.11-5.094V10.357h10.217v9.83h6.5v-9.83h10.218v29.18H26.846V29.4h-6.5v10.14z"/><path fill="#0095D3" d="M37.063 39.54h10.333l-.232-12.23h.232c.232 1.2 1.16 2.283 1.78 3.405l5.03 8.824h12.36L56.417 24.56 66.568 10.36H55.05l-6.183 9.364c-.58 1.045-1.24 2.09-1.47 3.29h-.233l.232-12.655H37.063v29.18z"/></svg>
