<svg xmlns="http://www.w3.org/2000/svg" width="100%" height="100%" viewBox="0 0 126 136"><path d="M5.31 121.062h.887l1.772 4.033 1.737-4.033h.887v6.188h-.94v-3.86H9.64l-1.295 2.974H7.56l-1.294-2.973h-.018v3.86H5.31v-6.188zm8.82 4.64c0 .688-.252.766-.99.766-.6 0-.835-.26-.835-.557 0-.32.243-.53.765-.53h1.06v.322zm0 1.548h.886v-3.008c0-1.086-.747-1.45-1.833-1.45-.66 0-1.147.173-1.486.643l.695.53c.156-.252.374-.34.834-.34.635 0 .904.148.904.565v.46h-1.226c-.947 0-1.435.6-1.435 1.305 0 .765.573 1.347 1.556 1.347.6 0 .903-.14 1.086-.443h.018v.39zm3.798-3.572c.826 0 .87.73.87 1.364 0 .644-.044 1.373-.87 1.373-.834 0-.878-.687-.878-1.373 0-.678.044-1.364.878-1.364zm.87 3.572h.886v-6.188h-.887v2.25c-.33-.31-.687-.52-1.14-.52-.538 0-.93.243-1.18.574-.244.312-.313.6-.313 1.677 0 1.087.07 1.373.312 1.687.252.33.643.573 1.182.573.452 0 .86-.21 1.14-.513v.46zm2.544-2.6c.018-.67.41-1.024.93-1.024.522 0 .904.355.93 1.025h-1.86zm2.747.73v-.728c0-1.14-.845-1.86-1.818-1.86-.852 0-1.816.557-1.816 2.27 0 1.807 1.052 2.24 1.956 2.24.59 0 1.155-.208 1.59-.712l-.643-.547c-.262.27-.627.426-.966.426-.608 0-1.052-.366-1.052-1.088h2.747zm4.77-1.702c.834 0 .878.687.878 1.364 0 .687-.044 1.373-.878 1.373-.826 0-.87-.73-.87-1.373 0-.634.044-1.364.87-1.364zm-1.756 3.572h.887v-.46c.28.303.688.512 1.14.512.538 0 .93-.243 1.182-.573.243-.314.312-.6.312-1.688 0-1.077-.07-1.364-.312-1.677-.252-.33-.644-.574-1.182-.574-.452 0-.81.21-1.14.522v-2.25h-.886v6.188zm5.458-.174l-.244.738c-.087.26-.304.383-.53.383h-.26v.834h.295c.54 0 1-.19 1.243-.868l1.895-5.318h-.937l-1.043 3.085h-.018l-1.043-3.086h-.94l1.582 4.232zm6.012-5.128h1.355c.27 0 .46.035.67.174.233.156.398.408.398.826 0 .486-.34 1-1.034 1h-1.39v-2zm-.938 5.302h.938v-2.416H40c1.27 0 1.938-.982 1.938-1.86 0-.67-.295-1.19-.67-1.478-.477-.373-.903-.435-1.39-.435h-2.242v6.19zm5.588-2.6c.018-.67.41-1.024.93-1.024s.904.355.93 1.025h-1.86zm2.747.73v-.728c0-1.14-.843-1.86-1.815-1.86-.853 0-1.816.557-1.816 2.27 0 1.807 1.05 2.24 1.954 2.24.59 0 1.156-.208 1.59-.712l-.643-.547c-.26.27-.625.426-.964.426-.608 0-1.052-.366-1.052-1.088h2.747zm3.46-.33c0 .636-.052.81-.218 1.044-.13.183-.408.32-.712.32-.305 0-.583-.138-.713-.32-.165-.234-.217-.408-.217-1.052 0-.634.052-.808.217-1.043.13-.184.408-.322.713-.322.304 0 .582.14.712.32.166.236.218.41.218 1.053zm-2.746-.008c0 .956.14 1.32.478 1.695.243.27.652.564 1.34.564s1.094-.295 1.337-.563c.338-.374.478-.74.478-1.695 0-.947-.14-1.312-.48-1.686-.242-.27-.65-.565-1.337-.565s-1.095.297-1.338.566c-.34.373-.478.74-.478 1.686zm6.318 1.373c-.825 0-.87-.73-.87-1.364 0-.642.045-1.372.87-1.372.834 0 .878.687.878 1.373 0 .68-.044 1.365-.878 1.365zm-1.756 2.616h.887v-2.25c.33.312.687.52 1.14.52.538 0 .93-.242 1.18-.572.244-.313.314-.6.314-1.678 0-1.086-.07-1.373-.313-1.686-.252-.33-.643-.574-1.182-.574-.452 0-.86.21-1.14.513v-.46h-.886v6.188zm4.51-2.85c0 .792.486 1.07 1.13 1.07h.39v-.835h-.303c-.218 0-.33-.104-.33-.304v-5.05h-.887v5.12zm2.91-1.53c.017-.67.408-1.024.93-1.024s.903.355.93 1.025h-1.86zm2.746.73v-.728c0-1.14-.843-1.86-1.816-1.86-.852 0-1.816.557-1.816 2.27 0 1.807 1.052 2.24 1.955 2.24.59 0 1.156-.208 1.59-.712l-.643-.547c-.26.27-.626.426-.965.426-.608 0-1.05-.366-1.05-1.088h2.745zm6.51 1.87h.782l1.408-4.406h-.938l-.844 3.085h-.018l-.998-3.086h-.644l-1 3.085h-.016l-.844-3.086h-.938l1.407 4.406h.782l.922-3.086H67l.922 3.086zm2.807-5.302h.886v-.887h-.887v.888zm0 5.302h.886v-4.406h-.887v4.406zm2.112-4.406H72.4v.678h.442v2.642c0 .695.45 1.087 1.068 1.087h.46v-.834h-.33c-.217 0-.312-.087-.312-.33v-2.563h.644v-.678h-.644v-1.34h-.886v1.34zm2.36 4.406h.888v-2.625c0-.6.374-.947.88-.947.493 0 .867.348.867.947v2.625h.887v-2.93c0-1-.782-1.53-1.47-1.53-.47 0-.868.175-1.146.522h-.018v-2.25h-.887v6.188zm7.77-5.302h1.122c.504 0 .817.13 1.104.52.252.34.278.61.278 1.722 0 1.147-.026 1.32-.234 1.634-.243.356-.617.54-1.147.54h-1.12v-4.416zm-.938 5.302h2.104c.92 0 1.563-.452 1.93-1.025.277-.435.347-.68.347-2.07 0-1.294-.025-1.528-.33-2.05-.4-.678-1.068-1.043-1.886-1.043h-2.165v6.188zm5.423-5.302h.887v-.887h-.887v.888zm0 5.302h.887v-4.406h-.887v4.406zm1.572-.74c.564.53 1.226.792 1.937.792 1.025 0 1.825-.495 1.825-1.355 0-.704-.365-1.26-1.277-1.32l-.73-.053c-.443-.035-.582-.227-.582-.418 0-.304.19-.53.756-.53.478 0 .833.166 1.18.41l.55-.645c-.436-.363-.957-.6-1.73-.6-.93 0-1.643.462-1.643 1.357 0 .756.54 1.19 1.27 1.25l.78.07c.306.026.54.122.54.435 0 .374-.365.565-.87.565-.59 0-1.007-.19-1.39-.565l-.618.61zm6.97-.808c0 .688-.252.766-.99.766-.6 0-.834-.26-.834-.557 0-.32.242-.53.764-.53H96v.322zm0 1.548h.887v-3.008c0-1.086-.748-1.45-1.834-1.45-.66 0-1.146.173-1.486.643l.695.53c.156-.252.374-.34.834-.34.635 0 .904.148.904.565v.46h-1.225c-.948 0-1.435.6-1.435 1.305 0 .765.573 1.347 1.556 1.347.6 0 .904-.14 1.086-.443H96v.39zm3.79-3.572c.834 0 .878.687.878 1.364 0 .687-.044 1.373-.88 1.373-.824 0-.867-.73-.867-1.373 0-.634.044-1.364.87-1.364zm-1.756 3.572h.887v-.46c.28.303.688.512 1.14.512.538 0 .93-.243 1.182-.573.243-.314.312-.6.312-1.688 0-1.077-.07-1.364-.312-1.677-.252-.33-.644-.574-1.183-.574-.452 0-.81.21-1.14.522v-2.25h-.886v6.188zm4.535-5.302h.886v-.887h-.887v.888zm0 5.302h.886v-4.406h-.887v4.406zm2.06-1.07c0 .792.486 1.07 1.13 1.07h.39v-.835h-.304c-.217 0-.33-.104-.33-.304v-5.05h-.887v5.12zm2.266-4.232h.887v-.887h-.887v.888zm0 5.302h.887v-4.406h-.887v4.406zm2.112-4.406h-.443v.678h.443v2.642c0 .695.453 1.087 1.07 1.087h.46v-.834h-.33c-.218 0-.313-.087-.313-.33v-2.563h.643v-.678h-.643v-1.34h-.887v1.34zm2.388-.896h.887v-.887h-.887v.888zm0 5.302h.887v-4.406h-.887v4.406zm2.73-2.6c.017-.67.408-1.024.93-1.024s.904.355.93 1.025h-1.86zm2.747.73v-.728c0-1.14-.844-1.86-1.816-1.86-.853 0-1.817.557-1.817 2.27 0 1.807 1.052 2.24 1.956 2.24.59 0 1.156-.208 1.59-.712l-.643-.547c-.262.27-.626.426-.965.426-.608 0-1.052-.366-1.052-1.088h2.747zm.443 1.13c.564.53 1.225.792 1.938.792 1.025 0 1.825-.495 1.825-1.355 0-.704-.365-1.26-1.28-1.32l-.728-.053c-.442-.035-.582-.227-.582-.418 0-.304.19-.53.757-.53.477 0 .834.166 1.182.41l.546-.645c-.435-.363-.955-.6-1.73-.6-.93 0-1.643.462-1.643 1.357 0 .756.54 1.19 1.27 1.25l.782.07c.304.026.54.122.54.435 0 .374-.366.565-.87.565-.592 0-1.01-.19-1.39-.565l-.62.61zM107.36 90.637h-.2c-.548-.76-1.752-1.95-1.752-3.293 0-1.248 1.357-2.32 2.23-3.042 1.62.14 2.897 1.504 2.897 3.16 0 1.75-1.424 3.175-3.174 3.175zm2.958 4.988c0 1.75-1.424 3.174-3.174 3.174h-.232c-.486-.757-1.613-1.94-1.613-3.28 0-1.28 1.063-2.38 1.608-3.104.076.02.153.035.236.035 1.75 0 3.174 1.424 3.174 3.175zm-7.516 11.337h-.015c-.323-.73-.922-1.742-.922-2.883 0-1.348.8-2.63.998-3.464 1.722.033 3.113 1.44 3.113 3.17 0 1.75-1.424 3.176-3.174 3.176zm-.904-7.3h-.004.004zm-.37-8.035c-.43.257-.986.115-1.243-.314-.084-.142-.258-.36-.44-.59-.668-.834-1.58-1.976-1.58-3.38 0-.5.406-.905.907-.905s.906.405.906.906c0 .768.656 1.588 1.182 2.246.234.293.437.546.584.794.257.43.115.987-.315 1.243zm-.487 8.336c-.464.186-.99-.04-1.177-.507-.047-.115-.262-.408-.434-.643-.6-.816-1.42-1.935-1.42-3.293 0-.5.405-.906.905-.906.502 0 .908.406.908.906 0 .765.592 1.57 1.067 2.22.28.383.524.713.656 1.045.188.465-.04.992-.505 1.178zm-1.508 7c-.003-.01-.007-.017-.01-.023-.347-.725-.818-1.716-.818-2.86 0-.5.405-.906.907-.906.5 0 .907.405.907.906 0 .734.34 1.45.642 2.08.136.287.257.55.346.803h-1.974zm-2.315-15.336c-.43.257-.988.115-1.244-.314-.084-.142-.258-.36-.442-.59-.665-.834-1.577-1.976-1.577-3.38 0-.5.405-.905.907-.905.5 0 .906.405.906.906 0 .768.655 1.588 1.182 2.246.234.293.436.546.584.794.255.43.114.987-.315 1.243zm-.176 8.336c-.465.186-.993-.04-1.178-.507-.046-.115-.26-.408-.434-.643-.6-.816-1.42-1.935-1.42-3.293 0-.5.405-.906.907-.906.5 0 .906.406.906.906 0 .765.593 1.57 1.07 2.22.28.383.523.713.655 1.045.187.465-.04.992-.504 1.178zm-2.144 7l-.01-.023c-.346-.725-.818-1.716-.818-2.86 0-.5.406-.906.907-.906s.907.405.907.906c0 .734.34 1.45.64 2.08.138.287.26.55.347.803h-1.974zm-1.857-7c-.466.186-.993-.04-1.18-.507-.046-.115-.26-.408-.433-.643-.6-.816-1.42-1.935-1.42-3.293 0-.5.406-.906.906-.906.502 0 .908.406.908.906 0 .765.593 1.57 1.068 2.22.28.383.524.713.656 1.045.187.465-.04.992-.505 1.178zm-2.78 7c-.002-.01-.006-.017-.01-.023-.345-.725-.816-1.716-.816-2.86 0-.5.405-.906.906-.906s.907.405.907.906c0 .734.34 1.45.642 2.08.136.287.256.55.345.803H90.26zm-1.22-7c-.467.186-.995-.04-1.18-.507-.046-.115-.26-.408-.434-.643-.6-.816-1.42-1.935-1.42-3.293 0-.5.405-.906.907-.906.5 0 .906.406.906.906 0 .765.59 1.57 1.067 2.22.28.383.524.713.656 1.045.187.465-.04.992-.504 1.178zm-3.415 7c-.003-.01-.007-.017-.01-.023-.346-.725-.818-1.716-.818-2.86 0-.5.406-.906.908-.906.5 0 .906.405.906.906 0 .734.342 1.45.642 2.08.137.287.258.55.347.803h-1.975zm-8.516-7.318c-2.085 3.01-7.372 5.914-10.404 1.282-1.732-2.646-3.278-8.693-1.425-17.957 1.854-9.263 11.59-3.102 12.257-1.14s2.138 14.108-.428 17.815zm-27.045 3.188v-21.55c.262-.26.537-.497.826-.713l.023-.016c.12-.09.245-.174.37-.256l.09-.06c.112-.07.226-.135.34-.198l.184-.1c.1-.052.2-.1.303-.147l.216-.096c.1-.043.202-.084.306-.122.064-.024.128-.047.19-.068.123-.042.246-.082.37-.118l.113-.032c.164-.044.33-.085.5-.12l2.68-.105c.025 0 .05-.007.074-.01l2.195 24.318c-.943-.064-7.474-.516-8.78-.607zm-1.814.855c0 1.75-1.423 3.175-3.173 3.175s-3.175-1.424-3.175-3.175V84.63c0-.5-.405-.907-.906-.907s-.907.406-.907.907V104.608c0 1.75-1.425 3.175-3.176 3.175-1.75 0-3.174-1.425-3.174-3.175v-.217 0-17.494c0-.5-.406-.906-.907-.906s-.907.405-.907.906v17.493c0 1.75-1.424 3.174-3.174 3.174s-3.175-1.424-3.175-3.175V85.536c0-.502-.406-.907-.906-.907s-.906.405-.906.906v14.512c0 1.75-1.424 3.174-3.175 3.174-1.75 0-3.175-1.424-3.175-3.174V81.323c0-.14-.033-.28-.097-.406-1.14-2.273-1.718-4.99-1.718-8.078 0-5.69 1.927-11.73 5.154-16.16.098-.133.157-.292.17-.458l2.112-25.498c1.02.423 2.33.973 3.78 1.597.117.052.236.104.356.155l.115.05c3.587 1.554 7.953 3.54 10.847 5.178-.1.3-.16.488-.18.55l-.2.633.544.382c.09.063.187.126.285.188.028.018.057.034.084.052.082.05.167.1.253.15.022.01.043.023.064.035.105.06.215.117.326.175.03.016.062.03.093.047.09.045.18.09.272.134l.095.044c.12.056.238.11.36.164.02.01.044.02.065.028l.32.137.102.04c.263.108.53.212.798.31.02.01.04.016.062.023 1.174.43 2.353.775 3.188 1l.576 12.035c.012.23.11.45.276.61 3.758 3.63 10.776 12.837 10.776 18.687 0 .762-.303 2.81-.516 4.134-1.428-.038-4.28.214-6.73 2.464l-.037.033c-.177.163-.35.335-.52.52-.156.167-.243.388-.243.615v22.796zm-36.56-74.58c-.056.057-.102.115-.15.174l-.04.01-.208.31-.058.097-.032.052c-.316.535-.44 1.067-.475 1.505l-.005.06c-.005.07-.008.14-.008.206l-.002.046c0 .222.02.42.053.583l.022.104v.002l.013.05.02.05c.1.27.195.536.288.8.035.103.067.2.103.3.054.155.107.312.158.465l.12.377.11.352c.043.142.085.28.125.418l.076.266.126.456.03.118c.146.56.267 1.074.36 1.545.005.018.01.035.012.053.267 1.33.348 2.31.363 2.95-2.386-.89-4.834-5.24-5.664-7.593-.196-.557-.305-1.247-.305-2.004 0-2.13.86-4.782 3.018-6.43 3.7-1.22 13.136 1.202 16.53 2.26l14.034 5.317c-.508 1.198-.94 2.3-1.304 3.275-.09.237-.174.464-.252.68-2.9-1.615-7.012-3.49-10.55-5.025l-.227-.1c-.102-.042-.2-.085-.3-.13-.143-.06-.282-.12-.42-.18l-.03-.012c-3.09-1.326-5.48-2.284-5.7-2.373l-.077-.03-.08-.017c-4.842-.974-8.096-.635-9.674 1.01zm2.552 8.77c-.233-1.37-.655-3.115-1.4-5.252l-.052-.144c-.078-.22-.157-.443-.242-.673 0-.007-.002-.016-.004-.024 0-.005 0-.007-.002-.013v-.007c-.007-.046-.014-.114-.014-.212v-.007c0-.172.052-.404.146-.646l.528-.106c1.312 3.73 1.588 6.163 1.617 7.374-.187-.07-.382-.174-.578-.29zm2.81-16.126c12.257-.314 26.22-.102 26.358-.1l.228.004.202-.104c.948-.488 1.95-.904 2.987-1.26-1.196 1.57-2.29 3.303-3.27 5.055-10.665-1.27-15.804-.628-16.936-.444-1.244-.38-7.347-2.172-12.422-2.545 1.484-.423 2.672-.583 2.855-.606zm41.622-4.126l-.097.14C56.35 20.647 49.91 29.34 46.32 37.915c-.06.14-.12.28-.177.42l-.06.152c-.205.505-.4 1.008-.58 1.507l-.05.132-.2-.053c-1.28-.345-3.776-1.08-5.34-1.947.04-.125.084-.25.117-.35 1.21-3.46 5.522-14.842 11.437-19.825 1.465-.473 4.94-1.223 7.207-.326zm1.28-6.947c.89-1.72 1.4-1.884 1.44-1.893.426.138 1.165 2.005 1.45 4.137l.007.056.015.054c.533 2.044 1.68 4.94 1.797 5.236 1.41 4.852 4.02 5.7 4.653 5.29.06.147.987 3.602.987 5.037 0 4.518-2.137 8.11-2.73 9.02-4.582 1.587-6.3-1.54-6.37-1.676l-.558-1.06-.873.817c-3.032 2.872-8.68 4.17-9.408 4.328-.817.007-1.754-.11-2.792-.348 1.917-4.913 4.964-10.037 7.63-14.056.01-.012.018-.024.026-.037l.297-.445c1.672-2.49 3.175-4.53 4.14-5.8L61 19.58l.322-.683c.312-.787.433-1.546.433-2.252 0-2.113-1.085-3.743-1.45-4.233-.303-.883-.352-1.47-.352-1.718v-.018zM74.172 20l.096.005.102-.014c.89-.134 1.795-.24 2.695-.35v21.02c-.016.135-.036.263-.06.387l-.022.115c-.016.08-.032.154-.05.228l-.034.134c-.02.07-.043.138-.065.203-.023.07-.048.135-.073.195-.014.033-.027.066-.042.098-.02.05-.045.098-.068.14l-.018.032c-.048.085-.096.16-.146.225-.02.03-.045.057-.068.084-.03.034-.06.065-.09.095-.042.04-.084.075-.13.107-.01.007-.02.015-.032.02-.06.04-.123.074-.188.1-.065.026-.137.044-.21.06-.248-.047-1.61-.295-1.785-.327-1.213-.51-2.332-1.393-2.613-1.622l-.068-.058-.865-.74c-.79-.79-1.138-1.315-1.28-1.618 1.127-1.73 5.11-8.744 1.51-16.464 1.26-2.156 3.41-2.06 3.502-2.054zM46.64 42.277l.26-.782.037-.105c1.31.315 2.5.468 3.542.448h.08l.08-.018c.256-.05 5.91-1.212 9.604-4.14 1.036 1.198 3.363 3.012 7.388 1.83.396.724 1.094 1.54 2.106 2.47-.202 1.508-.717 5.446-.717 6.517 0 5.754 5.614 13.68 9.48 18.033-1.008-.14-2.048-.264-2.62-.264-5.754 0-13.68 5.613-18.033 9.478.142-1.007.265-2.047.265-2.618 0-6.615-7.42-16.104-11.07-19.73-.026-.53-.39-8.15-.535-11.148l.133.03zM41.043 30.35l-10.387-3.936c2.58-.066 6.502.026 11.977.65-.58 1.12-1.11 2.226-1.59 3.286zm41.01-15.59c1.75 0 3.175 1.424 3.175 3.174v19.06c0 .5.407.907.907.907s.907-.405.907-.906v-19.98c0-1.75 1.424-3.173 3.175-3.173 1.75 0 3.174 1.425 3.174 3.175v17.711c0 .5.407.907.907.907.502 0 .907-.406.907-.907V17.232c0-1.75 1.425-3.175 3.175-3.175s3.173 1.425 3.173 3.175v18.853c0 .502.406.908.907.908s.907-.406.907-.907v-14.51c0-1.752 1.424-3.176 3.174-3.176s3.176 1.424 3.176 3.175V40.3c0 .14.032.28.097.405 1.14 2.274 1.717 4.992 1.717 8.078 0 5.69-1.926 11.73-5.154 16.158-.1.14-.16.302-.172.473l-.616 8.897h-21.55c-.254-.256-.486-.526-.7-.81l-.063-.09c-.074-.102-.146-.207-.217-.313l-.098-.157c-.055-.088-.107-.177-.158-.268-.03-.058-.064-.116-.096-.174-.062-.12-.12-.24-.176-.362-.014-.03-.03-.06-.042-.09-.065-.148-.126-.3-.183-.453l-.023-.068c-.118-.335-.215-.683-.288-1.043l-.106-2.683c0-.023-.006-.044-.01-.066-.002-.025-.004-.05-.01-.076-.006-.03-.015-.06-.024-.09l-.02-.065c-.013-.03-.027-.06-.042-.087-.01-.02-.02-.04-.032-.058-.018-.026-.035-.053-.055-.077-.015-.02-.03-.037-.047-.056-.013-.013-.023-.028-.035-.04-3.758-3.63-10.777-12.84-10.777-18.688 0-.728.322-3.37.57-5.287.537.354 1.2.738 1.91 1.03.02.01.037.018.055.025l.09.035.01.002c.727.282 1.497.46 2.236.408l.026.005.134-.016c.022-.004.046-.01.07-.012s.046-.007.07-.01c.092-.016.186-.034.28-.058l.023-.005c.102-.027.205-.062.31-.1.005-.003.01-.004.016-.006l.03-.015c.062-.024.126-.053.19-.083l.023-.012c.065-.033.13-.068.196-.106.006-.004.012-.01.02-.013.062-.037.126-.078.188-.123.006-.004.01-.01.018-.014.104-.076.205-.162.304-.257l.06-.056.075-.084c.04-.044.08-.088.12-.136l.064-.083c.042-.056.084-.113.123-.173.018-.025.034-.05.05-.076.054-.083.105-.168.15-.258l.013-.02c.055-.105.105-.214.153-.326l.022-.056c.04-.1.078-.2.114-.305l.025-.077c.04-.128.08-.26.115-.396l.002-.014c.033-.133.062-.27.09-.413l.02-.11c.026-.152.05-.308.07-.47l.006-.054V17.934c0-1.75 1.425-3.176 3.175-3.176zm23.276 68.578h-.15c.055 0 .102-.002.15-.004v.004zm-.732 7.974c-.084-.142-.258-.36-.44-.59-.667-.834-1.58-1.976-1.58-3.38 0-.5.406-.905.907-.905s.907.405.907.906c0 .768.655 1.588 1.182 2.246.233.292.437.545.583.793.257.43.115.987-.314 1.243-.43.258-.99.116-1.245-.314zm-1.68 3.302c.5 0 .906.406.906.906 0 .765.593 1.57 1.068 2.22.28.383.524.713.656 1.045l.004.014h-2.133c-.6-.816-1.41-1.93-1.41-3.28 0-.5.406-.906.908-.906zm-.473-16.463c.5 0 .906.407.906.908 0 .763.605 1.6 1.09 2.274.21.29.407.564.548.82.24.44.08.99-.36 1.232-.438.24-.99.08-1.23-.36-.087-.158-.253-.39-.428-.633-.604-.837-1.432-1.984-1.432-3.333 0-.5.406-.906.907-.906zm-17.364.91c0-.502.406-.908.908-.908.5 0 .906.406.906.907 0 .762.604 1.6 1.09 2.273.21.29.406.564.547.82.24.44.08.99-.358 1.232-.44.24-.99.08-1.23-.36-.088-.158-.254-.39-.43-.633-.604-.837-1.43-1.985-1.43-3.333zm1.153 7.378c.5 0 .907.405.907.906 0 .768.655 1.588 1.182 2.246.234.293.436.546.584.794.256.43.115.987-.316 1.243-.43.257-.986.115-1.242-.314-.084-.142-.258-.36-.442-.59-.667-.834-1.58-1.976-1.58-3.38 0-.5.406-.905.907-.905zm7.077-7.38c0-.5.405-.906.907-.906.5 0 .906.406.906.907 0 .762.604 1.6 1.09 2.273.21.29.406.564.547.82.24.44.08.99-.36 1.232-.438.24-.99.08-1.23-.36-.087-.158-.253-.39-.43-.633-.603-.837-1.43-1.985-1.43-3.333zm-4.115 0c0-.5.406-.906.906-.906.503 0 .91.406.91.907 0 .762.603 1.6 1.087 2.273.21.29.408.564.55.82.24.44.077.99-.36 1.232-.44.24-.992.08-1.232-.36-.086-.158-.252-.39-.43-.633-.603-.837-1.43-1.985-1.43-3.333zm1.352 7.38c.5 0 .906.405.906.906 0 .768.655 1.588 1.182 2.246.234.293.436.546.584.794.255.43.114.987-.315 1.243-.432.257-.988.115-1.244-.314-.083-.142-.257-.36-.44-.59-.668-.834-1.58-1.976-1.58-3.38 0-.5.405-.905.907-.905zm9.968-3.052c-.44.24-.99.08-1.23-.36-.087-.158-.253-.39-.43-.633-.603-.838-1.43-1.985-1.43-3.334 0-.502.405-.908.906-.908s.908.406.908.907c0 .762.604 1.6 1.09 2.273.208.29.406.564.547.82.24.44.08.992-.36 1.233zm8.89-4.087c0 1.75-1.423 3.174-3.174 3.174-.142 0-.274.036-.395.095-.44-.786-1.736-2.087-1.736-3.51 0-1.135.56-2.173.856-2.935h1.274l.157.01h.014c1.672.088 3.006 1.47 3.006 3.164zm2.945 8.162c0-1.964-1.15-3.65-2.804-4.463 1.02-.915 1.674-2.228 1.674-3.7 0-2.35-1.634-4.32-3.824-4.846l.602-8.68c3.347-4.704 5.347-11.027 5.347-16.99 0-3.274-.618-6.182-1.814-8.663V21.576c0-2.75-2.236-4.988-4.987-4.988-1.212 0-2.31.45-3.174 1.173v-.527c0-2.75-2.24-4.988-4.99-4.988-1.642 0-3.09.808-3.998 2.036-.894-1.353-2.423-2.253-4.163-2.253-1.913 0-3.558 1.094-4.396 2.677-.915-1.066-2.256-1.758-3.77-1.758-2.705 0-4.91 2.168-4.98 4.857-.964.114-1.93.24-2.88.383-4.19.4-5.305 3.416-5.305 3.416-.124.02-.27.013-.436-.042-.768-.252-2.066-3.863-2.066-3.863l-.023-.057c-.01-.024-.766-1.922-1.34-3.702.348-.075 22.63-4.854 43.443-2.243V10.3S101.476 7.26 64.57 12.18c-.284-1.77-1.04-4.873-2.876-5.183-1.592-.267-2.727 1.597-3.44 3.022l-.06.12-.023.132c-.01.058-.03.205-.03.437 0 .47.083 1.287.496 2.438l.053.147.102.124c.054.066.97 1.208 1.126 2.773-3.496-1.827-8.95.01-9.196.095l-.155.054-.127.103c-.505.416-.998.874-1.48 1.365-2.03.452-3.953 1.134-5.728 2.025-1.77-.025-14.77-.192-26.266.104h-.04l-.038.006c-.197.022-4.883.572-8.114 2.94C4.878 25.742 4.41 30.89 5.32 33.467c.827 2.343 4.12 9.02 8.255 8.976l.757-.008.128-.745c.007-.042.058-.364.058-.98 0-.21-.007-.463-.023-.745.406.122.81.185 1.21.18l.755-.008.128-.744c.023-.133.525-3.307-1.894-9.847 1.21-.265 3.146-.302 6.242.313.07.027.188.075.345.14-.335 4.06-2.104 25.43-2.14 25.84-3.348 4.705-5.35 11.03-5.35 16.996 0 3.274.62 6.18 1.814 8.662v18.547c0 2.75 2.238 4.988 4.988 4.988 1.212 0 2.31-.45 3.175-1.173v.526c0 2.75 2.237 4.988 4.988 4.988 1.642 0 3.09-.808 4-2.036.892 1.355 2.422 2.254 4.162 2.254 1.912 0 3.557-1.093 4.394-2.677.917 1.067 2.258 1.758 3.77 1.758 2.424 0 4.447-1.737 4.895-4.032 2.282.16 8.266.574 8.63.6 4.706 3.347 11.03 5.346 16.993 5.346 3.273 0 6.18-.617 8.662-1.813h18.546c2.75 0 4.988-2.238 4.988-4.988 0-1.212-.452-2.31-1.173-3.174h.528c2.75 0 4.988-2.237 4.988-4.987 0-1.643-.81-3.09-2.036-4 1.35-.89 2.25-2.42 2.25-4.16z"/></svg>
