<svg xmlns="http://www.w3.org/2000/svg" width="100%" height="100%" viewBox="0 0 198.297 155.806"><path fill="#8D8D90" d="M17.568 94.877l.643-.12c1.255-.245 1.378-.337 1.378-3.147V79.7c0-2.755-.123-2.847-1.377-3.092l-.642-.12v-.898h9.5v.896l-.644.12c-1.254.246-1.376.338-1.376 3.093v14.174c.733.275 1.5.52 2.294.52 2.754 0 3.672-1.437 4.62-5.08l1.652.336c0 2.327-.643 5.02-1.07 6.122H17.567v-.895m30.77-1.603l.214.77c-.884.786-2.894 2.208-6.304 2.208-4.424 0-7.88-2.393-7.88-7.28 0-5.106 3.55-7.59 7.94-7.59 5.024 0 6.03 3.714 6.182 5.68-2.497 1.078-5.572 1.91-8.434 2.523.305 1.937 1.218 4.458 4.993 4.49 1.765 0 2.8-.585 3.288-.8m-8.555-5.258c1.52-.185 2.647-.34 4.14-.738-.062-.86-.335-4.522-2.344-4.522-1.615 0-1.858 2.122-1.858 3.63 0 .552.06 1.075.06 1.63zm24.853 7.097v.43c-.397.185-1.59.708-3.304.708-1.836 0-2.846-.892-3.273-1.66-.643.553-2.1 1.66-3.864 1.66-2.375 0-4.11-1.475-4.11-3.596 0-3.933 5.812-4.98 7.545-5.22v-.87c0-1.55-.425-3.01-2.34-3.01-2.13 0-3.013 1.986-3.408 3.01h-.396c-.396-.682-.67-1.115-.853-1.984 1.4-1.78 4.657-3.203 7.12-3.203 4.19 0 4.863 2.177 4.863 5.84v3.808c0 2.826.215 3.75 2.02 4.086m-7.857-6.302c-1.004 0-2.128.99-2.128 2.756 0 1.206.91 2.506 2.097 2.506.575 0 .79-.124 1.094-.248-.092-.278-.214-.525-.214-1.578v-3.436h-.85zm20.675 7.44l-1.01-1.39c-.74.452-2.038 1.39-4.293 1.39-3.438 0-6.344-2.73-6.344-7.006 0-6.027 5.08-7.865 8.104-7.865 1.483 0 2.04.063 2.41.16v-2c0-2.305 0-3.75-.927-3.758h-.834l-.093-.918c1.7-.49 5.71-1.133 6.84-1.133v18.9c0 .798.276.952 1.194 1.167l.735.185v.758c-1.405.514-4.128 1.18-5.78 1.512m-1.132-12.356c-.402-.585-.618-1.14-2.225-1.14-1.7 0-2.936 2.123-2.936 4.83 0 2.95 1.514 6.487 3.893 6.487.434 0 .865-.123 1.268-.246v-9.93zm21.884 9.378l.213.77c-.883.786-2.893 2.208-6.303 2.208-4.424 0-7.882-2.393-7.882-7.28 0-5.106 3.55-7.59 7.942-7.59 5.024 0 6.03 3.714 6.182 5.68-2.498 1.078-5.574 1.91-8.435 2.523.304 1.937 1.217 4.458 4.992 4.49 1.767 0 2.803-.585 3.29-.8m-8.556-5.258c1.522-.185 2.65-.34 4.14-.738-.06-.86-.334-4.522-2.343-4.522-1.613 0-1.857 2.122-1.857 3.63 0 .552.06 1.075.06 1.63zm10.05 6.846v.91h8.474v-.91l-.49-.092c-1.192-.214-1.254-.612-1.254-2.113v-8.02c.245.03.49.092.734.153 1.47.367 2.233 1.258 3.12 1.258 1.225-.706 1.928-1.627 2.173-2.762-.337-.676-.948-1.902-2.662-1.902-1.683 0-2.784 1.35-3.58 2.148-.09-1.044-.122-1.32-.336-2.148-2.234.398-3.58.705-6.395 1.533l.244.922h.855c.856 0 .856 1.134.856 3.187v5.632c0 1.5-.06 1.896-1.253 2.11l-.488.093m23.455-8.638h1.477c0-1.29 0-2.7-.308-3.986-.8-.368-2.086-.858-4.162-.858-4.115 0-6.095 1.685-6.095 4.29 0 2.976 2.65 3.927 4.66 4.97 1.69.89 2.244 1.87 2.244 2.515 0 .858-.245 1.718-1.78 1.718-1.444 0-3.196-1.533-3.534-4.324h-1.744c0 1.688.275 3.497.49 4.66 1.53.705 2.883 1.04 4.726 1.04 3.46 0 6.412-1.223 6.412-4.564 0-1.258-.792-2.945-2.68-3.834-4.226-1.963-4.226-2.82-4.226-3.558 0-1.534 1.436-1.534 1.558-1.534 2.017-.002 2.87 2.605 2.963 3.465m4.133 8.638v.91h8.472v-.91l-.488-.092c-1.19-.214-1.252-.614-1.252-2.12v-8.54c.335-.185 1.068-.554 1.832-.554 1.77 0 2.688 1.322 2.688 3.44v5.654c0 1.505-.062 1.905-1.253 2.12l-.488.092v.91h8.47v-.91l-.488-.092c-1.194-.215-1.255-.615-1.255-2.12V86.6c0-1.63-.244-5.22-4.926-5.22-1.862 0-3.756.997-4.58 1.633V73.73c-1.133 0-5.05.674-6.73 1.133l.09.917h.735c.918 0 .918 1.438.918 3.732v13.14c0 1.504-.062 1.904-1.254 2.12l-.492.09m26.162-17.488c0-1.5-1.194-2.632-2.757-2.632s-2.757 1.102-2.757 2.632c0 1.5 1.226 2.57 2.757 2.57s2.757-1.102 2.757-2.57m-6.888 18.4h8.475v-.91l-.49-.093c-1.192-.214-1.254-.612-1.254-2.113V81.38c-1.132 0-4.804.582-6.822 1.134l.093.92h.826c.916 0 .916 1.44.916 3.738v5.485c0 1.5-.06 1.9-1.254 2.114l-.49.093v.91zm9.53 6.746v-.91l.49-.092c1.193-.215 1.254-.613 1.254-2.113V87.432c0-2.306 0-3.75-.917-3.75h-.827l-.092-.91c1.836-.515 4.192-1.03 6.334-1.393.245.302.397.877.397 1.24.678-.394 1.94-1.24 3.88-1.24 3.617 0 6.462 2.67 6.462 7.22 0 4.336-2.968 7.65-8.494 7.65-.708 0-1.324-.062-1.755-.21v3.364c0 1.5.062 1.898 1.263 2.113l1.14.09v.912h-9.133m6.73-8.816c.43.492.985 1.17 2.063 1.17 2.123 0 2.83-2.46 2.83-5.013 0-1.32 0-6.304-4.894-6.304v10.148zM72.607 118.25v.897h10.685v-.896l-1.23-.12c-1.26-.244-1.382-.336-1.382-3.092v-14.695h.922c3.104 0 3.563 2.603 3.81 4.164l1.487-.123c0-1.408-.03-3.644-.486-5.42h-16.93c-.332 1.195-.484 5.328-.484 5.42l1.487.123c.246-1.562.706-4.164 3.81-4.164h.923v14.695c0 2.756-.123 2.848-1.383 3.092l-1.23.12m14.483-.014v.91h8.475v-.91l-.49-.09c-1.192-.216-1.254-.614-1.254-2.116v-8.02c.246.03.49.092.735.153 1.47.368 2.233 1.258 3.12 1.258 1.225-.704 1.928-1.625 2.173-2.76-.337-.676-.948-1.903-2.662-1.903-1.683 0-2.783 1.35-3.58 2.148-.09-1.043-.12-1.32-.336-2.148-2.233.4-3.58.706-6.394 1.534l.244.922h.856c.857 0 .857 1.136.857 3.19v5.63c0 1.5-.062 1.898-1.255 2.112l-.488.092m28.39.252v.43c-.398.185-1.592.707-3.306.707-1.836 0-2.845-.89-3.273-1.66-.64.554-2.1 1.66-3.86 1.66-2.376 0-4.112-1.475-4.112-3.596 0-3.933 5.813-4.98 7.546-5.22v-.87c0-1.55-.426-3.01-2.34-3.01-2.13 0-3.014 1.986-3.41 3.01h-.395c-.397-.683-.67-1.116-.853-1.985 1.4-1.78 4.657-3.202 7.118-3.202 4.192 0 4.865 2.178 4.865 5.84v3.807c0 2.83.213 3.75 2.02 4.088m-7.858-6.3c-1.003 0-2.127.99-2.127 2.754 0 1.206.91 2.506 2.097 2.506.576 0 .79-.123 1.094-.247-.092-.277-.213-.525-.213-1.577v-3.436h-.85zm15.658-11.44c0-1.5-1.194-2.633-2.757-2.633s-2.757 1.103-2.757 2.632c0 1.5 1.226 2.57 2.757 2.57s2.757-1.1 2.757-2.57m-6.887 18.4h8.475v-.91l-.49-.092c-1.193-.215-1.254-.613-1.254-2.115v-11.277c-1.132 0-4.804.582-6.823 1.134l.094.92h.826c.917 0 .917 1.44.917 3.74v5.483c0 1.502-.06 1.9-1.255 2.115l-.488.09v.912zm9.848-.91v.91h8.23v-.91l-.49-.092c-.946-.216-1.008-.615-1.008-2.12v-8.48c.245-.245.734-.614 1.62-.614 2.688 0 2.688 2.46 2.688 4.364v4.73c0 1.506-.062 1.905-.947 2.12l-.49.092v.91h8.168v-.91l-.488-.09c-1.193-.217-1.254-.616-1.254-2.12v-6.392c0-4.82-3.794-4.882-4.405-4.882-2.537 0-3.882.878-4.89 1.634v-1.634c-1.132 0-4.926.424-6.822 1.12l.092.906h.826c.918 0 .918 1.442.918 3.747v5.5c0 1.504-.06 1.903-1.255 2.12l-.49.09m25.95-17.488c0-1.5-1.194-2.632-2.756-2.632-1.562 0-2.757 1.103-2.757 2.632 0 1.5 1.225 2.57 2.757 2.57s2.757-1.1 2.757-2.57m-6.887 18.4h8.475v-.91l-.49-.092c-1.19-.215-1.254-.613-1.254-2.115v-11.277c-1.132 0-4.803.582-6.822 1.134l.092.92h.826c.918 0 .918 1.44.918 3.74v5.483c0 1.502-.06 1.9-1.254 2.115l-.49.09v.912zm9.848-.91v.91h8.23v-.91l-.49-.092c-.947-.216-1.008-.615-1.008-2.12v-8.48c.245-.245.733-.614 1.62-.614 2.688 0 2.688 2.46 2.688 4.364v4.73c0 1.506-.062 1.905-.947 2.12l-.49.092v.91h8.168v-.91l-.488-.09c-1.192-.217-1.255-.616-1.255-2.12v-6.392c0-4.82-3.793-4.882-4.405-4.882-2.537 0-3.882.878-4.89 1.634v-1.634c-1.132 0-4.926.424-6.822 1.12l.09.906h.828c.918 0 .918 1.442.918 3.747v5.5c0 1.504-.062 1.903-1.255 2.12l-.49.09m23.51 3.382c0 1.964 1.594 3.375 4.107 3.375 1.87 0 3.494-1.135 3.494-2.884 0-1.626-1.93-2.27-3.952-2.27-1.993 0-3.647.215-3.647 1.78m11.712-14.75c-.734.216-2.08.522-2.75.554.274.398.762 1.166.762 2.394 0 3.438-3.046 4.815-6.442 4.815-.49 0-.95-.03-1.44-.06-.766.03-1.256.398-1.256.86 0 1.167 1.317 1.105 6.28 1.167 2.45 0 4.714 1.498 4.714 4.11 0 3.73-3.854 5.66-8.728 5.66-4.014 0-6.828-1.438-6.828-4.18 0-1.758 2.05-2.437 3.182-2.714v-.062c-.948-.243-2.6-.943-2.598-2.527 0-1.37 2.203-2.285 3.213-2.713v-.062c-1.437-.337-3.426-1.562-3.428-4.387 0-3.068 2.8-4.968 6.69-4.968 2.214 0 8.283 1.102 8.68 1.193l-.05.924zm-8.64 6.386c1.716 0 2.083-1.873 2.083-3.837 0-1.965-.734-3.284-2.113-3.284-1.378 0-2.082 1.41-2.082 3.438 0 1.903.796 3.684 2.113 3.684zM51.44 137.9v.902h10.11v-.903l-1.254-.214c-1.254-.244-1.376-.336-1.376-2.992V120.12c.306-.092.643-.123.948-.123 2.11 0 3.947 1.96 3.947 4.838 0 3.123-1.5 4.715-3.336 4.837v1.053c7.312 0 8.904-3.87 8.904-6.44 0-5.05-4.497-5.663-8.75-5.663h-9.193v.895l.642.12c1.254.246 1.376.34 1.376 3.1v11.93c0 2.777-.122 2.87-1.377 3.113l-.642.12m19.175-.008v.91h8.475v-.91l-.49-.09c-1.192-.216-1.254-.614-1.254-2.115v-8.02c.245.03.49.09.734.152 1.47.367 2.233 1.258 3.12 1.258 1.225-.706 1.928-1.626 2.173-2.762-.336-.676-.947-1.903-2.66-1.903-1.684 0-2.785 1.35-3.58 2.148-.092-1.042-.123-1.318-.337-2.147-2.233.4-3.58.706-6.395 1.534l.245.92h.857c.856 0 .856 1.137.856 3.19v5.632c0 1.498-.06 1.896-1.254 2.11l-.49.092m21.848 1.387c-4.242 0-8.006-1.777-8.006-7.358 0-5.644 4.13-7.512 8.314-7.512 5.282 0 8.036 3.095 8.036 7.297 0 5.612-4.16 7.572-8.344 7.572m.247-1.378c2.345 0 2.53-3.436 2.53-5.827 0-2.607-.556-6.288-2.654-6.288-2.16 0-2.56 3.16-2.56 5.214 0 2.854.524 6.902 2.684 6.902zm14.47 3.37c0 1.964 1.594 3.375 4.106 3.375 1.87 0 3.494-1.135 3.494-2.884 0-1.626-1.93-2.27-3.954-2.27-1.99 0-3.647.215-3.647 1.78m11.712-14.75c-.734.216-2.08.522-2.75.554.274.4.763 1.166.763 2.394 0 3.44-3.045 4.816-6.442 4.816-.49 0-.95-.03-1.44-.062-.766.03-1.256.4-1.256.86 0 1.168 1.317 1.106 6.282 1.168 2.448 0 4.713 1.498 4.713 4.11 0 3.73-3.855 5.66-8.73 5.66-4.013 0-6.827-1.437-6.827-4.18 0-1.758 2.05-2.437 3.182-2.713v-.063c-.948-.243-2.6-.944-2.598-2.527 0-1.37 2.203-2.286 3.213-2.714v-.062c-1.438-.337-3.428-1.562-3.43-4.387 0-3.07 2.803-4.97 6.69-4.97 2.214 0 8.284 1.104 8.683 1.195l-.052.922zm-8.64 6.386c1.716 0 2.084-1.873 2.084-3.838s-.735-3.285-2.113-3.285c-1.38 0-2.084 1.412-2.084 3.438 0 1.904.796 3.684 2.112 3.684zm9.65 4.982v.91h8.476v-.91l-.49-.09c-1.192-.216-1.254-.614-1.254-2.115v-8.02c.245.03.49.09.734.152 1.47.367 2.234 1.258 3.12 1.258 1.225-.706 1.928-1.626 2.173-2.762-.337-.676-.948-1.903-2.66-1.903-1.684 0-2.786 1.35-3.58 2.148-.093-1.042-.123-1.318-.337-2.147-2.234.4-3.58.706-6.395 1.534l.245.92h.855c.857 0 .857 1.137.857 3.19v5.632c0 1.498-.062 1.896-1.255 2.11l-.488.092m28.388.252v.43c-.397.186-1.59.708-3.305.708-1.835 0-2.846-.892-3.272-1.66-.64.553-2.1 1.66-3.862 1.66-2.375 0-4.11-1.476-4.11-3.597 0-3.932 5.813-4.98 7.545-5.22v-.868c0-1.552-.426-3.01-2.34-3.01-2.13 0-3.014 1.985-3.41 3.01h-.395c-.396-.683-.67-1.117-.853-1.986 1.4-1.78 4.657-3.2 7.12-3.2 4.19 0 4.863 2.177 4.863 5.84v3.807c0 2.827.214 3.75 2.02 4.087m-7.857-6.3c-1 0-2.125.99-2.125 2.753 0 1.207.91 2.507 2.096 2.507.58 0 .792-.124 1.097-.248-.092-.278-.214-.525-.214-1.578v-3.435h-.852zm8.825 6.048v.91h8.193v-.91l-.487-.09c-.943-.217-.975-.616-.975-2.12v-8.42c.336-.276.792-.676 1.614-.676 1.705 0 2.162 1.72 2.162 3.596v5.5c0 1.504-.062 1.903-.822 2.12l-.487.09v.91h7.697v-.91l-.486-.09c-.854-.217-.914-.616-.914-2.12v-4.332c0-2.09-.062-3.35-.245-4.087.396-.277.885-.677 1.676-.677 1.86 0 2.348 1.6 2.348 3.534v5.56c0 1.506-.03 1.905-.914 2.12l-.488.092v.91h8.133v-.91l-.49-.09c-1.194-.217-1.255-.616-1.255-2.12v-4.395c0-3.503-.337-6.878-4.803-6.878-2.316 0-3.84 1.058-4.695 1.722-.643-.846-1.59-1.723-3.855-1.723-2.072 0-3.535 1.058-4.175 1.54v-1.54c-1.13 0-4.956.603-6.822 1.117l.092.908h.826c.918 0 .918 1.44.918 3.746v5.5c0 1.505-.06 1.904-1.254 2.12l-.49.092M8.44 75.582v.905h10.112v-.9l-1.255-.216c-1.255-.243-1.377-.335-1.377-2.992V57.804c.306-.092.643-.122.948-.122 2.11 0 3.947 1.96 3.947 4.836 0 3.123-1.5 4.714-3.335 4.837v1.053c7.312 0 8.903-3.87 8.903-6.44 0-5.05-4.497-5.663-8.75-5.663H8.44v.895l.643.12c1.255.247 1.377.34 1.377 3.1v11.93c0 2.778-.122 2.87-1.377 3.114l-.643.12m32.436-1.597l.214.77c-.884.786-2.894 2.207-6.304 2.207-4.424 0-7.88-2.393-7.88-7.28 0-5.106 3.548-7.59 7.94-7.59 5.024 0 6.03 3.714 6.182 5.682-2.497 1.076-5.572 1.907-8.434 2.52.304 1.94 1.218 4.46 4.992 4.49 1.768 0 2.803-.584 3.29-.8M32.32 68.73c1.522-.185 2.648-.34 4.14-.74-.06-.86-.334-4.52-2.344-4.52-1.613 0-1.856 2.122-1.856 3.63 0 .553.06 1.076.06 1.63zm23.853 5.257l.214.77c-.884.786-2.894 2.207-6.304 2.207-4.424 0-7.88-2.393-7.88-7.28 0-5.106 3.548-7.59 7.94-7.59 5.024 0 6.03 3.714 6.182 5.682-2.497 1.076-5.572 1.907-8.434 2.52.306 1.94 1.22 4.46 4.994 4.49 1.766 0 2.802-.584 3.29-.8m-8.557-5.257c1.522-.185 2.648-.34 4.14-.74-.06-.86-.334-4.52-2.344-4.52-1.613 0-1.856 2.122-1.856 3.63 0 .553.06 1.076.06 1.63zm10.048 6.846v.91h8.475v-.91l-.488-.092c-1.194-.214-1.255-.613-1.255-2.114v-8.02c.244.03.49.092.734.153 1.47.368 2.234 1.257 3.12 1.257 1.226-.706 1.93-1.626 2.173-2.762-.336-.675-.947-1.902-2.66-1.902-1.684 0-2.785 1.35-3.58 2.148-.093-1.043-.123-1.32-.337-2.148-2.233.4-3.58.706-6.395 1.534l.246.92h.856c.856 0 .856 1.135.856 3.19v5.63c0 1.5-.062 1.898-1.254 2.112l-.49.094"/><path fill="#0070CA" d="M96.23 36.264c2.577 0 4.668-2.09 4.668-4.67 0-2.578-2.09-4.668-4.67-4.668-2.578 0-4.67 2.09-4.67 4.67.002 2.577 2.092 4.668 4.67 4.668m14.093-5.77c-1.445-1.446-3.364-1.446-6.27-1.446h-2.884c.394.764.62 1.628.62 2.547 0 .92-.228 1.788-.623 2.552h2.88c.968 0 2.026 0 2.595.07.13.782.13 2.503.13 4.185v26.103h-4.475l.006-19.298c0-1.682 0-3.404.13-4.187.567-.067 1.625-.068 2.588-.068h1.06v-5.1h-1.053c-2.912 0-4.832 0-6.278 1.447-1.546 1.545-1.546 3.67-1.546 7.906l-.006 21.848v2.55h14.674V38.4c0-4.234 0-6.36-1.547-7.906zm-19.65 1.1c0-.92.228-1.783.622-2.547h-3.4v5.1h3.403c-.397-.765-.624-1.632-.624-2.553zm30.752-21.246h-33.78c-7.03 0-12.75 5.718-12.75 12.748v33.782c0 7.03 5.72 12.748 12.75 12.748l5.08-.02 2.54-.01v-24.39c0-4.24 0-6.366-1.55-7.914-1.45-1.447-3.37-1.444-6.276-1.44H81.48v5.1h5.96c.967-.002 2.023-.002 2.592.064.13.783.13 2.507.13 4.19v19.31l-2.532.01c-4.206 0-7.637-3.43-7.637-7.647V23.095c0-4.218 3.43-7.648 7.648-7.648h33.782c4.217 0 7.648 3.43 7.648 7.648v33.782c0 4.217-3.432 7.648-7.648 7.648l-2.518-.01V38.4c0-1.68 0-3.402.13-4.185.568-.068 1.625-.07 2.588-.07l5.912.007.005-5.1-5.91-.005c-2.913 0-4.832 0-6.28 1.446-1.545 1.546-1.545 3.672-1.545 7.908v31.192l2.538.01 5.068.022c7.04 0 12.76-5.72 12.76-12.748v-33.78c0-7.03-5.72-12.748-12.748-12.748zm-15.01 12.907c0-3.55 2.877-6.43 6.428-6.43 3.55 0 6.43 2.88 6.43 6.43s-2.88 6.428-6.43 6.428-6.43-2.877-6.43-6.428z"/></svg>
