<svg xmlns="http://www.w3.org/2000/svg" width="100%" height="100%" viewBox="0 0 368.8 105.373"><g fill="#A5734C"><path d="M18.727 63.948v1.91H21c-.864-.48-1.634-1.12-2.273-1.91m35.08-37.604v32.153c0 2.158.624 2.782 2.84 3.01v4.352h6.736c-1.312-.727-2.35-1.774-3.043-3.046-.796-1.477-1.08-3.52-1.08-5.85v-9.482c0-2.328.284-4.373 1.08-5.85 1.363-2.498 4.034-4.145 7.558-4.145 5.343 0 8.64 3.86 8.64 9.198H70.74c0-2.328-1.08-3.407-2.842-3.407s-2.84 1.136-2.84 3.294v11.755c0 1.817 1.078 2.84 2.84 2.84 2.217 0 2.73-1.647 2.842-2.897h5.798c0 2.385-.854 4.6-2.33 6.133-.554.572-1.183 1.06-1.883 1.455h25.432V26.344h-43.95zm-25.232 32.04c0-1.59-.682-2.67-2.898-3.52l-2.785-1.024c-1.747-.654-3.162-1.626-4.165-2.885v7.315h3.483c.227 1.59.965 3.236 3.125 3.236 1.65 0 3.24-1.192 3.24-3.122zm-3.012-20.897c4.716 0 8.125 3.634 8.183 8.403H28.29c-.056-1.93-1.42-2.952-2.955-2.952-1.818 0-2.84 1.42-2.84 2.896 0 1.08.284 2.1 2.443 2.953l3.41 1.362c4.32 1.645 5.683 4.713 5.683 8.12 0 3.247-1.688 6.098-4.342 7.588h8.093V38.06h5.798v27.8h7.367c-1.88-1.096-2.936-3.177-2.936-6.964V26.344h-4.432v5.635H37.78v-5.636H18.727V40.8c1.562-2.052 4.053-3.313 6.836-3.313zM124.1 79.03h13.17V65.858H124.1V79.03zM110.927 92.2h13.17V79.03h-13.17V92.2zM97.756 79.03h13.172V65.858H97.756V79.03zm0-65.858h13.172v13.172H97.756V13.172zM137.288 59.173h1.344v.646h.026c.276-.422.645-.725 1.264-.725.58 0 .962.342 1.198.67.33-.367.685-.67 1.396-.67.67 0 1.46.435 1.46 1.633v5.122h-1.342v-4.622c0-.487-.237-.79-.658-.79-.5 0-.672.33-.672.922v4.49h-1.343v-4.622c0-.487-.236-.79-.658-.79-.5 0-.67.33-.67.922v4.49h-1.345v-6.677zm10.326 5.992h-.026c-.355.487-.646.764-1.29.764-.62 0-1.45-.304-1.45-1.778 0-1.528.436-2.266 2.12-2.266.186 0 .37.026.647.04v-.698c0-.447-.17-.79-.672-.79-.342 0-.685.237-.764.672h-1.305c.04-.593.25-1.094.605-1.45s.856-.564 1.462-.564c1.12 0 2.015.71 2.015 2.106v4.648h-1.343v-.685zm0-2.186c-.146-.027-.25-.04-.37-.04-.578 0-1.052.237-1.052.948 0 .514.263.855.697.855.447 0 .724-.315.724-.855v-.91zm4.755-1.937c-.015-.447-.33-.685-.686-.685-.422 0-.658.33-.658.672 0 .25.065.487.565.685l.79.316c1.002.383 1.318 1.094 1.318 1.884 0 1.105-.843 2.015-2.002 2.015-1.053 0-1.948-.7-2-2.016h1.263c.052.368.223.75.724.75.382 0 .75-.276.75-.724 0-.37-.157-.62-.67-.816l-.647-.237c-.843-.316-1.356-.948-1.356-1.844 0-1.132.897-1.948 1.977-1.948 1.093 0 1.883.843 1.896 1.948h-1.264zm4.635 0c-.014-.447-.33-.685-.685-.685-.422 0-.658.33-.658.672 0 .25.065.487.565.685l.79.316c1 .383 1.317 1.094 1.317 1.884 0 1.105-.843 2.015-2.002 2.015-1.053 0-1.948-.7-2-2.016h1.263c.053.368.224.75.725.75.382 0 .75-.276.75-.724 0-.37-.157-.62-.67-.816l-.647-.237c-.843-.316-1.356-.948-1.356-1.844 0-1.132.896-1.948 1.976-1.948 1.093 0 1.883.843 1.896 1.948h-1.265zm4.742 4.122h-.026c-.354.487-.645.764-1.29.764-.618 0-1.448-.304-1.448-1.778 0-1.528.435-2.266 2.12-2.266.185 0 .37.026.646.04v-.698c0-.447-.17-.79-.672-.79-.342 0-.685.237-.764.672h-1.304c.04-.593.25-1.094.605-1.45s.856-.564 1.462-.564c1.12 0 2.015.71 2.015 2.106v4.648h-1.343v-.685zm0-2.186c-.146-.027-.25-.04-.37-.04-.578 0-1.052.237-1.052.948 0 .514.263.855.697.855.448 0 .725-.315.725-.855v-.91zm3.74.947c0 .422.25.66.66.66.513 0 .63-.384.657-.673h1.344c0 .553-.198 1.066-.54 1.422-.355.37-.843.593-1.462.593-.816 0-1.436-.383-1.752-.962-.184-.343-.25-.816-.25-1.356v-2.2c0-.54.066-1.014.25-1.355.316-.58.936-.96 1.752-.96 1.237 0 2.002.894 2.002 2.132h-1.344c0-.54-.25-.79-.658-.79s-.658.263-.658.763v2.724zm3.438-7.453h1.344v3.345h.025c.276-.422.645-.725 1.264-.725.67 0 1.382.435 1.382 1.633v5.122H171.6v-4.622c0-.487-.238-.79-.66-.79-.5 0-.67.33-.67.922v4.49h-1.345v-9.376zm9.14 9.376h-1.342v-.646h-.026c-.276.422-.646.725-1.265.725-.67 0-1.383-.436-1.383-1.634v-5.123h1.343v4.622c0 .487.236.79.658.79.5 0 .673-.33.673-.92v-4.492h1.343v6.677zm3.544-4.807c-.015-.447-.33-.685-.686-.685-.422 0-.658.33-.658.672 0 .25.065.487.565.685l.79.316c1.002.383 1.318 1.094 1.318 1.884 0 1.105-.843 2.015-2.002 2.015-1.053 0-1.948-.7-2-2.016h1.263c.052.368.223.75.724.75.382 0 .75-.276.75-.724 0-.37-.157-.62-.67-.816l-.647-.237c-.843-.316-1.356-.948-1.356-1.844 0-1.132.897-1.948 1.977-1.948 1.093 0 1.883.843 1.896 1.948h-1.264zm3.424 1.976v.907c0 .422.25.66.66.66.513 0 .63-.384.657-.673h1.344c0 .553-.197 1.066-.54 1.422-.355.37-.843.593-1.46.593-.817 0-1.437-.383-1.753-.962-.184-.343-.25-.816-.25-1.356v-2.2c0-.54.066-1.014.25-1.355.317-.58.937-.96 1.753-.96 1.237 0 2 .907 2 2.08v1.843h-2.66zm0-1.055h1.317V61.2c0-.5-.25-.763-.657-.763s-.66.264-.66.764v.765zm3.635-4.82h1.343v2.028h.83v1.054h-.83v3.7c0 .62.236.66.83.66v1.263h-.554c-1.213 0-1.62-.855-1.62-1.567v-4.056h-.672v-1.054h.67v-2.027zm2.673 0h1.344v2.028h.83v1.054h-.83v3.7c0 .62.236.66.83.66v1.263h-.554c-1.212 0-1.62-.855-1.62-1.567v-4.056h-.67v-1.054h.67v-2.027zm5.11 3.898c-.013-.447-.328-.685-.684-.685-.423 0-.66.33-.66.672 0 .25.066.487.566.685l.79.316c1 .383 1.317 1.094 1.317 1.884 0 1.105-.843 2.015-2.002 2.015-1.053 0-1.947-.7-2-2.016h1.264c.053.368.224.75.725.75.38 0 .75-.276.75-.724 0-.37-.158-.62-.672-.816l-.646-.237c-.843-.316-1.356-.948-1.356-1.844 0-1.132.896-1.948 1.976-1.948 1.093 0 1.883.843 1.896 1.948h-1.264zm7.24 0c-.013-.447-.328-.685-.684-.685-.423 0-.66.33-.66.672 0 .25.066.487.566.685l.79.316c1 .383 1.317 1.094 1.317 1.884 0 1.105-.843 2.015-2.002 2.015-1.053 0-1.947-.7-2-2.016h1.264c.053.368.224.75.725.75.38 0 .75-.276.75-.724 0-.37-.158-.62-.672-.816l-.646-.237c-.843-.316-1.356-.948-1.356-1.844 0-1.132.896-1.948 1.976-1.948 1.093 0 1.883.843 1.896 1.948h-1.264zm2.2-3.897h1.345v2.027h.83v1.054h-.83v3.7c0 .62.236.66.83.66v1.263h-.554c-1.212 0-1.62-.855-1.62-1.567v-4.056h-.67v-1.054h.67v-2.027zm5.216 8.02h-.027c-.355.486-.646.763-1.29.763-.62 0-1.45-.304-1.45-1.778 0-1.528.436-2.266 2.12-2.266.186 0 .37.026.647.04v-.698c0-.447-.17-.79-.672-.79-.342 0-.685.237-.764.672h-1.304c.04-.593.25-1.094.605-1.45s.856-.564 1.462-.564c1.12 0 2.015.71 2.015 2.106v4.648h-1.343v-.685zm0-2.187c-.146-.027-.25-.04-.37-.04-.58 0-1.053.237-1.053.948 0 .514.263.855.697.855.448 0 .725-.315.725-.855v-.91zm2.317-5.834h1.344v2.027h.83v1.054h-.83v3.7c0 .62.237.66.83.66v1.263h-.553c-1.212 0-1.62-.855-1.62-1.567v-4.056h-.67v-1.054h.67v-2.027zm3.9 5.873v.907c0 .422.25.66.658.66.513 0 .632-.384.658-.673h1.343c0 .553-.197 1.066-.54 1.422-.355.37-.843.593-1.46.593-.817 0-1.437-.383-1.753-.962-.185-.343-.25-.816-.25-1.356v-2.2c0-.54.065-1.014.25-1.355.316-.58.936-.96 1.752-.96 1.237 0 2 .907 2 2.08v1.843h-2.66zm0-1.055h1.316V61.2c0-.5-.25-.763-.658-.763s-.66.264-.66.764v.765zm8.547 3.885h-1.186l-.737-3.964h-.025l-.737 3.964h-1.185l-1.58-6.677h1.422l.816 4.148h.027l.75-4.147h1.054l.712 4.148h.026l.804-4.147h1.422l-1.58 6.677zm2.134-9.376h1.344v1.344h-1.344v-1.344zm0 2.7h1.344v6.676h-1.344v-6.677zm5.124 6.07c-.343.382-.606.685-1.277.685-.54 0-.936-.198-1.172-.633-.158-.29-.225-.698-.225-1.436v-2.54c0-.962.04-1.344.21-1.62.225-.355.554-.605 1.2-.605.526 0 .947.25 1.237.685h.026v-3.306h1.344v9.376h-1.343v-.606zm-1.33-1.567c0 .54.197.91.658.91.408 0 .672-.344.672-.83V61.16c0-.422-.29-.725-.672-.725-.514 0-.658.368-.658.79v2.45zm5.004-.658v.907c0 .422.25.66.66.66.512 0 .63-.384.657-.673h1.343c0 .553-.197 1.066-.54 1.422-.355.37-.843.593-1.46.593-.817 0-1.437-.383-1.753-.962-.185-.343-.25-.816-.25-1.356v-2.2c0-.54.065-1.014.25-1.355.316-.58.936-.96 1.752-.96 1.237 0 2 .907 2 2.08v1.843h-2.66zm0-1.055h1.317V61.2c0-.5-.25-.763-.658-.763s-.66.264-.66.764v.765zm6.28-5.49h1.343v1.343h-1.345v-1.344zm0 2.698h1.343v6.677h-1.345v-6.677zm2.45 0h1.344v.646h.026c.276-.422.645-.725 1.264-.725.672 0 1.383.435 1.383 1.633v5.122h-1.343v-4.622c0-.487-.237-.79-.66-.79-.5 0-.67.33-.67.922v4.49h-1.344v-6.677zm7.797 6.07c-.343.383-.606.686-1.277.686-.54 0-.936-.198-1.172-.633-.158-.29-.225-.698-.225-1.436v-2.54c0-.962.04-1.344.21-1.62.224-.355.553-.605 1.198-.605.527 0 .948.25 1.238.685h.026v-3.306h1.343v9.376h-1.343v-.606zm-1.33-1.566c0 .54.196.91.657.91.408 0 .672-.344.672-.83V61.16c0-.422-.29-.725-.672-.725-.514 0-.658.368-.658.79v2.45zm5.004-.658v.907c0 .422.25.66.66.66.512 0 .63-.384.657-.673h1.343c0 .553-.197 1.066-.54 1.422-.355.37-.843.593-1.46.593-.817 0-1.437-.383-1.753-.962-.185-.343-.25-.816-.25-1.356v-2.2c0-.54.065-1.014.25-1.355.316-.58.936-.96 1.752-.96 1.237 0 2 .907 2 2.08v1.843h-2.66zm0-1.055h1.317V61.2c0-.5-.25-.763-.658-.763s-.66.264-.66.764v.765zm3.636-2.792h1.344v.606c.342-.383.605-.686 1.277-.686.54 0 .935.197 1.172.632.158.29.224.697.224 1.436v2.54c0 .962-.04 1.344-.21 1.62-.225.356-.554.606-1.2.606-.525 0-.947-.25-1.236-.685h-.026v3.305h-1.344v-9.375zm2.674 2.173c0-.54-.198-.908-.66-.908-.407 0-.67.343-.67.83v2.594c0 .42.29.725.67.725.515 0 .66-.37.66-.79v-2.45zm3.674 1.673v.907c0 .422.252.66.66.66.514 0 .632-.384.658-.673h1.343c0 .553-.196 1.066-.54 1.422-.354.37-.842.593-1.46.593-.816 0-1.436-.383-1.752-.962-.185-.343-.25-.816-.25-1.356v-2.2c0-.54.065-1.014.25-1.355.316-.58.936-.96 1.752-.96 1.237 0 2 .907 2 2.08v1.843h-2.66zm0-1.055h1.318V61.2c0-.5-.25-.763-.658-.763s-.66.264-.66.764v.765zm3.636-2.792h1.344v.646h.026c.276-.422.645-.725 1.264-.725.672 0 1.383.435 1.383 1.633v5.122H273.3v-4.622c0-.487-.237-.79-.66-.79-.5 0-.67.33-.67.922v4.49h-1.344v-6.677zm7.798 6.07c-.343.383-.606.686-1.277.686-.54 0-.936-.198-1.172-.633-.158-.29-.225-.698-.225-1.436v-2.54c0-.962.04-1.344.21-1.62.225-.355.554-.605 1.2-.605.526 0 .947.25 1.237.685h.026v-3.306h1.343v9.376h-1.343v-.606zm-1.33-1.566c0 .54.197.91.658.91.408 0 .672-.344.672-.83V61.16c0-.422-.29-.725-.672-.725-.514 0-.658.368-.658.79v2.45zm5.005-.658v.907c0 .422.25.66.658.66.513 0 .632-.384.658-.673h1.343c0 .553-.198 1.066-.54 1.422-.356.37-.844.593-1.462.593-.816 0-1.436-.383-1.752-.962-.185-.343-.25-.816-.25-1.356v-2.2c0-.54.065-1.014.25-1.355.316-.58.936-.96 1.752-.96 1.237 0 2 .907 2 2.08v1.843h-2.66zm0-1.055h1.316V61.2c0-.5-.25-.763-.658-.763s-.66.264-.66.764v.765zm3.634-2.792h1.344v.646h.026c.276-.422.645-.725 1.264-.725.672 0 1.383.435 1.383 1.633v5.122h-1.342v-4.622c0-.487-.237-.79-.66-.79-.5 0-.67.33-.67.922v4.49h-1.344v-6.677zm5.124-2.027h1.344v2.027h.83v1.054h-.83v3.7c0 .62.236.66.83.66v1.263h-.554c-1.212 0-1.62-.855-1.62-1.567v-4.056h-.67v-1.054h.67v-2.027zm5.186-.672h1.344v7.493c0 .5.145.645.658.697v1.265c-1.237 0-2.002-.317-2.002-1.87v-7.586zm2.53 0h1.344v1.344h-1.344v-1.344zm0 2.7h1.344v6.676h-1.344v-6.677zm4.806 6.676h-1.186l-1.737-6.677h1.422l.895 4.267h.026l.897-4.267h1.422l-1.74 6.677zm2.28-9.376h1.344v1.344h-1.344v-1.344zm0 2.7h1.344v6.676h-1.344v-6.677zm2.45 0h1.343v.645h.026c.275-.422.644-.725 1.263-.725.672 0 1.383.435 1.383 1.633v5.122h-1.343v-4.622c0-.487-.237-.79-.66-.79-.5 0-.67.33-.67.922v4.49h-1.344v-6.677zm6.467 7.453c.013.315.25.658.71.658.436 0 .62-.303.62-.725v-1.316h-.026c-.29.435-.71.685-1.25.685s-.936-.198-1.172-.633c-.158-.29-.225-.698-.225-1.436v-2.54c0-.962.04-1.344.21-1.62.225-.355.554-.605 1.2-.605.657 0 .92.303 1.264.685v-.606h1.343v7.493c0 .908-.593 1.962-2.015 1.962-.816 0-1.83-.475-2.002-2.002h1.344zm0-2.832c0 .422.145.79.658.79.382 0 .672-.303.672-.724v-2.594c0-.486-.264-.83-.672-.83-.46 0-.658.37-.658.91v2.45zm7.805.132c0 .422.25.66.658.66.514 0 .632-.384.658-.673h1.344c0 .553-.198 1.066-.54 1.422-.355.37-.843.593-1.462.593-.816 0-1.436-.383-1.752-.962-.184-.343-.25-.816-.25-1.356v-2.2c0-.54.066-1.014.25-1.355.316-.58.936-.96 1.752-.96 1.237 0 2.002.894 2.002 2.132h-1.344c0-.54-.25-.79-.658-.79s-.658.263-.658.763v2.724zm3.32-2.515c0-.54.065-1.015.25-1.356.316-.58.936-.96 1.752-.96s1.435.38 1.75.96c.186.342.25.816.25 1.356v2.2c0 .54-.064 1.013-.25 1.355-.315.58-.934.96-1.75.96s-1.436-.38-1.752-.96c-.185-.343-.25-.816-.25-1.356v-2.198zm1.342 2.41c0 .5.25.764.66.764s.657-.264.657-.765V61.2c0-.5-.25-.763-.657-.763s-.66.264-.66.764v2.62zm7.653 2.028h-1.343v-.646h-.026c-.276.422-.646.725-1.265.725-.67 0-1.383-.436-1.383-1.634v-5.123h1.344v4.622c0 .487.236.79.658.79.5 0 .672-.33.672-.92v-4.492h1.343v6.677zm1.106-6.677h1.344v.646h.026c.276-.422.645-.725 1.264-.725.672 0 1.383.435 1.383 1.633v5.122h-1.343v-4.622c0-.487-.237-.79-.66-.79-.5 0-.67.33-.67.922v4.49h-1.344v-6.677zm6.547 4.754c0 .422.25.66.658.66.514 0 .632-.384.658-.673h1.343c0 .553-.198 1.066-.54 1.422-.355.37-.843.593-1.462.593-.816 0-1.436-.383-1.752-.962-.184-.343-.25-.816-.25-1.356v-2.2c0-.54.066-1.014.25-1.355.316-.58.936-.96 1.752-.96 1.237 0 2 .894 2 2.132h-1.342c0-.54-.25-.79-.658-.79s-.658.263-.658.763v2.724zm3.438-7.453h1.344v1.344h-1.344v-1.344zm0 2.7h1.344v6.676h-1.344v-6.677zm2.37-2.7h1.345v7.493c0 .5.145.645.658.697v1.265c-1.236 0-2-.317-2-1.87v-7.586z"/></g></svg>
