<svg xmlns="http://www.w3.org/2000/svg" xmlns:xlink="http://www.w3.org/1999/xlink" width="100%" height="100%" viewBox="0 0 356.979 75.289"><defs><path id="a" d="M3.5 3.42h349.98v68.445H3.5z"/></defs><clipPath id="b"><use xlink:href="#a" overflow="visible"/></clipPath><path clip-path="url(#b)" d="M18.216 32.823l-4.27-1.642s-2.758.984-2.76 2.07c-.002 1.085 2.858 2.365 2.858 2.365l4.38 2.774 3.372 4.483-2.562 6.67s-4.868 2.304-7.03 2.332c-2.162.03-8.704-2.825-8.704-2.825l2.76-5.19s4.91 2.558 5.715 2.563c.806.004 2.925-1.348 3.12-2.497.196-1.15-3.908-2.825-3.908-2.825s-4.79-4.04-3.765-3.007c1.024 1.033-2.562-2.624-2.937-3.99-.374-1.365.942-5.316 2.45-6.08 1.51-.76 4.282-2.332 6.09-2.23 1.81.1 7.753 2.037 7.753 2.037l-2.562 4.993zM31.422 42.81c0 2.135 1.413 3.777 3.843 3.777s3.844-1.643 3.844-3.777c0-2.07-1.414-3.81-3.845-3.81s-3.843 1.74-3.843 3.81zm13.994 0c.446 4.074-5.004 8.613-10.15 8.967-5.146.354-10.364-5.285-10.15-8.967.213-3.684 5.03-7.93 10.15-9 5.12-1.07 9.705 4.925 10.15 9zM53.806 34.367v9c0 2.136 2.286 3.548 2.99 3.646.7.1 2.988-1.51 2.988-3.646l-.23-7.86 6.207-1.14s-.403 8.923-.91 11.062c-.51 2.137-4.88 6.22-8.056 6.346-3.176.127-7.51-3.296-7.827-4.75-.58-2.656-.23-11.976-.23-11.976l5.07-.683zM77.068 50.535l-5.294.683V39.294l-2.85.913V35.28l2.85-.913.456-4.374 5.523-.684v4.145l4.296-.913v4.927l-4.297.912M90.66 23.954v12.548h.064c1.38-1.84 3.164-3.677 5.388-2.694s4.906 2.55 6.34 7.095c.446 1.417 0 10.314 0 10.314l-5.294-.228-.685-8.412c0-1.97-.86-4.562-2.694-4.008-1.832.555-3.35 3.406-3.35 5.377l.23 7.27h-5.98l.456-26.58 5.523-.683zM127.51 31.903v4.14l7.26-.913v5.453l-7.26.456v4.726l7.652-.913v5.453l-13.18.912-.912-23.855 13.636-.912.456 4.54M145.71 36.535h.065c1.38-2.037 5.388-2.727 5.388-2.727s6.34 2.858 6.34 6.998l-.23 9.73-5.75.683v-8.213s-.565-4.99-2.693-4.435c-2.127.555-3.12 3.91-3.12 3.91l-.685 8.053-5.294.684.686-16.168 5.294-.684v2.167zM199.71 27.135l5.98-.684 11.793 15.144h.067l.684-14.23 5.754-.913-.456 23.856-5.982.912-11.793-16.545-.066 1.37-.683 14.263-5.754.912M233.75 42.81c-.58 1.564 1.878 3.937 3.844 3.777 1.966-.16 4.58-1.465 3.843-3.777-.736-2.314-1.474-3.482-3.843-3.81-2.37-.33-3.265 2.245-3.844 3.81zm13.47 8.408l-5.296.457-.065-3.014c-1.052 1.677-5.776 3.116-5.776 3.116s-9.542-2.84-8.51-9c1.035-6.16 6.27-8.583 8.443-8.968 2.174-.385 5.223 2.2 5.223 2.2l.685-2.098 5.295.457v16.85zM294.998 37.24l.636-.113c1.76-1.764 5.453-2.99 5.453-2.99h1.15l-.343 5.407c-.82-.46-2.188-.216-2.188-.216s-2.65.507-3.508 1.123c-.857.616-1.2 3.627-1.2 3.627v6.8l-5.865.57.456-17.08 5.293.684.115 2.19zM335.678 50.306l-5.523.912v-26.35l5.98-.914M167.363 42.81c-.58 1.564 1.878 3.937 3.844 3.777 1.966-.16 4.58-1.465 3.843-3.777-.736-2.314-1.474-3.482-3.843-3.81-2.37-.33-3.265 2.245-3.844 3.81zm13.47 8.408l-5.296.457-.065-3.014c-1.05 1.677-5.776 3.116-5.776 3.116s-9.54-2.84-8.508-9c1.034-6.16 6.27-8.583 8.442-8.968 2.174-.385 5.224 2.2 5.224 2.2l.684-12.51 5.295.456v27.264zM258.687 50.535l-5.294.683V39.294l-2.85.913V35.28l2.85-.913.457-4.374 5.52-.684v4.145l4.297-.913v4.927l-4.296.912M311.07 42.81c-.578 1.564 1.878 3.937 3.844 3.777 1.966-.16 4.58-1.465 3.844-3.777-.736-2.314-1.475-3.482-3.844-3.81-2.37-.33-3.264 2.245-3.843 3.81zm13.47 8.408l-5.295.457-.065-3.014c-1.052 1.677-5.776 3.116-5.776 3.116s-9.542-2.84-8.508-9c1.034-6.16 6.27-8.583 8.442-8.968 2.174-.385 5.223 2.2 5.223 2.2l.686-2.098 5.294.457v16.85zM350.855 38.37l-3.107-1.195s-2.006.716-2.008 1.506c-.002.79 2.08 1.722 2.08 1.722l3.187 2.02 2.454 3.263-1.863 4.853s-3.542 1.677-5.115 1.697c-1.573.02-6.334-2.057-6.334-2.057l2.008-3.775s3.572 1.86 4.16 1.863c.585.004 2.128-.98 2.27-1.816s-2.845-2.055-2.845-2.055-3.483-2.94-2.738-2.19-1.864-1.907-2.137-2.9.686-3.87 1.784-4.425c1.097-.554 3.114-1.697 4.43-1.624 1.315.073 5.64 1.482 5.64 1.482l-1.865 3.632zM272.18 34.367v9c0 2.136 2.286 3.548 2.99 3.646s2.988-1.51 2.988-3.646l-.23-7.86 6.208-1.14s-.405 8.923-.913 11.062c-.508 2.137-4.88 6.22-8.055 6.346-3.176.127-7.51-3.296-7.827-4.75-.578-2.656-.228-11.976-.228-11.976l5.068-.683z"/><path clip-path="url(#b)" fill="#0053AC" d="M3.5 58.177h349.98v13.688H3.5z"/><path clip-path="url(#b)" fill="#FBA249" d="M3.5 3.42h349.98v13.69H3.5z"/></svg>
