<svg xmlns="http://www.w3.org/2000/svg" xmlns:xlink="http://www.w3.org/1999/xlink" width="100%" height="100%" viewBox="0 0 202.414 175.374"><defs><circle id="a" cx="53.651" cy="122.603" r="45.222"/></defs><clipPath id="b"><use xlink:href="#a" overflow="visible"/></clipPath><linearGradient id="c" gradientUnits="userSpaceOnUse" x1="429.06" y1="118.673" x2="527.647" y2="175.59" gradientTransform="matrix(-.9405 0 0 .9405 503.533 -15.77)"><stop offset="0" stop-color="#9FC9EC"/><stop offset=".36" stop-color="#D7E6F6"/><stop offset="1" stop-color="#FFF"/></linearGradient><circle clip-path="url(#b)" fill="url(#c)" cx="53.651" cy="122.603" r="45.222"/><g clip-path="url(#b)"><path fill="#FCBC86" stroke="#000" stroke-width=".35" d="M18.542 99.21c-1.803.048-3.328-1.637-3.405-3.763-.077-2.126 1.322-3.888 3.125-3.935l2.71-.07c1.804-.048 3.33 1.637 3.406 3.763.077 2.126-1.322 3.888-3.125 3.935l-2.71.07z"/><path fill="#0072BC" stroke="#000" stroke-width=".35" d="M19.917 94.16c.043-.09.097-.166.16-.233l2.007-3.708c-.093.6.257 1.337.894 1.78.753.525 1.615.437 1.925-.197l-2.258 4.254c-.31.633-1.172.722-1.925.198-.754-.525-1.113-1.463-.803-2.096z"/><path fill="#FCBC86" stroke="#000" stroke-width=".35" d="M-2.88 128.817l18.75-35.95c.02-.027.044-.048.063-.074-.524.703-.833 1.633-.796 2.653.077 2.126 1.602 3.812 3.405 3.764l2.71-.07c.534-.015 1.43-.307 2.212-1.197L5.278 133.056c-.518 1.185-1.553 2.002-2.774 2.034l-2.71.07c-1.804.048-3.33-1.637-3.406-3.763-.035-.982.244-1.886.732-2.58z"/><path fill="#0072BC" stroke="#000" stroke-width=".35" d="M22.977 92c-.753-.523-1.112-1.46-.802-2.095.31-.633 1.172-.72 1.925-.197.753.524 1.112 1.462.802 2.095s-1.172.722-1.925.198z"/><path fill="#F15A22" stroke="#000" stroke-width=".35" d="M19.956 92.283c-.753-.524-1.112-1.462-.802-2.095s1.172-.722 1.925-.198c.752.524 1.11 1.462.8 2.095-.31.634-1.17.722-1.924.198z"/><path fill="#F15A22" stroke="#000" stroke-width=".35" d="M16.896 94.442c.043-.088.096-.166.16-.232l2.006-3.708c-.093.6.257 1.338.894 1.782.753.524 1.615.436 1.925-.198l-2.257 4.254c-.31.633-1.172.722-1.925.198-.753-.525-1.112-1.463-.802-2.096z"/></g><g clip-path="url(#b)"><path fill="#FCBC86" stroke="#000" stroke-width=".35" d="M39.53 97.196c-1.97.31-3.837-.917-4.172-2.74-.335-1.823.99-3.552 2.958-3.862l2.96-.466c1.968-.31 3.835.917 4.17 2.74.335 1.823-.99 3.552-2.958 3.862l-2.96.466z"/><path fill="#0072BC" stroke="#000" stroke-width=".35" d="M40.44 92.632c.036-.082.085-.157.146-.224l1.76-3.5c-.03.532.44 1.116 1.19 1.404.885.34 1.818.135 2.083-.458l-1.972 4.008c-.265.593-1.198.798-2.084.458s-1.39-1.095-1.125-1.688z"/><path fill="#FCBC86" stroke="#000" stroke-width=".35" d="M19.56 125.943L35.854 92.12c.018-.025.043-.046.062-.072-.49.685-.72 1.534-.56 2.408.335 1.823 2.202 3.05 4.17 2.74l2.96-.466c.582-.092 1.53-.478 2.28-1.362l-15.78 33.014c-.426 1.1-1.464 1.96-2.796 2.17l-2.96.466c-1.968.31-3.835-.917-4.17-2.74-.154-.842.046-1.664.5-2.335z"/><path fill="#0072BC" stroke="#000" stroke-width=".35" d="M43.535 90.312c-.886-.34-1.39-1.096-1.125-1.688s1.198-.797 2.084-.458c.886.34 1.39 1.096 1.125 1.688-.265.593-1.2.798-2.085.458z"/><path fill="#F15A22" stroke="#000" stroke-width=".35" d="M40.26 91.007c-.886-.34-1.39-1.096-1.125-1.688.265-.593 1.198-.798 2.084-.46.885.34 1.39 1.097 1.124 1.69-.264.592-1.197.797-2.084.457z"/><path fill="#F15A22" stroke="#000" stroke-width=".35" d="M37.164 93.327c.037-.082.086-.157.147-.224l1.762-3.5c-.03.532.438 1.117 1.188 1.404.886.34 1.82.135 2.084-.458l-1.972 4.007c-.265.593-1.198.798-2.084.458s-1.39-1.096-1.124-1.688z"/></g><g clip-path="url(#b)"><path fill="#FCBC86" stroke="#000" stroke-width=".35" d="M54.498 93.17c-1.696.29-3.305-.853-3.593-2.55-.29-1.695.853-3.304 2.55-3.593l2.55-.434c1.695-.29 3.304.853 3.593 2.55.288 1.695-.853 3.304-2.55 3.593l-2.55.434z"/><path fill="#0072BC" stroke="#000" stroke-width=".35" d="M55.282 88.923c.032-.076.075-.146.127-.208l1.517-3.256c-.027.494.378 1.038 1.023 1.305.764.316 1.567.125 1.796-.426l-1.7 3.728c-.227.55-1.03.742-1.795.426-.76-.316-1.196-1.02-.968-1.57z"/><path fill="#FCBC86" stroke="#000" stroke-width=".35" d="M43.747 105.696l7.587-17.248c.015-.024.037-.044.053-.068-.423.638-.62 1.427-.482 2.24.288 1.697 1.897 2.838 3.593 2.55l2.55-.434c.502-.085 1.318-.444 1.964-1.268l-7.14 16.497c-.37 1.023-1.263 1.824-2.412 2.02l-2.55.433c-1.696.29-3.305-.853-3.594-2.55-.13-.783.04-1.547.43-2.172z"/><ellipse transform="rotate(112.5 58.36 85.767)" fill="#0072BC" stroke="#000" stroke-width=".35" cx="58.364" cy="85.766" rx="1.081" ry="1.497"/><ellipse transform="rotate(112.488 55.54 86.408)" fill="#F15A22" stroke="#000" stroke-width=".35" cx="55.542" cy="86.413" rx="1.081" ry="1.497"/><path fill="#F15A22" stroke="#000" stroke-width=".35" d="M52.46 89.57c.033-.077.076-.146.127-.208l1.518-3.256c-.027.495.378 1.04 1.024 1.307.763.316 1.566.125 1.795-.426l-1.7 3.73c-.228.55-1.03.74-1.795.425s-1.197-1.02-.97-1.572z"/></g><path clip-path="url(#b)" fill="#FCBC86" stroke="#000" stroke-width=".35" d="M46.933 111.088c-.8-.547-1.347-.02-1.558.458-.533 1.21-.387 2.338.496 3.438 0 0 7.83 6.268 11.025 8.64 3.195 2.37 7.75 5.157 9.232 5.954 8.68 4.67 14.968 4.91 16.066 5.096 1.098.186 2.49.054 2.383-.513-.108-.566-2.696-1.37-5.03-1.765-1.99-.336-6.905-1.625-13.663-5.97-3.123-2.01-17.065-13.813-18.04-14.587 0 0-.448-.435-.91-.75z"/><path clip-path="url(#b)" fill="#FCBC86" stroke="#000" stroke-width=".35" d="M48.4 108.974c-.8-.547-1.346-.02-1.556.458-.533 1.21-.388 2.338.496 3.438 0 0 7.83 6.268 11.024 8.64 3.195 2.37 7.75 5.157 9.232 5.954 8.68 4.67 14.968 4.91 16.066 5.096 1.098.186 2.49.055 2.383-.513-.107-.567-2.695-1.37-5.03-1.765-1.99-.336-6.905-1.625-13.663-5.972-3.123-2.01-17.065-13.812-18.04-14.586 0 0-.45-.434-.91-.75z"/><path clip-path="url(#b)" fill="#FCBC86" stroke="#000" stroke-width=".35" d="M49.87 106.86c-.802-.546-1.348-.018-1.558.46-.533 1.208-.388 2.337.496 3.437 0 0 7.83 6.268 11.024 8.64 3.194 2.37 7.75 5.157 9.232 5.955 8.68 4.67 14.968 4.91 16.066 5.095s2.49.055 2.383-.513c-.107-.568-2.695-1.372-5.028-1.766-1.99-.336-6.906-1.625-13.664-5.97-3.122-2.01-17.065-13.813-18.04-14.587 0 0-.45-.434-.91-.75z"/><path clip-path="url(#b)" fill="#FCBC86" stroke="#000" stroke-width=".35" d="M51.337 104.747c-.8-.547-1.347-.02-1.558.458-.533 1.21-.39 2.338.495 3.438 0 0 7.83 6.268 11.024 8.64 3.194 2.37 7.75 5.158 9.23 5.955 8.68 4.67 14.97 4.91 16.067 5.096 1.098.186 2.49.054 2.383-.513-.107-.567-2.695-1.37-5.028-1.765-1.99-.336-6.906-1.625-13.664-5.97-3.123-2.01-17.065-13.813-18.04-14.587 0-.002-.45-.436-.91-.75z"/><path clip-path="url(#b)" fill="#FCBC86" stroke="#000" stroke-width=".35" d="M52.805 102.633c-.8-.547-1.347-.02-1.558.458-.532 1.21-.387 2.34.496 3.44 0 0 7.83 6.267 11.024 8.638s7.75 5.158 9.232 5.955c8.678 4.67 14.967 4.91 16.065 5.096 1.098.185 2.49.054 2.383-.514-.108-.567-2.695-1.37-5.03-1.765-1.99-.336-6.905-1.624-13.663-5.97-3.123-2.01-17.065-13.813-18.04-14.587 0 0-.448-.434-.91-.75z"/><path clip-path="url(#b)" fill="#FCBC86" stroke="#000" stroke-width=".35" d="M54.273 100.52c-.8-.547-1.347-.02-1.557.458-.533 1.21-.388 2.338.496 3.438 0 0 7.83 6.268 11.024 8.64 3.195 2.37 7.75 5.157 9.232 5.954 8.68 4.67 14.968 4.91 16.066 5.096s2.49.055 2.383-.513c-.107-.568-2.695-1.372-5.03-1.766-1.99-.336-6.905-1.625-13.662-5.972-3.123-2.008-17.066-13.812-18.04-14.586 0 0-.45-.435-.912-.75z"/><path clip-path="url(#b)" fill="#FCBC86" stroke="#000" stroke-width=".35" d="M55.74 98.406c-.8-.547-1.347-.02-1.557.458-.533 1.21-.388 2.338.496 3.438 0 0 7.83 6.268 11.023 8.64 3.194 2.37 7.75 5.158 9.232 5.955 8.68 4.67 14.968 4.91 16.066 5.096 1.1.185 2.49.054 2.384-.513-.107-.568-2.695-1.37-5.028-1.766-1.99-.336-6.906-1.625-13.664-5.97-3.123-2.01-17.066-13.813-18.04-14.587 0-.002-.45-.435-.912-.75z"/><path clip-path="url(#b)" fill="#FCBC86" stroke="#000" stroke-width=".35" d="M57.21 96.292c-.802-.547-1.348-.02-1.56.458-.532 1.21-.386 2.338.497 3.438 0 0 7.83 6.268 11.024 8.64 3.196 2.37 7.752 5.157 9.233 5.954 8.68 4.67 14.968 4.91 16.066 5.096 1.097.186 2.49.055 2.382-.513-.107-.567-2.695-1.37-5.028-1.766-1.99-.337-6.906-1.626-13.664-5.972-3.123-2.01-17.065-13.812-18.04-14.586 0 0-.45-.434-.91-.75zM49.49 111.944c-1.386-2.142-2.9-4.056-2.743-5.467.157-1.41.903-1.95 1.626-2 .88-.058.88-.195 4.644 5.135 3.762 5.33 8.17 11.795 9.405 13.324 1.81 2.242 7.995 8.758 9.562 12.227 2.396 5.302 4.075 10.19 4.232 10.66s.02.567-.157.802c-.177.235-.94-.353-2.117-1.293-1.176-.94-5.526-8.817-7.642-11.403-1.316-1.61-6.465-7.29-9.463-10.817-2.91-3.423-6.054-9.17-7.347-11.17z"/><path clip-path="url(#b)" fill="#FCBC86" stroke="#000" stroke-width=".35" d="M50.857 109.56c-1.386-2.144-2.9-4.057-2.743-5.468s.903-1.95 1.626-2c.882-.058.882-.195 4.644 5.134 3.762 5.33 8.17 11.795 9.405 13.324 1.81 2.242 7.993 8.76 9.56 12.227 2.398 5.303 4.077 10.19 4.233 10.66s.02.567-.157.802c-.176.234-.94-.354-2.116-1.294-1.176-.94-5.526-8.817-7.642-11.404-1.317-1.61-6.466-7.29-9.464-10.815-2.91-3.422-6.054-9.17-7.347-11.168z"/><path clip-path="url(#b)" fill="#FCBC86" stroke="#000" stroke-width=".35" d="M52.223 107.173c-1.386-2.142-2.9-4.056-2.744-5.467.156-1.41.902-1.95 1.625-2 .882-.058.882-.195 4.644 5.135 3.76 5.33 8.17 11.796 9.404 13.325 1.81 2.242 7.994 8.758 9.562 12.227 2.396 5.302 4.075 10.188 4.232 10.66.157.47.02.567-.157.803-.175.235-.94-.353-2.115-1.293-1.175-.94-5.525-8.817-7.642-11.403-1.317-1.61-6.466-7.29-9.463-10.817-2.91-3.424-6.054-9.17-7.347-11.17z"/><path clip-path="url(#b)" fill="#FCBC86" stroke="#000" stroke-width=".35" d="M53.59 104.788c-1.386-2.142-2.9-4.056-2.743-5.466.157-1.41.903-1.95 1.626-2 .882-.058.882-.195 4.644 5.134 3.762 5.33 8.17 11.795 9.405 13.324 1.81 2.242 7.994 8.76 9.562 12.227 2.397 5.302 4.076 10.19 4.232 10.66s.02.567-.157.802c-.177.234-.94-.354-2.117-1.294-1.175-.94-5.525-8.817-7.642-11.404-1.316-1.61-6.465-7.29-9.463-10.816-2.91-3.422-6.054-9.17-7.347-11.168zM32.833 116.43c-.826-.865-1.794-.655-2.29-.332-1.258.82-1.573 1.892-.885 3.287 0 0 7.657 9.28 10.865 12.9 3.208 3.62 8.05 8.257 9.674 9.667 9.512 8.266 17.822 11.462 19.208 12.148 1.386.686 3.31 1.23 3.42.676.11-.555-2.99-2.497-5.936-3.954-2.515-1.244-8.513-4.72-15.6-11.786-3.274-3.265-16.62-20.36-17.576-21.508.002 0-.405-.598-.88-1.097zM58.677 94.18c-.8-.55-1.347-.02-1.557.457-.533 1.21-.388 2.338.496 3.438 0 0 7.83 6.268 11.024 8.64 3.195 2.37 7.75 5.157 9.232 5.954 8.68 4.67 14.968 4.91 16.066 5.095 1.098.186 2.49.055 2.383-.513-.107-.567-2.695-1.37-5.028-1.765-1.99-.336-6.906-1.625-13.664-5.972-3.123-2.01-17.065-13.812-18.04-14.586 0-.002-.45-.435-.91-.75z"/><path clip-path="url(#b)" fill="#FCBC86" stroke="#000" stroke-width=".35" d="M34.185 114.286c-.826-.866-1.795-.656-2.29-.333-1.258.82-1.573 1.892-.885 3.287 0 0 7.657 9.28 10.865 12.9 3.208 3.62 8.05 8.257 9.674 9.667 9.51 8.266 17.82 11.462 19.207 12.148 1.386.686 3.308 1.23 3.42.676.11-.554-2.99-2.496-5.936-3.953-2.513-1.244-8.51-4.72-15.597-11.786-3.275-3.264-16.62-20.358-17.577-21.507.002 0-.405-.598-.88-1.097z"/><path clip-path="url(#b)" fill="#FCBC86" stroke="#000" stroke-width=".35" d="M35.537 112.14c-.826-.866-1.795-.656-2.29-.333-1.258.82-1.572 1.892-.885 3.287 0 0 7.657 9.28 10.865 12.9 3.208 3.62 8.05 8.257 9.674 9.667 9.513 8.267 17.823 11.463 19.21 12.15 1.385.685 3.307 1.23 3.42.675s-2.99-2.497-5.936-3.954c-2.514-1.243-8.512-4.72-15.598-11.785-3.275-3.265-16.62-20.36-17.577-21.508 0 0-.407-.598-.883-1.097z"/><path clip-path="url(#b)" fill="#FCBC86" stroke="#000" stroke-width=".35" d="M36.89 109.995c-.826-.866-1.795-.656-2.292-.333-1.257.82-1.572 1.892-.884 3.287 0 0 7.656 9.278 10.865 12.9 3.207 3.62 8.05 8.256 9.673 9.666 9.512 8.266 17.823 11.462 19.208 12.148 1.387.686 3.31 1.23 3.42.676s-2.99-2.497-5.934-3.954c-2.514-1.244-8.512-4.72-15.598-11.786-3.275-3.265-16.62-20.36-17.578-21.51 0 .002-.405-.596-.88-1.095zM25.785 121.983c-.42-3.277-.21-4.403 1.368-5.12 2.355-1.07 2.84.307 2.946 1.638.104 1.333.42 9.422 2.945 18.025.686 2.336 4.405 9.59 6.945 16.18 2.526 6.555 2.686 9.953 3.157 14.543.052.512.105.82-.316.922-.806.196-1.472-1.126-3.156-7.066-1.684-5.94-2.525-8.5-4.946-13.313-1.78-3.538-3.472-6.655-5.05-10.035s-2.842-7.17-3.368-10.753c-.527-3.594-.414-4.15-.525-5.02z"/><path clip-path="url(#b)" fill="#FCBC86" stroke="#000" stroke-width=".35" d="M27.712 119.705c-.427-3.338-.214-4.485 1.388-5.215 2.39-1.09 2.883.313 2.99 1.668.107 1.356.427 9.596 2.99 18.357.696 2.38 4.47 9.767 7.047 16.48 2.562 6.675 2.724 10.136 3.203 14.81.054.522.107.835-.32.94-.82.2-1.495-1.148-3.203-7.198-1.708-6.05-2.562-8.657-5.02-13.56-1.804-3.603-3.522-6.78-5.124-10.22-1.602-3.443-2.883-7.302-3.417-10.953-.535-3.658-.42-4.226-.534-5.11z"/><path clip-path="url(#b)" fill="#FCBC86" stroke="#000" stroke-width=".35" d="M28.698 117.72c-.433-3.398-.216-4.566 1.408-5.31 2.424-1.11 2.924.32 3.033 1.7s.432 9.77 3.032 18.69c.706 2.423 4.534 9.944 7.148 16.78 2.6 6.796 2.764 10.32 3.25 15.08.054.53.108.85-.325.955-.83.204-1.517-1.168-3.25-7.328s-2.6-8.814-5.09-13.805c-1.833-3.67-3.575-6.903-5.2-10.408-1.625-3.504-2.924-7.434-3.466-11.15-.542-3.727-.427-4.304-.542-5.204z"/><path clip-path="url(#b)" fill="#FCBC86" stroke="#000" stroke-width=".35" d="M29.685 115.735c-.44-3.46-.22-4.648 1.428-5.404 2.458-1.128 2.966.325 3.076 1.73.11 1.405.438 9.944 3.075 19.024.716 2.466 4.6 10.12 7.25 17.08 2.637 6.916 2.803 10.503 3.296 15.348.056.54.11.865-.33.973-.842.208-1.537-1.19-3.295-7.458-1.758-6.27-2.636-8.972-5.163-14.052-1.857-3.735-3.625-7.026-5.273-10.593-1.65-3.567-2.967-7.566-3.516-11.35-.55-3.793-.432-4.38-.55-5.297z"/><path clip-path="url(#b)" fill="#FCBC86" stroke="#000" stroke-width=".35" d="M30.672 113.75c-.445-3.52-.223-4.73 1.448-5.5 2.493-1.15 3.008.33 3.12 1.76.11 1.43.445 10.12 3.118 19.357.726 2.51 4.664 10.3 7.352 17.378 2.673 7.04 2.843 10.688 3.342 15.618.056.55.11.88-.334.99-.854.21-1.56-1.21-3.342-7.59-1.783-6.378-2.674-9.128-5.236-14.297-1.884-3.8-3.676-7.15-5.347-10.78-1.67-3.628-3.007-7.698-3.564-11.547-.56-3.86-.44-4.457-.558-5.39zM9.584 120.58c-.448-1.185-1.356-1.263-1.888-1.072-1.35.483-1.957 1.53-1.795 3.235 0 0 3.76 12.31 5.42 17.182s4.422 11.34 5.393 13.355c5.69 11.806 11.918 17.82 12.91 18.986.99 1.166 2.492 2.35 2.762 1.79.27-.557-1.82-3.6-3.926-6.08-1.798-2.114-5.928-7.704-9.884-17.47-1.828-4.512-8.095-26.95-8.567-28.478 0 0-.168-.767-.426-1.45z"/><path clip-path="url(#b)" fill="#FCBC86" stroke="#000" stroke-width=".35" d="M11.068 118.44c-.465-1.198-1.4-1.274-1.946-1.078-1.386.496-2.006 1.56-1.833 3.287 0 0 3.916 12.455 5.642 17.384 1.726 4.93 4.594 11.472 5.6 13.508 5.9 11.937 12.33 18.002 13.354 19.18 1.024 1.177 2.573 2.37 2.85 1.802s-1.888-3.642-4.063-6.143c-1.857-2.134-6.126-7.78-10.234-17.656-1.9-4.564-8.436-27.272-8.927-28.818-.003 0-.177-.777-.445-1.467z"/><path clip-path="url(#b)" fill="#FCBC86" stroke="#000" stroke-width=".35" d="M12.55 116.3c-.482-1.212-1.442-1.284-2.003-1.084-1.422.508-2.056 1.588-1.87 3.337 0 0 4.073 12.603 5.866 17.59 1.793 4.985 4.766 11.6 5.81 13.66 6.108 12.068 12.738 18.185 13.795 19.373s2.653 2.39 2.934 1.813c.28-.576-1.953-3.682-4.198-6.207-1.917-2.155-6.327-7.855-10.586-17.844-1.97-4.617-8.774-27.595-9.286-29.16 0 .003-.183-.782-.46-1.48z"/><path clip-path="url(#b)" fill="#FCBC86" stroke="#000" stroke-width=".35" d="M14.034 114.16c-.5-1.225-1.487-1.294-2.062-1.088-1.458.52-2.105 1.617-1.908 3.39 0 0 4.23 12.748 6.09 17.79 1.86 5.044 4.938 11.733 6.016 13.814 6.32 12.2 13.15 18.368 14.24 19.567 1.09 1.2 2.733 2.408 3.02 1.825.287-.584-2.02-3.72-4.335-6.27-1.976-2.173-6.526-7.93-10.938-18.03-2.04-4.667-9.114-27.915-9.646-29.497.002 0-.187-.795-.476-1.5zM38.24 107.85c-.825-.867-1.793-.657-2.29-.334-1.257.82-1.572 1.892-.884 3.287 0 0 7.657 9.28 10.865 12.9s8.053 8.257 9.675 9.667c9.512 8.266 17.823 11.462 19.208 12.148 1.386.686 3.31 1.23 3.42.676.112-.555-2.99-2.497-5.935-3.954-2.514-1.244-8.512-4.72-15.6-11.785-3.273-3.265-16.62-20.36-17.576-21.51 0 0-.405-.597-.88-1.096z"/><path clip-path="url(#b)" fill="#FCBC86" stroke="#000" stroke-width=".35" d="M39.593 105.704c-.826-.866-1.794-.656-2.29-.333-1.258.82-1.573 1.893-.885 3.288 0 0 7.657 9.28 10.865 12.9s8.05 8.257 9.674 9.667c9.512 8.266 17.823 11.462 19.208 12.148 1.386.686 3.31 1.23 3.42.675.112-.555-2.99-2.496-5.936-3.954-2.514-1.244-8.512-4.72-15.6-11.785-3.274-3.266-16.62-20.36-17.576-21.51 0 0-.405-.597-.88-1.096z"/><path clip-path="url(#b)" fill="#FCBC86" stroke="#000" stroke-width=".35" d="M40.945 103.558c-.826-.866-1.794-.656-2.29-.333-1.258.82-1.573 1.892-.885 3.287 0 0 7.657 9.28 10.865 12.9s8.05 8.257 9.674 9.667c9.51 8.265 17.822 11.46 19.207 12.147 1.386.686 3.31 1.23 3.42.676.11-.555-2.99-2.497-5.936-3.954-2.513-1.245-8.51-4.72-15.597-11.787-3.275-3.265-16.62-20.36-17.577-21.51 0 .002-.405-.596-.88-1.095z"/><path clip-path="url(#b)" fill="#FCBC86" stroke="#000" stroke-width=".35" d="M42.297 101.413c-.826-.866-1.794-.656-2.29-.333-1.258.82-1.573 1.892-.885 3.286 0 0 7.657 9.28 10.865 12.9s8.05 8.257 9.674 9.667c9.513 8.266 17.823 11.462 19.21 12.148 1.385.687 3.308 1.23 3.42.676.11-.555-2.99-2.496-5.937-3.953-2.514-1.244-8.512-4.72-15.598-11.786-3.275-3.265-16.62-20.36-17.577-21.51 0 .003-.405-.595-.88-1.094z"/><path clip-path="url(#b)" fill="#FCBC86" stroke="#000" stroke-width=".35" d="M43.65 99.267c-.827-.866-1.796-.656-2.292-.333-1.258.82-1.572 1.892-.884 3.286 0 0 7.657 9.28 10.865 12.9s8.05 8.257 9.673 9.667c9.512 8.266 17.822 11.462 19.208 12.148 1.387.686 3.31 1.23 3.42.675.113-.555-2.99-2.496-5.934-3.954-2.514-1.244-8.512-4.72-15.598-11.785-3.275-3.264-16.62-20.358-17.577-21.508 0 .002-.405-.596-.88-1.095zM31.658 111.766c-.452-3.58-.226-4.81 1.468-5.594 2.527-1.17 3.05.335 3.162 1.79.113 1.455.452 10.293 3.162 19.69.736 2.554 4.728 10.477 7.454 17.678 2.71 7.16 2.882 10.873 3.388 15.887.056.56.113.895-.34 1.007-.865.214-1.58-1.23-3.387-7.72s-2.71-9.286-5.308-14.544c-1.91-3.866-3.727-7.272-5.42-10.964-1.695-3.692-3.05-7.832-3.615-11.748-.565-3.926-.444-4.534-.564-5.482z"/><path clip-path="url(#b)" fill="#FCBC86" stroke="#000" stroke-width=".35" d="M32.645 109.78c-.458-3.64-.23-4.89 1.488-5.687 2.562-1.188 3.09.34 3.206 1.82.113 1.48.457 10.467 3.205 20.024.746 2.596 4.792 10.653 7.555 17.976 2.748 7.282 2.92 11.057 3.435 16.156.057.568.115.91-.343 1.023-.878.218-1.603-1.252-3.435-7.85-1.832-6.6-2.748-9.444-5.38-14.792-1.936-3.93-3.778-7.395-5.495-11.15-1.717-3.754-3.09-7.963-3.663-11.945-.576-3.99-.454-4.61-.575-5.574z"/><path clip-path="url(#b)" fill="#FCBC86" stroke="#000" stroke-width=".35" d="M33.632 107.796c-.464-3.702-.232-4.974 1.508-5.784 2.597-1.208 3.132.347 3.25 1.85.115 1.504.463 10.642 3.248 20.358.756 2.64 4.857 10.83 7.658 18.275 2.784 7.403 2.96 11.24 3.48 16.425.058.578.116.925-.348 1.04-.89.223-1.625-1.27-3.48-7.98-1.856-6.708-2.785-9.6-5.453-15.037-1.962-3.997-3.83-7.52-5.57-11.335-1.74-3.817-3.13-8.097-3.71-12.146-.585-4.056-.46-4.685-.583-5.666z"/><path clip-path="url(#b)" fill="#FCBC86" stroke="#000" stroke-width=".35" d="M34.618 105.812c-.47-3.762-.235-5.055 1.528-5.878 2.63-1.228 3.174.353 3.292 1.88s.47 10.817 3.292 20.692c.767 2.683 4.922 11.008 7.76 18.575 2.82 7.525 3 11.425 3.526 16.695.06.588.118.94-.353 1.058-.902.225-1.646-1.293-3.527-8.112-1.88-6.818-2.82-9.757-5.525-15.282-1.987-4.062-3.878-7.642-5.642-11.52-1.764-3.88-3.174-8.23-3.762-12.345-.59-4.125-.464-4.765-.588-5.76zM15.518 112.02c-.518-1.238-1.53-1.304-2.12-1.094-1.495.534-2.154 1.646-1.946 3.44 0 0 4.388 12.895 6.314 17.996 1.927 5.1 5.11 11.863 6.224 13.966 6.528 12.33 13.56 18.55 14.684 19.76 1.122 1.21 2.813 2.428 3.105 1.836s-2.086-3.76-4.472-6.332c-2.036-2.194-6.725-8.006-11.29-18.218-2.11-4.72-9.454-28.236-10.005-29.836 0 0-.197-.805-.495-1.518z"/><path clip-path="url(#b)" fill="#FCBC86" stroke="#000" stroke-width=".35" d="M17 109.88c-.535-1.252-1.573-1.315-2.177-1.1-1.53.546-2.204 1.676-1.983 3.49 0 0 4.545 13.043 6.54 18.2 1.993 5.16 5.28 11.994 6.43 14.12 6.738 12.46 13.972 18.732 15.127 19.954 1.155 1.22 2.894 2.448 3.19 1.847s-2.15-3.8-4.606-6.394c-2.094-2.215-6.924-8.082-11.64-18.406-2.18-4.77-9.794-28.557-10.365-30.175 0 0-.206-.813-.514-1.535z"/><path clip-path="url(#b)" fill="#FCBC86" stroke="#000" stroke-width=".35" d="M18.484 107.74c-.553-1.266-1.617-1.326-2.235-1.105-1.568.56-2.253 1.705-2.022 3.542 0 0 4.702 13.188 6.763 18.403 2.062 5.215 5.454 12.124 6.64 14.272C34.578 155.444 42.013 161.768 43.2 163c1.19 1.23 2.976 2.467 3.278 1.857s-2.22-3.84-4.744-6.458c-2.155-2.235-7.125-8.158-11.993-18.594-2.25-4.822-10.133-28.878-10.723-30.515 0 .002-.214-.82-.533-1.55z"/><path clip-path="url(#b)" fill="#FCBC86" stroke="#000" stroke-width=".35" d="M19.968 105.6c-.57-1.28-1.66-1.336-2.293-1.11-1.604.57-2.302 1.733-2.06 3.593 0 0 4.86 13.334 6.988 18.606 2.127 5.27 5.625 12.253 6.846 14.424 7.156 12.723 14.792 19.098 16.014 20.34s3.055 2.49 3.363 1.87c.308-.617-2.285-3.878-4.88-6.52-2.214-2.254-7.324-8.232-12.345-18.78-2.32-4.874-10.474-29.2-11.083-30.854-.002 0-.224-.833-.552-1.57z"/><path clip-path="url(#b)" fill="#FCBC86" stroke="#000" stroke-width=".35" d="M21.45 103.46c-.587-1.293-1.704-1.347-2.35-1.117-1.64.583-2.352 1.763-2.098 3.644 0 0 5.016 13.48 7.21 18.81 2.195 5.33 5.798 12.385 7.055 14.578 7.367 12.854 15.205 19.28 16.458 20.534s3.135 2.507 3.45 1.88-2.353-3.92-5.017-6.583c-2.274-2.274-7.524-8.308-12.697-18.967-2.39-4.926-10.812-29.52-11.442-31.193 0 0-.228-.84-.567-1.587zM11.458 102.52c.588-1.293 1.705-1.347 2.352-1.117 1.64.584 2.35 1.764 2.096 3.645 0 0-5.016 13.48-7.21 18.81S2.9 136.243 1.642 138.436c-7.367 12.854-15.205 19.28-16.46 20.535-1.253 1.255-3.134 2.51-3.447 1.882s2.35-3.92 5.016-6.583c2.275-2.275 7.525-8.31 12.698-18.968 2.39-4.926 10.813-29.52 11.442-31.193 0-.003.23-.845.568-1.59zM54.957 102.402c-1.387-2.143-2.9-4.056-2.743-5.467.157-1.41.903-1.95 1.626-2 .882-.058.882-.195 4.644 5.135s8.17 11.795 9.405 13.324c1.81 2.242 7.993 8.758 9.56 12.227 2.398 5.303 4.077 10.19 4.233 10.66s.02.568-.157.804c-.176.235-.94-.353-2.116-1.293-1.175-.94-5.525-8.816-7.642-11.402-1.317-1.61-6.466-7.29-9.464-10.816-2.91-3.424-6.054-9.17-7.347-11.17z"/><g><defs><circle id="d" cx="42.515" cy="125.346" r="4.782"/></defs><clipPath id="e"><use xlink:href="#d" overflow="visible"/></clipPath><ellipse clip-path="url(#e)" fill="#FFF" stroke="#000" stroke-width=".342" cx="44.839" cy="131.933" rx="1.831" ry="1.93"/></g><circle fill="none" stroke="#000" stroke-width=".5" cx="53.651" cy="122.603" r="45.222"/><g><linearGradient id="f" gradientUnits="userSpaceOnUse" x1="797.668" y1="-228.167" x2="820.225" y2="-232.144" gradientTransform="matrix(-.821 .4588 .4588 .821 837.11 -65.852)"><stop offset="0" stop-color="#0072BC"/><stop offset=".085" stop-color="#0977BE"/><stop offset=".224" stop-color="#2184C5"/><stop offset=".399" stop-color="#499ACF"/><stop offset=".603" stop-color="#80B9DE"/><stop offset=".83" stop-color="#C6DFF0"/><stop offset="1" stop-color="#FFF"/></linearGradient><path fill="url(#f)" d="M69.55 115.066c2.12-.08 4.576 1.055 4.576 1.055l1.083 3.504 1.164-4.422-4.766-6.36 1.38 3.673s-3.105-.876-5.488.058c.254.346.466.625.625.82.34.423.835.997 1.426 1.673z"/><path fill="#005E9E" d="M75.208 119.624l.36-.2L76.73 115l-4.766-6.36-.36.202 4.767 6.36"/></g><linearGradient id="g" gradientUnits="userSpaceOnUse" x1="721.262" y1="-443.421" x2="737.633" y2="-449.38" gradientTransform="scale(1.2518) rotate(126.18 475.81 99.74)"><stop offset="0" stop-color="#0072BC"/><stop offset=".085" stop-color="#0977BE"/><stop offset=".224" stop-color="#2184C5"/><stop offset=".399" stop-color="#499ACF"/><stop offset=".603" stop-color="#80B9DE"/><stop offset=".83" stop-color="#C6DFF0"/><stop offset="1" stop-color="#FFF"/></linearGradient><path fill="url(#g)" d="M61.725 125.096l2.108 3.125.392-9.018-7.007-1.02 2.843 3.888s.124.67-2.138 2.57c-3.572 3-8.78 2.11-8.78 2.11l1.192 1.904s5.396 1.104 9.24-2.03 2.15-1.528 2.15-1.528z"/><linearGradient id="h" gradientUnits="userSpaceOnUse" x1="660.787" y1="-403.76" x2="677.159" y2="-409.718" gradientTransform="scale(1.5148) rotate(132.01 415.204 105.618)"><stop offset="0" stop-color="#0072BC"/><stop offset=".085" stop-color="#0977BE"/><stop offset=".224" stop-color="#2184C5"/><stop offset=".399" stop-color="#499ACF"/><stop offset=".603" stop-color="#80B9DE"/><stop offset=".83" stop-color="#C6DFF0"/><stop offset="1" stop-color="#FFF"/></linearGradient><path fill="url(#h)" d="M37.34 140.964l2.155 4.02 1.58-10.807-8.31-2.09 2.945 5.03s.065.822-2.89 2.832c-4.67 3.172-10.83 1.458-10.83 1.458l1.2 2.44s6.36 1.992 11.373-1.31c5.01-3.3 2.778-1.574 2.778-1.574z"/><g><linearGradient id="i" gradientUnits="userSpaceOnUse" x1="169.224" y1="32.037" x2="44.389" y2="31.275" gradientTransform="translate(-2.676 12.148)"><stop offset="0" stop-color="#0072BC"/><stop offset=".085" stop-color="#0977BE"/><stop offset=".224" stop-color="#2184C5"/><stop offset=".399" stop-color="#499ACF"/><stop offset=".603" stop-color="#80B9DE"/><stop offset=".83" stop-color="#C6DFF0"/><stop offset="1" stop-color="#FFF"/></linearGradient><path fill="url(#i)" d="M88.458 39.252c-25.706 2.104-45.193 5.512-46.666 5.636l1.178 3s20.588-2.11 47.337-1.813l.22-.272c.102-.968-.925-3.782-2.07-6.55z"/><path fill="#3888C9" d="M121.62 40.28l.453 7.372.014.002-.467-7.582"/><path fill="#3A89C9" d="M121.62 40.072l-.15-2.418h-.013l.162 2.626"/><path fill="#80A9D9" d="M89.97 43.23c.28.855.477 1.585.54 2.104-.062-.527-.26-1.287-.54-2.184v.08zM90.515 45.39c.017.16.023.3.012.413.01-.11.004-.253-.012-.412z"/><path fill="#82AADA" d="M89.15 40.772v.206c.31.797.592 1.565.82 2.252v-.082c-.228-.72-.51-1.53-.82-2.376z"/><path fill="#84ABDA" d="M88.575 39.243l-.117.01c.24.58.47 1.16.69 1.726l.002-.207c-.183-.502-.376-1.014-.575-1.53z"/><path fill="#FFF" d="M187.3 18.774l4.037 65.55c.043-.01.08-.016.124-.025l-2.947-64.945c-.35-.17-.757-.368-1.214-.58z"/><path fill="#FFFFFC" d="M185.696 18.062l4.102 66.578c.486-.088 1-.194 1.54-.315l-4.04-65.55c-.47-.22-1.002-.46-1.602-.713z"/><path fill="#FFFFFA" d="M184.1 17.417l4.154 67.456c.488-.06 1-.133 1.544-.232l-4.102-66.577c-.486-.208-1.018-.423-1.597-.646z"/><path fill="#FFFEF8" d="M182.897 16.97l.926.143c-.446-.155-.89-.325-1.332-.497l4.213 68.373c.488-.017 1-.05 1.55-.117L184.1 17.417c-.383-.147-.778-.296-1.203-.448z"/><path fill="#FFFEF7" d="M180.893 15.958l4.25 68.99c.487.045 1.008.058 1.56.04l-4.21-68.372c-.54-.21-1.072-.428-1.6-.658z"/><path fill="#FFFEF5" d="M179.29 15.23l4.277 69.437c.495.133 1.018.227 1.575.28l-4.25-68.99c-.54-.233-1.076-.477-1.603-.728z"/><path fill="#FFFEF4" d="M177.682 14.436l4.29 69.646c.512.246 1.04.438 1.596.586L179.29 15.23c-.545-.26-1.082-.524-1.608-.794z"/><path fill="#FFFEF3" d="M176.07 13.578l4.286 69.554c.537.37 1.07.687 1.616.95l-4.29-69.646c-.55-.283-1.087-.57-1.61-.858z"/><path fill="#FFFEF1" d="M174.456 12.658l4.265 69.22c.565.466 1.105.888 1.637 1.254l-4.285-69.554c-.558-.307-1.093-.614-1.616-.92z"/><path fill="#FFFEF0" d="M172.838 11.682l4.237 68.783c.58.51 1.127.984 1.646 1.413l-4.264-69.22c-.564-.33-1.102-.656-1.618-.976z"/><path fill="#FFFEEE" d="M171.217 10.652l4.212 68.363c.588.516 1.13.995 1.645 1.45l-4.237-68.784c-.57-.352-1.118-.7-1.62-1.028zM170.646 10.274l4.204 68.238c.193.168.393.34.578.502l-4.212-68.363c-.198-.128-.383-.25-.57-.376z"/><path fill="#FFFDED" d="M170.076 9.894l4.196 68.12c.02.018.04.033.062.05l.516.45-4.204-68.24-.57-.38z"/><path fill="#FFFDEB" d="M169.505 9.5l4.192 68.042c.185.145.376.3.575.47l-4.196-68.12c-.204-.137-.385-.263-.57-.392z"/><path fill="#FFFCEA" d="M168.934 9.102l4.19 68.01c.18.13.37.272.573.432L169.505 9.5c-.202-.14-.392-.27-.57-.398z"/><path fill="#FFFCE8" d="M168.36 8.695l4.192 68.022c.17.11.362.245.57.395l-4.19-68.01c-.203-.144-.398-.282-.57-.407z"/><path fill="#FFFBE7" d="M167.79 8.278l4.193 68.086c.14.082.332.2.57.354L168.36 8.696c-.214-.156-.406-.295-.57-.418z"/><path fill="#FFFBE5" d="M167.216 7.85l4.213 68.39c.1-.01.194-.012.295-.02 0 0 .097.05.26.145L167.79 8.28c-.262-.194-.448-.335-.574-.43z"/><path fill="#FFFAE4" d="M167.033 7.71s-.135.07-.36.19l4.212 68.375c.183-.014.36-.02.544-.037l-4.214-68.39c-.108-.08-.183-.14-.183-.14z"/><path fill="#FFFAE2" d="M166.142 8.177l4.198 68.136c.182-.013.36-.023.545-.037L166.672 7.9l-.53.277z"/><path fill="#FFF9E1" d="M165.612 8.453l4.183 67.897.545-.037-4.198-68.136-.53.276z"/><path fill="#FFF9DF" d="M165.612 8.453l-.53.275 4.168 67.66.545-.038-4.183-67.897z"/><path fill="#FFF8DE" d="M165.082 8.73c-.17.086-.345.177-.53.273l4.154 67.422c.18-.01.364-.026.544-.037l-4.168-67.66z"/><path fill="#FFF8DC" d="M164.552 9.002c-.17.088-.346.18-.53.273l2.32 37.646.186.395-.15.184 1.784 28.957c.18-.01.364-.024.545-.034l-4.155-67.42z"/><path fill="#A9BED0" d="M166.527 47.316l-.186-.394.037.578"/><path fill="#FFF8DB" d="M166.377 47.5l-.51.62 1.748 28.358c.184-.008.36-.01.546-.02L166.378 47.5zM165.712 45.588l.63 1.334-2.32-37.646c-.172.088-.347.18-.53.272l2.22 36.04z"/><path fill="#A9BDD0" d="M165.868 48.12l.51-.62-.037-.578-.628-1.334"/><path fill="#FFF7DA" d="M165.083 44.254l.622 1.32.007.014-2.22-36.04c-.172.088-.35.18-.53.27l2.12 34.436zM165.868 48.12l-.18.22-.33.402 1.71 27.756c.184-.007.363-.012.547-.02l-1.747-28.357z"/><path fill="#A9BDCF" d="M165.705 45.574l-.017 2.766.18-.22-.156-2.532"/><path fill="#AABDCF" d="M165.083 44.254l.276 4.488.328-.402.017-2.766"/><path fill="#FFF7D8" d="M164.454 42.92l.43.91.2.424L162.96 9.82c-.174.087-.35.177-.53.27l2.022 32.83zM165.36 48.742l-.51.62 1.674 27.155c.182-.006.362-.012.545-.02l-1.71-27.755z"/><path fill="#AABDCE" d="M164.884 43.83l-.034 5.517v.016l.51-.62-.277-4.49M164.884 43.83l-.43-.91.396 6.427"/><path fill="#FFF6D7" d="M163.825 41.585l.236.503.394.832-2.022-32.83c-.175.088-.35.177-.53.27l1.923 31.225zM164.85 49.363l-.507.62 1.636 26.554c.18-.005.362-.013.545-.02l-1.674-27.154z"/><path fill="#AABDCD" d="M164.85 49.365V49.347M164.454 42.92l-.392-.832-.02 3.043.3 4.854.508-.62v-.017"/><path fill="#AABDCD" d="M164.062 42.088l-.237-.503.218 3.546"/><path fill="#FFF6D5" d="M163.196 40.25l.044.095.585 1.24-1.924-31.227-.53.268 1.826 29.625zM164.343 49.984l-.332.404-.176.217 1.6 25.952c.18-.005.364-.014.545-.02l-1.637-26.553z"/><path fill="#AABDCD" d="M164.01 50.39l.333-.406-.3-4.853"/><path fill="#AABDCD" d="M163.825 41.585l-.585-1.24-.004.57.598 9.69.177-.216.033-5.26"/><path fill="#AABDCD" d="M163.24 40.345l-.044-.094.04.664"/><path fill="#FFF6D4" d="M162.566 38.917l.63 1.334-1.825-29.624-.53.267 1.726 28.024zM163.834 50.605l-.51.62 1.567 25.433c.01-.03.022-.065.026-.082.17-.004.346-.014.516-.02l-1.598-25.95z"/><path fill="#AABDCC" d="M163.188 48.99l.137 2.237.51-.622-.6-9.69"/><path fill="#ABBDCC" d="M163.236 40.914l-.04-.663-.63-1.333.622 10.073"/><path fill="#FFF5D3" d="M163.325 51.227l-.152.187-.356.435 1.617 26.25c.223-.678.392-1.223.458-1.44l-1.567-25.433zM161.938 37.583l.48 1.02.148.314-1.727-28.024-.53.267 1.628 26.423z"/><path fill="#AABDCB" d="M163.173 51.413l.152-.186-.137-2.237"/><path fill="#ABBDCB" d="M162.566 38.917l-.148-.314-.037 6.17.436 7.075.357-.435.015-2.423"/><path fill="#ABBDCB" d="M162.418 38.603l-.48-1.02.443 7.19"/><path fill="#FFF5D1" d="M162.816 51.848l-.482.59-.026.03 1.663 26.998c.168-.475.326-.944.464-1.367l-1.618-26.252zM161.31 36.25l.287.61.34.724-1.627-26.424-.53.264 1.53 24.826z"/><path fill="#ABBDCA" d="M162.334 52.437l.482-.59-.435-7.074M161.938 37.583l-.34-.723-.024 3.697.734 11.912.026-.033.047-7.664M161.597 36.86l-.288-.61.264 4.307"/><path fill="#FFF5D0" d="M160.68 34.915l.095.202.534 1.132-1.53-24.826-.53.264 1.43 23.227zM162.308 52.47l-.51.62 1.705 27.646c.156-.4.315-.835.468-1.27l-1.662-26.997z"/><path fill="#ABBDCA" d="M161.524 48.634l.275 4.456.508-.62-.734-11.913"/><path fill="#ABBDCA" d="M161.524 48.634l.05-8.077-.265-4.307-.536-1.133-.006 1.223"/><path fill="#ACBDCA" d="M160.774 35.117l-.094-.202.088 1.425"/><path fill="#FFF4CE" d="M161.8 53.09l-.305.37-.204.25 1.733 28.134c.15-.298.312-.683.48-1.108l-1.704-27.646zM160.05 33.58l.63 1.335-1.432-23.227-.53.262 1.333 21.63z"/><path fill="#ABBDC9" d="M161.495 53.46l.304-.37-.276-4.456"/><path fill="#ABBDC9" d="M160.768 36.34l-.05 8.077.573 9.294.205-.25.03-4.826"/><path fill="#ACBDC9" d="M160.768 36.34l-.088-1.425-.63-1.334.668 10.837"/><path fill="#FFF4CD" d="M159.513 33.734l.11-.888.086.01.243.52.098.206-1.332-21.63-.53.26 1.325 21.522zM161.29 53.71l-.508.622 1.738 28.214c.075-.055.148-.13.227-.23.084-.11.177-.273.276-.472L161.29 53.71z"/><path fill="#ACBDC8" d="M160.67 52.494l.112 1.84.51-.623-.574-9.293M160.67 52.494l.048-8.077-.667-10.836-.097-.205-.042 6.826M159.953 33.375l-.244-.52-.088-.01-.11.89.4 6.466"/><path fill="#FFF4CC" d="M160.782 54.333l-.126.153-.383.468 1.705 27.672c.225.054.39.034.542-.08l-1.738-28.213zM159.148 36.69l.364-2.956-1.326-21.523-.507.25h-.025l1.493 24.23z"/><path fill="#ACBCC7" d="M160.656 54.486l.126-.153-.113-1.84"/><path fill="#ACBDC7" d="M159.91 40.2l-.048 8.077.41 6.677.384-.468.013-1.992"/><path fill="#ACBDC7" d="M159.91 40.2l-.397-6.466-.365 2.956.714 11.587"/><path fill="#FFF3CA" d="M158.766 39.355l.053.006.278-2.262.05-.408-1.492-24.23c-.19.002-.36.012-.546.017l1.656 26.878zM160.273 54.954l-.456.556-.053.065 1.654 26.847c.226.098.408.167.56.204l-1.705-27.672z"/><path fill="#ACBCC7" d="M159.817 55.51l.456-.556-.41-6.677"/><path fill="#ACBDC7" d="M159.148 36.69l-.05.408-.042 6.962.71 11.515.05-.065.046-7.233"/><path fill="#ADBDC7" d="M159.098 37.098l-.28 2.263c-.017 0-.034-.003-.052-.005l.29 4.705.042-6.962z"/><path fill="#FFF3C9" d="M158.215 39.296c.013 0 .024.002.037.004.17.02.344.035.514.055l-1.656-26.878c-.185.004-.366.01-.546.016l1.65 26.803zM159.765 55.575l-.51.62 1.602 25.978c.214.096.4.18.562.25l-1.655-26.848z"/><path fill="#ACBCC6" d="M159.006 52.137l.25 4.06.51-.622-.71-11.515"/><path fill="#ADBDC6" d="M159.006 52.137l.05-8.077-.29-4.705c-.17-.02-.344-.035-.514-.055l-.004.542.758 12.295zM158.252 39.3c-.013 0-.024-.002-.037-.004l.033.546.004-.542z"/><path fill="#FFF3C7" d="M157.664 39.238c.184.02.368.038.55.06l-1.65-26.805c-.18.006-.37.01-.546.017l1.646 26.728zM159.256 56.196l-.276.338-.232.283 1.547 25.108c.208.09.395.172.562.248l-1.6-25.977z"/><path fill="#ADBCC5" d="M158.98 56.534l.276-.338-.25-4.06"/><path fill="#ADBDC5" d="M158.248 39.843l-.05 8.076.55 8.897.23-.283.028-4.397"/><path fill="#ADBDC5" d="M158.248 39.843l-.033-.546c-.183-.02-.367-.038-.55-.06l.534 8.683.048-8.077z"/><path fill="#FFF2C6" d="M157.114 39.18c.102.01.204.02.306.032.08.01.163.017.244.026l-1.646-26.73c-.188.01-.363.022-.545.032l1.64 26.64zM158.747 56.817l-.51.62 1.495 24.252c.204.082.39.16.562.234l-1.547-25.107z"/><path fill="#ADBCC4" d="M158.15 55.996l.088 1.442.51-.62-.55-8.9"/><path fill="#ADBDC4" d="M158.15 55.996l.05-8.077-.536-8.683c-.08-.01-.163-.017-.244-.026l-.027 4.492.757 12.294z"/><path fill="#ADBDC5" d="M157.42 39.212c-.102-.01-.204-.02-.306-.033l.278 4.523.028-4.49z"/><path fill="#FFF2C5" d="M158.238 57.438l-.098.12-.41.5 1.442 23.41c.198.077.386.15.56.222l-1.494-24.252zM156.563 39.12l.024.003c.176.02.35.037.526.056l-1.642-26.64c-.185.01-.364.023-.544.035l1.637 26.546z"/><path fill="#ADBCC4" d="M158.14 57.558l.098-.12-.088-1.442"/><path fill="#ADBCC4" d="M157.393 43.703l-.05 8.078.387 6.28.41-.502.01-1.562"/><path fill="#AEBDC4" d="M157.343 51.78l.05-8.077-.278-4.524c-.176-.02-.35-.04-.526-.057l-.003.363.756 12.295z"/><path fill="#AEBDC4" d="M156.588 39.123c-.008 0-.017 0-.024-.002l.022.367.002-.364z"/><path fill="#FFF2C3" d="M156.013 39.062l.55.06-1.635-26.546c-.18.012-.37.02-.545.035l1.63 26.452zM157.104 53.256c-.073-.018-.147-.034-.22-.05l.074 1.223.146-1.174zM157.73 58.06l-.43.522-.08.098 1.392 22.582c.196.07.385.14.56.207l-1.442-23.41z"/><path fill="#ADBCC3" d="M157.302 58.583l.428-.524-.387-6.28"/><path fill="#AEBCC3" d="M156.586 39.486l-.05 8.077.348 5.642c.073.018.147.033.22.05l-.145 1.173.262 4.252.08-.098.04-6.802-.756-12.294z"/><path fill="#AEBDC3" d="M156.586 39.486l-.022-.366-.55-.06.522 8.502.05-8.076z"/><path fill="#FFF1C2" d="M157.222 58.68l-.51.62 1.342 21.766c.196.066.382.132.56.196L157.22 58.68zM156.884 53.205l-.38-.09-.175-.04.265 4.31.364-2.957-.076-1.223zM155.462 39.003l.294.03c.086.01.17.02.257.028l-1.63-26.45c-.188.014-.36.03-.544.048l1.622 26.345z"/><path fill="#AEBCC2" d="M156.884 53.205l-.348-5.642-.033 5.553c.126.03.255.058.38.09zM156.595 57.385l.118 1.916.51-.62-.264-4.252"/><path fill="#AEBCC2" d="M156.536 47.563l-.523-8.5c-.086-.01-.17-.02-.257-.028l-.026 4.312.6 9.73c.058.013.116.025.174.04l.032-5.554z"/><path fill="#AEBDC2" d="M155.756 39.035l-.294-.03.268 4.342.026-4.312z"/><path fill="#FFF1C0" d="M156.713 59.3l-.25.306-.064.08-.087-.012.158-1.282.125-1.008-.266-4.31c-.185-.044-.37-.085-.556-.13l1.72 27.934c.2.064.378.125.56.188l-1.34-21.765zM154.912 38.945h.012l.538.06-1.623-26.345c-.186.016-.366.033-.544.05l1.616 26.235z"/><path fill="#AEBCC1" d="M156.47 58.393l-.007 1.213.25-.305-.118-1.915"/><path fill="#AEBCC2" d="M155.68 51.424l.095 1.522c.185.044.37.085.555.13l-.6-9.73-.05 8.078zM156.312 59.675l.086.01.065-.08.008-1.212"/><path fill="#AEBDC2" d="M155.68 51.424l.05-8.078-.268-4.343c-.18-.02-.357-.04-.538-.058v.184l.757 12.294z"/><path fill="#AFBDC2" d="M154.924 38.946h-.012l.01.183"/><path fill="#FFF1BF" d="M154.36 38.887c.186.018.367.04.552.058l-1.616-26.235c-.18.018-.37.034-.544.053l1.61 26.124zM155.774 52.946l-.103-.024-.45-.105 1.717 27.89c.19.057.383.115.558.17l-1.72-27.93z"/><path fill="#AEBCC1" d="M155.672 52.922l.103.024-.094-1.522-.008 1.498z"/><path fill="#AFBCC1" d="M154.923 39.13l-.05 8.077.347 5.61.452.105.01-1.498-.76-12.295z"/><path fill="#AFBDC1" d="M154.923 39.13l-.01-.186c-.186-.02-.367-.04-.552-.058l.514 8.32.05-8.077z"/><path fill="#FFF1BE" d="M155.22 52.817l-.38-.09c-.06-.012-.116-.026-.175-.04l1.716 27.85.23.067c.116.035.217.067.328.102l-1.718-27.89zM153.812 38.84l.28.023c.09.01.18.015.27.023l-1.61-26.124c-.188.02-.36.042-.542.063l1.602 26.014z"/><path fill="#AFBCC0" d="M154.84 52.728l.38.09-.346-5.61-.034 5.52zM154.36 38.887l-.27-.023-.023 4.125.598 9.697.175.04.034-5.52-.513-8.32z"/><path fill="#AFBDC0" d="M154.092 38.864c-.093-.01-.188-.016-.28-.024l.256 4.15.024-4.126z"/><path fill="#FFF0BC" d="M154.665 52.688l-.556-.13 1.713 27.817.558.163-1.715-27.85zM153.262 38.792c.183.017.367.03.55.048l-1.603-26.013c-.183.02-.37.042-.544.064l1.596 25.902z"/><path fill="#AFBCBF" d="M154.018 51.066l.092 1.492c.186.042.37.086.556.13l-.598-9.7-.05 8.078z"/><path fill="#AFBCBF" d="M154.067 42.99l-.256-4.15c-.182-.018-.366-.032-.55-.05l.757 12.276.05-8.077z"/><path fill="#FFF0BB" d="M154.11 52.558l-.102-.023c-.152-.035-.302-.072-.454-.106l1.712 27.784.557.16-1.714-27.816zM152.712 38.743c.183.017.366.03.55.048l-1.596-25.9c-.188.023-.364.045-.543.07l1.59 25.783z"/><path fill="#AFBCBF" d="M154.01 52.535l.1.023-.092-1.492-.01 1.47z"/><path fill="#AFBCBF" d="M153.262 38.792l-.05 8.06.343 5.577c.152.033.302.07.454.105l.008-1.468-.756-12.275z"/><path fill="#B0BDBF" d="M153.26 38.792c-.182-.017-.365-.032-.548-.048l.5 8.107.05-8.058z"/><path fill="#FFF0B9" d="M153.555 52.43l-.377-.09c-.06-.012-.118-.026-.178-.04l1.71 27.755.557.16-1.712-27.786zM152.162 38.695l.267.023.282.025-1.59-25.784c-.184.023-.365.046-.54.07l1.58 25.665z"/><path fill="#B0BCBE" d="M153.178 52.34l.377.09-.344-5.58-.032 5.49zM152.712 38.743l-.283-.025-.025 3.915L153 52.3c.06.014.118.028.178.04l.033-5.49-.498-8.107z"/><path fill="#B0BDBE" d="M152.43 38.718l-.268-.023.242 3.938.025-3.915z"/><path fill="#FFEFB8" d="M153 52.3c-.184-.04-.37-.076-.554-.115l1.707 27.714c.187.05.373.103.557.155L153 52.3zM151.612 38.647l.55.048-1.58-25.665-.544.07 1.574 25.547z"/><path fill="#B0BCBD" d="M152.355 50.71l.09 1.474c.185.04.37.076.555.116l-.596-9.668-.05 8.077z"/><path fill="#B0BCBD" d="M152.404 42.633l-.242-3.938c-.184-.016-.366-.033-.55-.048l.743 12.062.05-8.077z"/><path fill="#FFEFB7" d="M152.446 52.185l-.1-.02c-.15-.034-.304-.064-.455-.097l1.706 27.675.557.156-1.707-27.715zM151.062 38.6c.178.014.355.03.534.046h.016l-1.574-25.544-.543.07 1.567 25.427z"/><path fill="#B0BCBC" d="M152.347 52.164l.1.02-.09-1.474-.01 1.454zM151.612 38.647h-.016l-.048 7.847.343 5.574c.152.033.305.063.456.096l.01-1.454-.744-12.063z"/><path fill="#B1BCBD" d="M151.597 38.646l-.534-.047.486 7.894.047-7.848z"/><path fill="#FFEFB5" d="M150.513 38.55l.252.023.298.026-1.567-25.428c-.186.024-.366.045-.542.066l1.56 25.313zM151.892 52.068c-.125-.027-.25-.052-.377-.08-.06-.01-.118-.023-.177-.036l1.703 27.638c.187.05.373.103.557.153l-1.705-27.675z"/><path fill="#B0BCBC" d="M151.515 51.99c.126.026.252.05.377.078l-.343-5.574-.035 5.495z"/><path fill="#B1BCBC" d="M151.062 38.6c-.1-.01-.198-.02-.298-.027l-.022 3.703.596 9.676.177.037.034-5.496-.488-7.895z"/><path fill="#B1BDBC" d="M150.765 38.573c-.085-.007-.168-.016-.252-.022l.23 3.726.022-3.703z"/><path fill="#FFEEB4" d="M151.338 51.952c-.185-.04-.37-.078-.554-.116l1.7 27.602c.187.05.372.102.557.153l-1.702-27.638zM149.963 38.503c.184.015.365.033.55.047l-1.56-25.312c-.186.022-.368.043-.544.06l1.553 25.205z"/><path fill="#B1BCBB" d="M150.692 50.353l.092 1.482c.185.04.37.077.554.116l-.596-9.675-.05 8.078z"/><path fill="#B1BCBB" d="M150.742 42.276l-.23-3.725c-.184-.014-.365-.032-.55-.046l.73 11.85.05-8.078z"/><path fill="#FFEEB2" d="M149.413 38.465c.173.013.347.023.52.036l.03.003L148.41 13.3c-.19.02-.367.032-.545.045l1.548 25.12zM150.784 51.835l-.1-.02c-.152-.033-.303-.065-.455-.096l1.697 27.565.557.15-1.7-27.6z"/><path fill="#B1BCBA" d="M150.684 51.814l.1.02-.09-1.48-.01 1.46zM149.963 38.503c-.01 0-.02 0-.03-.002l-.047 7.636.344 5.583c.152.03.303.062.454.094l.01-1.46-.73-11.85z"/><path fill="#B2BDBA" d="M149.933 38.5c-.173-.012-.347-.022-.52-.035l.473 7.67.047-7.634z"/><path fill="#FFEEB1" d="M148.864 38.427l.236.016.312.022-1.548-25.12c-.17.012-.344.028-.503.034h-.04l1.544 25.047zM150.23 51.72c-.127-.027-.252-.055-.378-.08l-.177-.037 1.696 27.532.557.15-1.698-27.566z"/><path fill="#B1BCB9" d="M149.853 51.64c.126.025.25.053.377.08l-.344-5.584-.033 5.504z"/><path fill="#B2BCBA" d="M149.413 38.465l-.312-.022-.02 3.476.597 9.683.177.037.033-5.503-.474-7.672z"/><path fill="#B2BDBA" d="M149.1 38.443l-.235-.016.215 3.492.02-3.477z"/><path fill="#FFEEB0" d="M149.676 51.603c-.186-.038-.368-.08-.554-.116l1.693 27.498.557.15-1.696-27.532zM148.314 38.39c.183.012.366.024.55.038l-1.543-25.045c-.178.007-.362.018-.545.028l1.54 24.98z"/><path fill="#B2BCB9" d="M149.03 49.996l.092 1.49c.186.038.368.08.554.117l-.597-9.684-.05 8.076z"/><path fill="#B2BCB9" d="M149.08 41.92l-.216-3.493c-.184-.014-.367-.025-.55-.04l.715 11.608.05-8.076z"/><path fill="#FFEDAE" d="M149.122 51.487c-.034-.007-.067-.015-.102-.02l-.452-.09 1.69 27.46.557.148-1.693-27.498zM147.766 38.35c.167.013.335.024.503.036l.045.003-1.54-24.98c-.18.01-.36.022-.544.035l1.536 24.906z"/><path fill="#B2BCB8" d="M149.02 51.466l.103.02-.093-1.49-.01 1.47zM148.314 38.39l-.046-.004-.046 7.393.346 5.598.452.088.01-1.47-.716-11.607z"/><path fill="#B3BDB8" d="M148.27 38.386l-.504-.035.457 7.43.046-7.394z"/><path fill="#FFEDAD" d="M147.216 38.312l.22.016.33.023-1.535-24.905-.543.042 1.53 24.825zM148.568 51.378l-.38-.07-.174-.034 1.688 27.413.557.15-1.692-27.46z"/><path fill="#B2BCB7" d="M148.19 51.307l.378.07-.346-5.598-.033 5.527z"/><path fill="#B3BCB7" d="M147.766 38.35l-.33-.022-.02 3.236.6 9.71c.057.01.116.02.174.033l.033-5.528-.457-7.43z"/><path fill="#B3BDB7" d="M147.437 38.328l-.22-.016.2 3.25.02-3.234z"/><path fill="#FFEDAB" d="M146.667 38.274l.55.038-1.53-24.825-.544.05 1.524 24.737zM148.015 51.274c-.184-.036-.37-.07-.554-.104l1.688 27.368.556.15-1.69-27.414z"/><path fill="#B3BCB7" d="M147.367 49.64l.094 1.53c.186.035.37.068.555.104l-.6-9.71-.048 8.076zM147.416 41.563l-.2-3.25-.55-.04.7 11.367.05-8.077z"/><path fill="#FFECAA" d="M146.117 38.235c.163.01.324.023.487.034l.062.003-1.524-24.737c-.18.018-.36.035-.543.055l1.517 24.645zM147.46 51.17c-.033-.008-.067-.014-.102-.02-.15-.03-.3-.058-.45-.086l1.684 27.324.556.15-1.687-27.37z"/><path fill="#B3BCB6" d="M147.358 51.15l.103.02-.093-1.53-.01 1.51z"/><path fill="#B3BCB6" d="M146.667 38.274c-.02 0-.042-.003-.062-.004l-.044 7.154.35 5.642.45.085.008-1.51-.7-11.366z"/><path fill="#B4BDB6" d="M146.604 38.27c-.163-.01-.324-.024-.487-.034l.443 7.188.044-7.154z"/><path fill="#FFECA8" d="M145.568 38.197l.203.014c.117.008.23.018.347.025L144.6 13.592l-.543.063 1.51 24.542zM146.908 51.065l-.382-.072c-.058-.01-.114-.02-.172-.032l1.68 27.28.558.15-1.684-27.325z"/><path fill="#B3BCB5" d="M146.526 50.993l.382.072-.348-5.642-.034 5.57z"/><path fill="#B4BCB5" d="M146.117 38.235c-.115-.007-.23-.017-.346-.024l-.017 2.996.6 9.754c.06.01.115.02.173.032l.034-5.57-.443-7.187z"/><path fill="#B4BDB5" d="M145.77 38.21c-.066-.003-.134-.01-.202-.013l.186 3.01.017-2.996z"/><path fill="#FFECA7" d="M145.02 38.167l.55.03-1.513-24.542c-.18.02-.36.042-.543.065l1.506 24.447zM146.354 50.96l-.553-.104 1.68 27.235.555.15-1.68-27.28z"/><path fill="#B4BCB4" d="M145.704 49.283l.098 1.573.553.104-.6-9.754-.05 8.077zM145.754 41.206l-.186-3.01c-.183-.01-.366-.018-.55-.03l.686 11.116.05-8.076z"/><path fill="#FFEBA6" d="M145.802 50.856l-.106-.02c-.15-.027-.298-.057-.447-.084l1.674 27.19c.188.05.372.1.557.148l-1.678-27.234zM144.47 38.138c.157.01.314.016.47.025.027 0 .054.003.08.004l-1.506-24.447c-.18.023-.36.05-.543.075l1.5 24.343z"/><path fill="#B4BCB4" d="M145.695 50.836l.106.02-.097-1.573-.008 1.553z"/><path fill="#B4BCB4" d="M145.02 38.167c-.026 0-.053-.003-.08-.004l-.042 6.903.35 5.686c.15.027.3.057.448.084l.01-1.553-.686-11.116z"/><path fill="#B5BDB4" d="M144.94 38.163c-.156-.01-.313-.016-.47-.025l.427 6.928.042-6.903z"/><path fill="#FFEBA4" d="M145.248 50.752c-.13-.023-.256-.05-.385-.073l-.17-.032 1.674 27.143c.186.05.373.102.556.15l-1.675-27.188zM143.922 38.11c.062.002.124.005.186.01.12.006.242.012.363.02l-1.5-24.344c-.18.025-.358.048-.54.075l1.492 24.24z"/><path fill="#B4BCB3" d="M144.863 50.68c.13.022.256.048.385.072l-.35-5.686-.035 5.613z"/><path fill="#B5BCB3" d="M144.47 38.138l-.362-.02-.017 2.73.605 9.8.17.03.033-5.612-.427-6.928z"/><path fill="#B5BDB3" d="M144.107 38.12l-.186-.01.17 2.74.017-2.73z"/><path fill="#FFEBA3" d="M143.373 38.08l.55.03-1.494-24.24-.543.084 1.486 24.126zM144.694 50.648c-.183-.033-.37-.06-.553-.093l1.67 27.087.557.15-1.673-27.144z"/><path fill="#B5BCB2" d="M144.042 48.927l.1 1.628c.184.032.37.06.553.093l-.604-9.8-.048 8.08z"/><path fill="#B5BCB2" d="M144.09 40.85l-.168-2.74-.55-.03.67 10.847.05-8.077z"/><path fill="#FFEBA1" d="M144.142 50.555c-.036-.007-.073-.012-.11-.02l-.44-.074 1.664 27.03.556.152-1.67-27.087zM142.825 38.05l.45.024.098.005-1.486-24.126-.54.084 1.478 24.012z"/><path fill="#B5BCB1" d="M144.032 50.537c.036.006.073.012.11.02l-.1-1.63-.01 1.61zM143.373 38.08l-.098-.005-.04 6.635.354 5.752.44.075.01-1.61-.667-10.847z"/><path fill="#B6BDB2" d="M143.275 38.074l-.45-.024.41 6.66.04-6.636z"/><path fill="#FFEAA0" d="M143.59 50.46c-.13-.02-.26-.042-.39-.064-.055-.01-.11-.02-.163-.028l1.66 26.972.558.15-1.665-27.03zM142.276 38.02l.167.01.382.02-1.48-24.01c-.18.028-.36.06-.54.09l1.47 23.89z"/><path fill="#B5BCB1" d="M143.2 50.396l.39.065-.354-5.75-.036 5.686z"/><path fill="#B6BCB1" d="M142.825 38.05l-.382-.02-.015 2.46.608 9.877.163.028.034-5.687-.41-6.658z"/><path fill="#B6BDB1" d="M142.443 38.03c-.056-.002-.11-.006-.167-.01l.152 2.472.015-2.462z"/><path fill="#FFEA9F" d="M143.037 50.368l-.553-.093 1.658 26.914c.185.05.373.102.556.15l-1.66-26.972zM141.728 37.992l.55.03-1.474-23.892c-.18.03-.36.06-.54.092l1.464 23.77z"/><path fill="#B6BCB0" d="M142.38 48.57l.104 1.705.553.093-.608-9.876-.05 8.077z"/><path fill="#B6BDB0" d="M142.43 40.492l-.153-2.47c-.184-.01-.366-.022-.55-.03l.652 10.578.05-8.078z"/><path fill="#FFEA9D" d="M141.18 37.962l.432.023.116.006-1.465-23.77-.54.1 1.456 23.642zM142.484 50.275l-.115-.02-.44-.074 1.655 26.856c.188.05.37.102.557.152l-1.658-26.913z"/><path fill="#B6BCAF" d="M142.37 50.255l.114.02-.105-1.706-.01 1.685z"/><path fill="#B6BCAF" d="M141.728 37.992l-.116-.006-.04 6.368.36 5.828.438.074.01-1.686-.652-10.578z"/><path fill="#B7BDAF" d="M141.61 37.985l-.432-.023.394 6.39.04-6.367z"/><path fill="#FFE99C" d="M141.932 50.18c-.132-.02-.263-.044-.395-.065-.053-.01-.105-.02-.158-.027l1.65 26.795.556.153-1.654-26.855zM140.63 37.94c.05 0 .1.002.15.004.132.006.266.01.398.018L139.72 14.32l-.54.098 1.45 23.52z"/><path fill="#B6BCAE" d="M141.537 50.115c.132.02.263.044.395.066l-.36-5.827-.035 5.762z"/><path fill="#B7BCAE" d="M141.18 37.962c-.134-.006-.268-.01-.4-.018l-.014 2.19.613 9.953.157.027.035-5.762-.393-6.39z"/><path fill="#B7BDAF" d="M140.78 37.945l-.15-.005.136 2.197.013-2.192z"/><path fill="#FFE99B" d="M141.38 50.088c-.186-.03-.37-.064-.554-.094l1.647 26.736c.187.05.372.103.556.153l-1.65-26.795zM140.082 37.918c.183.008.366.013.55.02l-1.45-23.52-.54.104 1.44 23.396z"/><path fill="#B7BCAE" d="M140.717 48.212l.11 1.782c.184.03.367.063.552.094l-.614-9.952-.05 8.076z"/><path fill="#B7BDAE" d="M140.766 40.136l-.135-2.197c-.182-.01-.365-.014-.548-.022l.635 10.294.05-8.076z"/><path fill="#FFE999" d="M140.826 49.994l-.12-.02-.433-.068 1.644 26.67.557.154-1.648-26.736zM139.534 37.897l.412.016.136.005-1.44-23.395-.54.105 1.432 23.27z"/><path fill="#B7BCAD" d="M140.705 49.974l.12.02-.108-1.782-.012 1.762zM140.082 37.918l-.136-.005-.037 6.083.363 5.91.432.068.012-1.762-.635-10.294z"/><path fill="#B8BDAD" d="M139.946 37.913l-.412-.016.375 6.098.036-6.082z"/><path fill="#FFE998" d="M138.985 37.876l.13.005c.14.007.28.012.42.017l-1.435-23.27-.54.11 1.425 23.14zM140.273 49.906l-.4-.06c-.05-.01-.1-.016-.15-.024l1.638 26.598.558.156-1.645-26.67z"/><path fill="#B7BCAC" d="M139.874 49.845l.4.06-.365-5.91-.036 5.85z"/><path fill="#B8BDAC" d="M139.534 37.897l-.42-.016-.012 1.898.62 10.043c.05.01.1.016.15.024l.036-5.85-.374-6.097z"/><path fill="#B8BDAC" d="M139.114 37.88c-.043 0-.086-.002-.13-.004l.118 1.902.012-1.897z"/><path fill="#FFE896" d="M139.722 49.822c-.184-.03-.368-.055-.552-.083l1.634 26.524.557.156-1.638-26.598zM138.438 37.856l.548.02-1.425-23.137c-.18.036-.36.072-.54.11l1.418 23.006z"/><path fill="#B8BCAB" d="M139.054 47.856l.116 1.883.552.082-.62-10.043-.048 8.076z"/><path fill="#B8BDAC" d="M139.103 39.78l-.117-1.903-.548-.02.616 10 .05-8.078z"/><path fill="#FFE895" d="M137.89 37.835l.393.015c.052 0 .104.003.155.006L137.02 14.85l-.54.115 1.41 22.87zM139.17 49.74l-.128-.02-.425-.064 1.63 26.45c.187.054.373.107.557.158L139.17 49.74z"/><path fill="#B8BCAB" d="M139.042 49.72l.128.02-.116-1.884-.012 1.864z"/><path fill="#B8BCAB" d="M138.438 37.856l-.155-.006-.035 5.79.37 6.016c.142.02.283.042.425.064l.012-1.864-.617-10z"/><path fill="#B9BDAB" d="M138.282 37.85l-.393-.015.356 5.804.036-5.79z"/><path fill="#FFE894" d="M137.34 37.814c.038 0 .074.003.11.004.146.005.293.01.44.017l-1.41-22.87c-.18.04-.36.077-.54.116l1.4 22.734zM138.617 49.656l-.406-.062-.145-.022 1.625 26.377.557.157-1.63-26.45z"/><path fill="#B8BCAA" d="M138.21 49.594c.137.02.272.04.407.062l-.37-6.017-.036 5.954z"/><path fill="#B9BDAA" d="M137.89 37.835l-.44-.017-.01 1.604.626 10.15.146.022.036-5.955-.358-5.805zM137.45 37.818c-.036 0-.072-.003-.11-.004l.1 1.608.01-1.604z"/><path fill="#FFE792" d="M138.065 49.572l-.552-.083 1.62 26.3.557.16-1.625-26.378zM136.793 37.793c.183.006.365.015.548.02l-1.4-22.732-.538.12 1.39 22.593z"/><path fill="#B9BCA9" d="M137.39 47.5l.124 1.99c.185.026.368.055.552.082l-.625-10.15-.05 8.078z"/><path fill="#B9BDA9" d="M137.44 39.422l-.1-1.608c-.183-.006-.365-.015-.548-.02l.598 9.706.05-8.078z"/><path fill="#FFE791" d="M136.245 37.776l.373.01c.058.002.116.006.175.007L135.4 15.2c-.18.042-.36.08-.54.122l1.385 22.454zM137.514 49.49c-.045-.007-.09-.015-.135-.02-.14-.022-.28-.044-.418-.064l1.6 25.993c.057.004.115.01.17.017l-.168-.007.014.222.557.16-1.62-26.303z"/><path fill="#B9BCA8" d="M137.38 49.47c.044.005.09.013.134.02l-.123-1.99-.01 1.97z"/><path fill="#B9BDA8" d="M136.793 37.793c-.06 0-.117-.005-.175-.006l-.034 5.495.378 6.124c.14.02.277.042.417.063l.01-1.97-.597-9.707z"/><path fill="#BABDA9" d="M136.618 37.787l-.373-.01.34 5.505.033-5.495z"/><path fill="#FFE790" d="M136.962 49.406c-.14-.02-.276-.043-.415-.063l-.138-.02 1.603 26.018.55.06-1.6-25.994zM135.697 37.763c.03 0 .06 0 .088.002l.46.01-1.384-22.453c-.18.04-.358.083-.538.125l1.375 22.316zM138.016 75.386l.005.085c.19.055.373.108.558.16l-.014-.22-.548-.024z"/><path fill="#B9BCA8" d="M136.547 49.343c.14.02.276.042.415.063l-.378-6.124-.037 6.06z"/><path fill="#BABDA8" d="M136.245 37.776l-.46-.01-.008 1.3.632 10.256.137.02.037-6.06-.34-5.506z"/><path fill="#BABDA8" d="M135.785 37.765c-.03 0-.06 0-.088-.002l.08 1.303.008-1.3z"/><path fill="#FFE78E" d="M137.676 75.372c.117.034.23.065.345.1l-.004-.086-.34-.014zM136.41 49.322l-.552-.076 1.604 26.038c.186.02.367.04.55.058l-1.603-26.02zM135.15 37.75l.547.013-1.375-22.316-.54.125 1.367 22.178z"/><path fill="#BABDA7" d="M135.73 47.143l.13 2.104.55.076-.632-10.256-.05 8.076zM135.777 39.066l-.08-1.303-.548-.013.578 9.393.05-8.077z"/><path fill="#FFE68D" d="M135.858 49.246c-.048-.007-.096-.012-.143-.02l-.41-.054 1.605 26.052.55.06-1.602-26.038zM134.602 37.737l.352.008.196.005-1.366-22.178-.54.13 1.358 22.035z"/><path fill="#BABCA6" d="M135.716 49.227c.047.007.095.012.143.02l-.13-2.105-.014 2.085z"/><path fill="#BABDA6" d="M135.15 37.75l-.197-.005-.03 5.18.384 6.247c.136.02.272.036.41.055l.012-2.084-.58-9.393z"/><path fill="#BBBDA6" d="M134.953 37.745l-.352-.008.32 5.188.033-5.18z"/><path fill="#FFE68C" d="M135.307 49.172c-.14-.02-.282-.037-.423-.057-.043-.006-.086-.01-.13-.017l1.606 26.065c.185.02.37.042.55.06l-1.603-26.05zM134.054 37.724h.067c.16.005.32.01.48.013L133.245 15.7l-.54.13 1.35 21.894z"/><path fill="#BABCA5" d="M134.884 49.115c.14.02.282.037.423.057l-.385-6.247-.038 6.19z"/><path fill="#BBBDA5" d="M134.602 37.737l-.48-.012-.006.984.64 10.388c.043.006.086.01.13.017l.037-6.19-.32-5.188z"/><path fill="#BBBDA6" d="M134.12 37.725h-.066l.062.984.005-.985z"/><path fill="#FFE68A" d="M133.507 37.71c.183.004.364.01.547.013l-1.35-21.893-.537.133 1.34 21.747zM134.755 49.098l-.552-.074 1.607 26.078.55.06-1.605-26.064z"/><path fill="#BBBDA5" d="M134.065 46.785l.138 2.24.552.073-.64-10.39-.05 8.077z"/><path fill="#BBBDA5" d="M134.115 38.71l-.062-.986c-.183-.004-.364-.01-.547-.013l.56 9.075.05-8.076z"/><path fill="#FFE689" d="M134.203 49.024l-.15-.02-.4-.054 1.607 26.09c.185.02.367.04.55.062l-1.607-26.078zM132.96 37.697l.328.008.22.005-1.34-21.747c-.182.044-.36.09-.54.134l1.33 21.6z"/><path fill="#BBBCA4" d="M134.052 49.004l.15.02-.137-2.24-.013 2.22z"/><path fill="#BBBDA4" d="M133.507 37.71c-.073 0-.146-.003-.22-.005l-.028 4.864.393 6.38.4.054.013-2.22-.56-9.074z"/><path fill="#BCBDA4" d="M133.288 37.705l-.33-.008.3 4.872.03-4.865z"/><path fill="#FFE587" d="M132.41 37.684h.046c.168.004.335.01.503.013l-1.332-21.6-.538.136 1.32 21.45zM133.652 48.95c-.145-.02-.288-.04-.432-.058l-.12-.016 1.607 26.098c.185.02.37.044.552.065l-1.608-26.09z"/><path fill="#BCBDA3" d="M133.22 48.892c.145.02.288.04.433.058l-.394-6.38-.04 6.322z"/><path fill="#BCBDA3" d="M132.96 37.697c-.17-.003-.336-.01-.504-.012l-.004.667.648 10.524.12.016.038-6.323-.3-4.873z"/><path fill="#BCBDA3" d="M132.456 37.686h-.045l.042.667.004-.667z"/><path fill="#FFE586" d="M131.863 37.673c.183.003.365.008.548.01l-1.32-21.45-.54.14 1.313 21.3zM133.1 48.876l-.55-.074 1.607 26.107c.186.02.367.042.55.063l-1.606-26.097z"/><path fill="#BCBDA2" d="M132.403 46.43l.146 2.373c.184.023.367.05.55.074l-.647-10.524-.05 8.076z"/><path fill="#BCBDA2" d="M132.452 38.352l-.04-.668c-.184-.003-.366-.008-.55-.01l.54 8.755.05-8.078z"/><path fill="#FFE585" d="M131.316 37.667c.103 0 .205 0 .308.003.08 0 .16 0 .24.002l-1.313-21.3c-.18.046-.36.092-.537.14l1.303 21.155zM132.55 48.802l-.16-.022c-.132-.017-.262-.036-.392-.052l1.608 26.115.55.066L132.55 48.8z"/><path fill="#BCBDA2" d="M132.39 48.78l.16.022-.147-2.374-.014 2.352z"/><path fill="#BDBDA2" d="M131.863 37.673c-.08 0-.16 0-.24-.002l-.026 4.543.4 6.516c.13.015.26.034.392.05l.014-2.35-.54-8.757z"/><path fill="#BDBDA2" d="M131.624 37.67l-.308-.003.28 4.545.028-4.542z"/><path fill="#FFE483" d="M130.77 37.66h.022l.524.006-1.304-21.156c-.182.047-.36.095-.538.142l1.295 21.01zM131.998 48.73c-.147-.02-.294-.035-.44-.053-.037-.005-.074-.01-.11-.013l1.608 26.113.55.067L132 48.73z"/><path fill="#BDBDA1" d="M131.557 48.676l.44.052-.4-6.516-.04 6.464zM131.316 37.667l-.524-.005-.003.333.656 10.668.11.013.04-6.464-.28-4.545z"/><path fill="#BDBDA1" d="M130.792 37.662h-.023l.02.334.002-.334z"/><path fill="#FFE482" d="M130.222 37.655c.183.002.365.003.547.006l-1.295-21.007-.538.143 1.285 20.86zM131.446 48.663c-.184-.023-.367-.043-.55-.065l1.608 26.11c.184.024.367.046.55.068l-1.608-26.113z"/><path fill="#BDBDA0" d="M130.74 46.072l.155 2.525c.184.022.367.042.55.065l-.656-10.668-.05 8.078z"/><path fill="#BEBDA0" d="M130.79 37.995l-.022-.334c-.182 0-.364-.002-.547-.005l.52 8.417.05-8.077z"/><path fill="#FFE481" d="M129.675 37.65c.095 0 .19 0 .284.002l.262.003-1.285-20.86-.538.146 1.275 20.71zM130.896 48.598l-.17-.02-.38-.045 1.607 26.108.552.07-1.61-26.112z"/><path fill="#BDBD9F" d="M130.725 48.578l.17.02-.154-2.525-.015 2.505z"/><path fill="#BEBD9F" d="M130.222 37.655c-.088 0-.175 0-.263-.003l-.026 4.204.41 6.676.38.045.017-2.505-.518-8.417z"/><path fill="#BEBD9F" d="M129.96 37.652c-.096 0-.19-.002-.285-.003l.26 4.206.024-4.204z"/><path fill="#FFE47F" d="M130.345 48.532l-.45-.054-.1-.01L131.4 74.57l.55.07-1.607-26.108zM129.127 37.644c.183 0 .365.004.548.006L128.4 16.942l-.54.146 1.267 20.556z"/><path fill="#BEBD9F" d="M129.894 48.48l.45.053-.41-6.676-.04 6.622zM129.675 37.65l-.548-.007.667 10.824c.033.004.066.008.1.01l.04-6.622-.26-4.206z"/><path fill="#FFE37E" d="M129.794 48.467l-.55-.065L130.85 74.5l.552.07-1.608-26.103zM128.58 37.638c.182 0 .364.004.547.006l-1.267-20.556-.537.148 1.257 20.402z"/><path fill="#BEBD9E" d="M129.127 37.644l-.05 8.072.166 2.687c.184.02.367.043.55.065l-.666-10.824z"/><path fill="#BFBD9E" d="M129.127 37.644c-.183 0-.365-.004-.547-.006l.497 8.078.05-8.072z"/><path fill="#FFE37C" d="M129.243 48.402l-.182-.022c-.122-.014-.245-.03-.368-.043L130.3 74.43l.55.07-1.607-26.098zM128.032 37.632c.088 0 .175.002.262.003.096 0 .19.002.286.003l-1.257-20.402c-.184.05-.36.1-.538.15l1.247 20.246z"/><path fill="#BEBD9D" d="M129.062 48.38l.182.022-.166-2.687-.016 2.665z"/><path fill="#BFBD9D" d="M128.58 37.638c-.096 0-.19-.002-.286-.003l-.023 3.863.423 6.838c.123.014.246.03.37.043l.015-2.666-.498-8.076zM128.294 37.635l-.262-.003.238 3.866.024-3.863z"/><path fill="#FFE37B" d="M127.485 37.626c.183 0 .365.005.547.006l-1.247-20.246-.537.15 1.237 20.09zM128.692 48.336c-.154-.018-.31-.038-.463-.055-.03-.002-.06-.006-.09-.01l1.607 26.086c.185.024.368.05.552.073l-1.608-26.094z"/><path fill="#BFBD9C" d="M128.23 48.28c.153.02.308.04.462.056l-.422-6.838-.04 6.783z"/><path fill="#BFBD9C" d="M128.032 37.632c-.182 0-.364-.005-.547-.006l.656 10.645c.03.004.06.008.09.01l.04-6.782-.238-3.866z"/><path fill="#FFE379" d="M126.938 37.627h.547l-1.237-20.09-.538.153 1.228 19.937zM128.142 48.27l-.55-.062 1.605 26.076c.184.024.367.05.55.073l-1.605-26.086z"/><path fill="#BFBD9C" d="M127.462 37.626l-.047 7.733.176 2.848c.185.02.367.043.552.063l-.656-10.644h-.024z"/><path fill="#C0BD9C" d="M127.462 37.626h-.523l.476 7.733.046-7.734z"/><path fill="#FFE278" d="M126.392 37.628h.548l-1.23-19.938-.537.155 1.22 19.783zM127.59 48.208l-.192-.02c-.12-.014-.238-.024-.357-.038l1.606 26.06c.184.025.367.05.552.073l-1.607-26.075z"/><path fill="#BFBD9B" d="M127.397 48.188l.193.02-.176-2.85-.017 2.83z"/><path fill="#C0BD9B" d="M126.938 37.627h-.31l-.02 3.514.432 7.01c.12.013.238.024.357.038l.018-2.83-.477-7.73z"/><path fill="#C0BE9B" d="M126.63 37.627h-.238l.217 3.514.02-3.513z"/><path fill="#FFE276" d="M125.845 37.63l.547-.002-1.22-19.783-.536.157 1.21 19.627zM127.04 48.15c-.158-.017-.316-.032-.475-.05-.025 0-.05-.004-.076-.007l1.603 26.042.552.075-1.605-26.06z"/><path fill="#C0BD9A" d="M126.565 48.1c.158.018.316.033.475.05l-.432-7.01-.043 6.96z"/><path fill="#C0BD9A" d="M126.392 37.628h-.547l.645 10.465.076.008.043-6.958-.218-3.514z"/><path fill="#FFE275" d="M125.298 37.63h.547L124.635 18l-.536.158 1.198 19.47zM126.49 48.093l-.55-.057 1.602 26.024.552.075-1.605-26.042z"/><path fill="#C0BD99" d="M125.797 37.63L125.752 45l.188 3.034.55.057-.645-10.464h-.048z"/><path fill="#C1BE99" d="M125.797 37.63h-.5l.455 7.372.045-7.373z"/><path fill="#FFE173" d="M125.94 48.036l-.207-.02-.345-.037 1.603 26.006.552.075-1.603-26.024zM124.75 37.63h.548l-1.2-19.47-.536.16 1.19 19.31z"/><path fill="#C0BD99" d="M125.733 48.015l.206.02-.19-3.033-.017 3.013z"/><path fill="#C1BD99" d="M125.298 37.63h-.333l-.02 3.154.443 7.194.345.036.02-3.013-.455-7.37z"/><path fill="#C1BE99" d="M124.965 37.63h-.214l.195 3.154.02-3.154z"/><path fill="#FFE172" d="M124.204 37.632h.547l-1.188-19.313-.537.16 1.18 19.152zM125.39 47.98c-.163-.018-.325-.035-.488-.05l-.063-.008 1.6 25.986.553.078-1.604-26.007z"/><path fill="#C1BD98" d="M124.9 47.928l.488.05-.443-7.194-.044 7.144z"/><path fill="#C1BE98" d="M124.75 37.63c-.18 0-.363 0-.546.002l.634 10.29.063.007.045-7.145-.194-3.154z"/><path fill="#FFE170" d="M123.657 37.632H124.204l-1.18-19.15-.537.163 1.17 18.987zM124.838 47.92l-.55-.056 1.6 25.966.552.077-1.602-25.986z"/><path fill="#C1BD97" d="M124.132 37.632l-.042 7.014.198 3.22c.184.017.366.038.55.056l-.634-10.29h-.072z"/><path fill="#C2BE97" d="M124.132 37.632h-.475l.433 7.013.042-7.013z"/><path fill="#FFE16F" d="M123.11 37.634h.546l-1.17-18.988c-.21.064-.393.12-.536.166l1.16 18.822zM124.288 47.864l-.218-.023-.333-.033 1.6 25.946.55.078-1.6-25.966z"/><path fill="#C2BD96" d="M124.07 47.84c.072.008.145.017.218.024l-.198-3.22-.02 3.197z"/><path fill="#C2BE96" d="M123.657 37.632h-.357l-.017 2.796.454 7.38.333.033.02-3.195-.433-7.013z"/><path fill="#C2BE96" d="M123.3 37.633h-.19l.174 2.794.016-2.794z"/><path fill="#FFE06D" d="M122.564 37.64c.182-.003.363-.005.546-.006l-1.16-18.823-.434.138-.103.027 1.15 18.664zM123.737 47.807l-.5-.05c-.017 0-.033-.002-.05-.003l1.597 25.92.552.08-1.6-25.947z"/><path fill="#C2BD96" d="M123.238 47.758l.5.05-.455-7.38-.045 7.33z"/><path fill="#C3BE96" d="M123.11 37.634c-.183 0-.364.003-.546.005l.623 10.113c.017 0 .033.003.05.004l.046-7.33-.173-2.793z"/><path fill="#FFE06C" d="M123.188 47.753c-.184-.018-.367-.032-.55-.05l1.595 25.89.552.08-1.597-25.92zM122.018 37.646c.15 0 .3-.005.45-.006h.097l-1.15-18.665-.538.142 1.14 18.53z"/><path fill="#C3BE95" d="M122.468 37.64l-.04 6.648.21 3.416c.183.018.366.032.55.05l-.623-10.114h-.097z"/><path fill="#C3BE95" d="M122.018 37.646l.41 6.642.04-6.648-.45.006z"/><path fill="#FFE06A" d="M122.637 47.704l-.23-.02-.32-.03 1.595 25.86.552.08-1.597-25.89zM122.018 37.646l-1.142-18.53c-.146.04-.318.084-.538.142l1.133 18.396c.056 0 .11 0 .165-.002l.383-.006z"/><path fill="#C3BD94" d="M122.406 47.683l.23.02-.21-3.415-.02 3.395z"/><path fill="#C3BE94" d="M122.427 44.288l-.41-6.642c-.127 0-.254.003-.382.005l-.015 2.422.467 7.582.32.03.02-3.396z"/><path fill="#C4BE94" d="M121.635 37.65l-.164.003.15 2.418.015-2.42z"/><path fill="#FFE06A" d="M120.742 47.532l-.832-.075s-.555-.05-.832-.074c-.278-.023-.555-.042-.832-.064l-.832-.066c-.277-.02-.555-.043-.832-.064-.277-.02-.556-.044-.832-.064-.277-.02-.556-.045-.832-.064-.278-.02-.554-.036-.832-.055-.278-.02-.554-.036-.832-.055-.277-.02-.555-.037-.832-.055-.277-.018-.555-.038-.832-.055-.277-.018-.556-.038-.832-.055-.28-.017-.554-.03-.832-.046l-.833-.044-.832-.045-.83-.044c-.278-.014-.557-.032-.833-.045-.28-.013-.554-.023-.833-.037s-.554-.024-.832-.037l-.833-.036-.833-.037s-.557-.026-.832-.037l-.833-.03-.832-.027-.833-.03c-.277-.008-.556-.02-.832-.027-.276-.01-.557-.02-.833-.028-.28-.008-.553-.013-.832-.02-.28-.008-.555-.014-.833-.02l-.832-.022-.833-.02-.832-.02-.833-.012-.833-.012-.832-.013c-.277-.004-.557-.01-.833-.013l-.477-.007.22-.272-10.33.495c-.697-.12-1.394.117-1.768.786-1.273 2.273-4.56 6.94 2.94 9.99s11.137 3.744 15.987 6.556 10.492 7.122 16.99 8.363c2.215.423 5.568.97 9.32 1.52l-1.594-25.86-.5-.044c-.27-.028-.548-.053-.826-.078zM89.993 39.132l.833-.065.833-.065c.28-.02.55-.044.832-.065l.833-.06.833-.058.833-.06.834-.06.833-.058c.275-.02.557-.034.833-.052l.833-.052.833-.052.833-.052c.278-.017.552-.036.832-.052.276-.016.556-.03.833-.045l.833-.044.833-.045.834-.044.833-.044.833-.04c.276-.012.556-.023.833-.036l.833-.037.833-.037.832-.037c.278-.01.555-.022.833-.033l.833-.03.833-.028.834-.03.833-.028s.554-.02.833-.027c.276-.008.555-.013.833-.02.276-.008.556-.014.833-.02l.832-.022.833-.02c.278-.006.555-.015.833-.02.277-.006.556-.01.833-.014l.832-.01.833-.01.655-.01-1.133-18.392-5.33 1.403c-6.525 1.718-23.253 8.146-27.73 9.79l-1.808 1.264s1.69 3.82 3.12 7.525c.192-.017.39-.03.584-.047.268-.018.55-.04.825-.06zM90.515 45.39c-.002-.02-.002-.036-.005-.056l.005.057z"/><path fill="#C3BE94" d="M121.574 47.607l.5.045-.455-7.372-.046 7.327z"/><path fill="#C4BE94" d="M120.742 47.532l.832.075.045-7.327-.163-2.626c-.22.002-.437.006-.654.01l-.06 9.868zM119.97 37.674l-.06 9.783.832.075.06-9.87c-.278.005-.555.007-.832.012z"/><path fill="#C5BF94" d="M119.138 37.685l-.06 9.698c.277.023.555.05.832.074l.06-9.783-.832.01z"/><path fill="#C5BF94" d="M118.305 37.698l-.06 9.62c.278.023.555.043.833.065l.06-9.698c-.278.005-.556.007-.833.013z"/><path fill="#C6BF94" d="M117.473 37.718l-.06 9.535c.278.022.556.042.833.065l.06-9.62c-.28.005-.556.014-.833.02z"/><path fill="#C6C094" d="M116.64 37.738l-.058 9.45.832.065.06-9.535-.834.02z"/><path fill="#C7C095" d="M115.808 37.76l-.058 9.365c.276.02.555.043.832.064l.058-9.452-.832.02z"/><path fill="#C7C095" d="M114.975 37.78l-.057 9.28c.276.02.555.044.832.064l.058-9.366c-.278.008-.557.013-.833.02z"/><path fill="#C8C195" d="M114.142 37.8l-.056 9.205c.278.02.554.035.832.055l.057-9.28c-.278.007-.557.01-.833.02zM113.31 37.827l-.057 9.124c.278.02.554.036.832.056l.056-9.206c-.276.007-.552.018-.83.027z"/><path fill="#C9C195" d="M112.477 37.855l-.055 9.04c.277.02.555.037.832.056l.056-9.123c-.28.008-.555.02-.833.028z"/><path fill="#C9C295" d="M111.644 37.884l-.055 8.957.83.056.056-9.04c-.277.01-.554.02-.832.028z"/><path fill="#CAC295" d="M110.812 37.913l-.054 8.874c.276.017.555.037.832.055l.055-8.957-.833.028zM109.98 37.942l-.055 8.798.832.046.054-8.874-.83.03z"/><path fill="#CBC395" d="M109.146 37.975l-.053 8.72.833.045.054-8.798c-.28.01-.556.022-.834.033z"/><path fill="#CBC395" d="M108.314 38.012l-.053 8.638.833.045.053-8.72c-.28.01-.554.025-.832.037z"/><path fill="#CCC395" d="M107.48 38.05l-.05 8.555.83.045.054-8.638-.833.037z"/><path fill="#CCC495" d="M106.648 38.085l-.05 8.474c.275.013.554.03.83.044l.053-8.556-.832.037z"/><path fill="#CDC495" d="M105.816 38.123l-.05 8.4c.277.012.553.023.832.037l.05-8.474c-.277.013-.556.023-.832.037z"/><path fill="#CEC595" d="M104.983 38.162l-.05 8.323c.277.013.553.023.83.037l.052-8.4-.832.04zM104.15 38.206l-.05 8.243c.277.01.555.023.833.035l.05-8.323-.832.044z"/><path fill="#CFC595" d="M103.318 38.25l-.05 8.162c.276.01.555.024.832.037l.05-8.244-.832.044z"/><path fill="#CFC696" d="M102.485 38.295l-.05 8.08c.276.01.557.025.833.037l.05-8.162-.833.045z"/><path fill="#D0C696" d="M101.652 38.34l-.05 8.007c.28.01.554.018.834.03l.05-8.08c-.278.014-.558.027-.834.043z"/><path fill="#D0C696" d="M100.82 38.385l-.048 7.933.832.028.05-8.007-.834.045z"/><path fill="#D1C796" d="M99.987 38.437l-.048 7.853c.276.01.554.02.832.028l.048-7.933c-.28.016-.554.035-.833.052z"/><path fill="#D1C796" d="M99.154 38.49l-.047 7.772c.276.008.555.02.832.028l.047-7.853-.833.052z"/><path fill="#D2C896" d="M98.322 38.54l-.047 7.694c.275.008.556.02.833.028l.047-7.773-.833.05z"/><path fill="#D3C896" d="M97.49 38.592l-.047 7.62c.28.01.552.013.832.022l.047-7.693-.833.052z"/><path fill="#D3C896" d="M96.656 38.644l-.046 7.55c.278.006.554.012.833.02l.046-7.622c-.278.018-.56.033-.834.052z"/><path fill="#D4C996" d="M95.823 38.703l-.045 7.47.832.02.046-7.548c-.28.018-.554.04-.833.058z"/><path fill="#D4C996" d="M94.99 38.76l-.045 7.393.833.02.045-7.47c-.28.02-.555.04-.833.058z"/><path fill="#D5CA96" d="M94.157 38.82l-.044 7.314c.275.005.555.013.832.02l.045-7.393-.833.06zM93.324 38.878l-.044 7.242c.28.005.552.007.833.013l.044-7.314-.833.058z"/><path fill="#D6CA96" d="M92.492 38.937l-.044 7.17.833.014.045-7.24c-.276.018-.558.037-.833.057z"/><path fill="#D7CB96" d="M91.66 39.002l-.044 7.093.832.013.044-7.17c-.28.02-.553.043-.833.064z"/><path fill="#D7CB97" d="M90.826 39.067l-.043 7.015c.275.003.556.01.833.013l.043-7.093c-.28.02-.556.043-.834.065z"/><path fill="#D8CC97" d="M90.783 46.082l.043-7.015c-.278.02-.556.043-.833.065l-.024 4.017c.28.896.477 1.656.54 2.183l.005.057c.017.16.023.302.012.412l-.22.272.476.008z"/><path fill="#D8CC97" d="M89.15 40.772c.312.846.593 1.655.82 2.377l.023-4.018c-.277.02-.558.043-.833.065l-.01 1.575z"/><path fill="#D9CC97" d="M89.16 39.197l-.585.046c.2.516.392 1.028.576 1.53l.01-1.576z"/><path fill="none" stroke="#000" stroke-linecap="round" d="M95.877 54.457c-4.418-.844-10.06-.352-14.02-6.988-.816-1.37-2.713-1.664-3.428-.386-1.274 2.273-4.56 6.94 2.94 9.99 7.498 3.05 11.136 3.744 15.986 6.556 4.85 2.812 10.492 7.122 16.99 8.363 6.496 1.24 22.758 3.54 30.234 3.89s16.46 1.26 27.144.336"/><path fill="none" stroke="#000" d="M137.676 75.372c8.167 2.368 13.835 3.72 18.934 5.233s5.42 2.652 6.138 1.71c.72-.94 2.182-5.778 2.182-5.778"/><path fill="none" stroke="#000" stroke-linecap="round" d="M156.916 12.424c6.313-2.026 10.117-4.715 10.117-4.715s8.202 6.415 16.79 9.402M164.523 71.61c3.44 1.735 2.76 1.067 9.812 6.455s8.114 8.285 17.126 6.235M176.81 58.064c14.865-3.086 18.23 1.866 17.905 6.384s-6.775 8.672-10.81 10.057l-4.408.505"/><ellipse transform="rotate(100.813 115.093 37.568)" fill="#FFF" stroke="#000" cx="115.087" cy="37.564" rx="4.116" ry="4.241"/><path fill="none" stroke="#000" stroke-linecap="round" d="M108.323 52.414c1.83 4.146 3.38 9.576-1.384 9.004-6.32-.758-5.397.046-7.103-5.128-1.705-5.175-.727-15.013-8.938-19.486-8.378-4.563-5.085-5.82-3.637-6.35 4.478-1.644 21.206-8.072 27.73-9.79l6.523-1.716s16.196-5.2 25.846-5.568c3.528-.134 9.27-2 21.017-.026 11.744 1.975 17.423 4.676 20.133 6"/><path fill="none" stroke="#000" d="M78.43 47.083c.373-.668 1.07-.906 1.767-.786l10.33-.495c.223-2.112-4.943-13.047-4.943-13.047M128.734 23.16s-7.94 22.918-3.5 44.976"/><path fill="none" stroke="#000" d="M124.952 39.406c5.248-1.712 16.912-2.37 14.075 9.815-2.837 12.186-9.65 10.544-14.89 9.544"/><path fill="none" stroke="#000" d="M125.825 35.195c7.347-2.397 23.676-3.316 19.704 13.742-3.972 17.058-13.51 14.76-20.844 13.36"/><path fill="none" stroke="#000" d="M126.26 33.09c8.397-2.74 27.06-3.79 22.52 15.704-4.537 19.495-15.437 16.87-23.82 15.268"/><path d="M115.087 37.564l-.413-2.202c.27-.05.55-.058.834-.003 1.218.23 2.017 1.408 1.784 2.625s-1.408 2.017-2.626 1.784c-1.22-.233-2.017-1.41-1.784-2.627.02-.11.058-.212.094-.315l2.11.736z"/><linearGradient id="j" gradientUnits="userSpaceOnUse" x1="169.209" y1="34.169" x2="44.372" y2="33.407" gradientTransform="translate(-2.676 12.148)"><stop offset="0" stop-color="#0072BC"/><stop offset=".085" stop-color="#0977BE"/><stop offset=".224" stop-color="#2184C5"/><stop offset=".399" stop-color="#499ACF"/><stop offset=".603" stop-color="#80B9DE"/><stop offset=".83" stop-color="#C6DFF0"/><stop offset="1" stop-color="#FFF"/></linearGradient><path fill="url(#j)" d="M159.71 32.856l-.088-.01-.804 6.514c-2.114-.247-4.25-.46-6.4-.65.606 2.61.56 5.877-.386 9.94-.27 1.16-.563 2.233-.872 3.256 2.003.422 3.987.87 5.944 1.35l-.792 6.418.086.01 10.13-12.368-6.82-14.46z"/><path fill="none" stroke="#000" d="M126.697 30.984c9.446-3.082 30.44-4.264 25.335 17.667-5.106 21.932-17.37 18.98-26.8 17.177"/><g><path fill="#005E9E" d="M160.646 32.856l-.086-.01-.85.01 6.817 14.46-10.215 12.36h.938l.086.01 10.13-12.37"/></g></g></svg>
